<svg version="1.0" xmlns="http://www.w3.org/2000/svg" width="346.667" height="346.667" viewBox="0 0 260 260"><path d="M117.5 2.1c1.1 1.5 2.3 2.5 2.8 2.2.4-.2.7.1.7.7s.5.8 1 .5c.6-.4.8-1 .5-1.5-.3-.4.3-.7 1.2-.5 1 .1 2.4-.2 3.1-.8.9-.7 1.6-.7 2.4.1.7.7.9 1.3.5 1.3-.4.1-1.1.3-1.7.4-.5.1-1.5.3-2.1.4-.5 0-.7.7-.3 1.3.6 1 .5 1-.8.1-.8-.7-1.8-1-2.2-.6-.4.4-1.9.8-3.4.8-1.8 0-2.6.5-2.4 1.5.3 1.1-.1 1-1.6-.3-2.1-1.9-4.2-2.2-4.2-.6 0 .5-.4.7-1 .4-.5-.3-1 0-1 .7 0 1-.2 1-.9-.1-.5-.8-1.6-1.1-2.6-.7-1.6.6-1.6.4-.4-1.1 1.2-1.6 1.2-1.7-.2-.6-.9.7-1.9 1-2.3.6-.4-.4-.4.1 0 1.1.5 1.3.4 1.7-.4 1.2-.6-.3-1.3-.2-1.7.3-.3.6-1.2.8-2 .5-.8-.3-2-.2-2.7.2-.7.5-1.7.9-2.3 1.1-4.7 1-5.6 1.3-6.6 1.9-.7.4-1 .1-.7-.7.3-.8 1.1-1.3 1.7-1.2.6.2 1.1-.1 1.1-.6 0-.6-.8-.9-1.9-.8-1.4.1-1.8.8-1.7 2.7.1 2-.3 2.7-1.9 2.8-4.4.5-6 1-5.8 2 .2.6-.4.9-1.2.5-1.3-.4-1.3-.8-.3-2.2.8-1.1.5-1-1 .3-1.2 1.1-2.2 1.5-2.2 1.1 0-.4-.9 0-2 1s-2 1.4-2 1c0-.5-1 .1-2.3 1.3-1.3 1.2-2.7 1.9-3 1.5-.7-.6-.9.1-1.1 3.7-.1.8-.4 1.4-.9 1.2-.4-.1-1.4-.2-2.3-.2-.9 0-1.2-.5-.8-1.2.4-.7.3-.8-.5-.4-.9.6-.9 1.1 0 2.2 1 1.2.9 1.3-.4.9-.8-.4-1.8-.1-2.2.4-.3.6-1.2.8-1.8.5-.7-.4-.9-.4-.5.1.4.4.2 1.5-.4 2.4-.7.9-.1.6 1.4-.7 1.9-1.7 2.8-2 3.3-1.1.5.7.4 1-.2.6-.6-.4-1.8.2-2.8 1.3-2.2 2.5-3.2 2.5-3.8.2-.4-1.5-.5-1.5-.6.2-.1 1.6-.3 1.7-1.8.5-1.5-1.3-1.5-1.2-.3.8.8 1.2 1.8 1.9 2.4 1.6.5-.3.6-.1.2.6-.4.6-1.2.8-1.8.5-.8-.5-.9-.1-.5 1 .4.9.3 1.5-.2 1.1-.5-.3-1.1.1-1.4.7-.3 1-.8 1-1.8-.1-.8-.8-.9-1.1-.2-.7.7.4 1.7-.3 2.4-1.6.6-1.3.8-2 .4-1.6-.4.4-1.7.3-2.9-.3-1.9-.9-1.9-.9-.3.4 2.2 1.8 2.2 2.7-.1 2.2-1.1-.2-1.9.3-1.9 1 0 .8.4 1.2.8 1 .4-.3 1 .2 1.3 1.1.3.8.2 1.2-.4.9-.6-.3-1-.1-1 .4 0 .6-.5 1.1-1.1 1.1-.5 0-.8-.4-.4-.9.3-.5.1-1.3-.5-1.6-.6-.4-.9-.1-.8.7.2.7-.3 1.2-1.1 1-1.2-.3-1.2 0-.2 1.2.7.9 1.7 1.3 2.2 1 .5-.3.6.2.3 1-.3.9-1 1.7-1.5 1.7-.5.1-1.5.2-2.1.3-.7 0-1.3.8-1.3 1.6s-.5 1.5-1.2 1.5c-.6 0-1.5.4-2 .9s-.2.6.6.1c.9-.5 1.2-.3.9.6-.3.8-1 1.3-1.5 1.2-.5-.1-1 .5-1 1.4 0 1 1.5-.1 3.9-2.8 2.2-2.4 3.7-3.9 3.4-3.2-.3.6-.3 1.3.1 1.6.5.2.2.2-.4.1-1.5-.4-3.6 3-2.5 4.1.4.3 0 .5-.8.3s-1.4.2-1.3.9c.1.6-.5 1-1.5.8-.9-.1-2.2.7-2.9 1.9-.7 1.1-1.2 1.5-1.3.8 0-1.5-3-1.6-3-.1 0 .5.4.7 1 .4.6-.3.7.1.4 1-.6 1.4-.7 1.4-1.8 0-1-1.4-1.2-1.3-1.4 1.2-.5 7-.5 7.3-2.1 6-1.2-1-1.4-.9-.8.5.3.9-.1 2.2-.9 2.9-.8.7-1.3 1.7-1 2.4.2.6-.5 1.1-1.8 1.1-1.8-.1-2.1.4-2.1 4s-.3 4.1-2 3.8c-1.9-.3-2-.3-.1 1.1 1 .8 2.4 1.2 3 .9.6-.3.2.2-.8 1-1.1.9-2.1 2.3-2.2 3.2-.2 1-1 2.4-2 3.3-.9.9-1.4 1-1 .3.4-.6.3-1.2-.2-1.2-.6 0-1.3.7-1.6 1.6-.3.8-.2 1.2.4.9.6-.3 1-.1 1 .4 0 .6-.5 1.1-1.2 1.1-.6 0-.3.7.8 1.6 1.6 1.3 1.6 1.5.2 1-2.3-.7-3.3 1.1-1.6 3.1.9 1.2.9 1.5 0 .9-2.1-1.2-1.8 5.1.3 6.6.6.5.6.8-.2.8-.7 0-1.7-.8-2.2-1.8-.6-.9-1.1-1.2-1.1-.6 0 .5.6 1.9 1.4 2.9 1.4 1.9 1 5.5-.6 5.5-.5 0-.4-.9.2-2 .7-1.4.7-2 0-2-.5 0-1 .7-1 1.6 0 .8-.5 1.2-1 .9-.6-.3-1-.2-1 .3 0 1 3 2.6 4.3 2.3.4-.1.4.7-.1 1.6-.5 1-.7 2.5-.5 3.3.4 1.3.3 1.3-.5.1-.6-.8-.8-2-.5-2.8.3-.7 0-1.3-.7-1.3-.6 0-.9.4-.6.9.3.5-.1 1.2-1 1.5-1.2.4-1.4.1-.9-1.4.4-1.2.2-2-.5-2-.6 0-.8.4-.5 1 .3.5.1 1-.6 1-1 0-1 .3-.1 1.2 1.6 1.6 1.5 3.1 0 2.1-.7-.4-.5.6.6 2.1 1.3 2.1 1.5 2.8.4 2.4-1.1-.5-1.4.6-1.3 5.3.1 3.2.4 6.1.8 6.5 1 1 .9 2.6-.1 2-.4-.2-.8.8-.7 2.4 0 1.5.4 2.6.8 2.3.5-.3.6-1.1.3-1.9-.3-.8 0-1.7.8-2 1-.4 1.3-1.8 1-4.7-.3-2.7-.1-3.7.5-2.8.7 1.1 1 1.1 1.5 0 .3-.8.3-.3 0 1-.5 1.7-.3 2.1.6 1.6.9-.6 1.1-.4.4.6-1.1 1.9-1.3 5.8-.2 6.5.4.3.8 1 .8 1.5 0 .6-.4.8-.9.5-.5-.3-1.1 1-1.3 3-.4 3.1-.3 3.4.9 1.9.7-1 1-2.1.8-2.5-.2-.4.2-.7 1-.7 1.1 0 1.2.4.4 1.3-.6.7-.7 1.9-.3 2.5.4.7.3.9-.3.6-.6-.4-1.4 0-1.7.9-.3.8-.2 1.2.4.9.6-.3 1 .1 1 1s-.4 1.4-.9 1c-.5-.3-1.3-.1-1.6.5-.4.6-.1.9.5.8.7-.2 1.4.4 1.5 1.2.2.8.7 2.4 1.1 3.4.5 1.4.4 1.7-.4 1.2s-1-.2-.6.8c.3.9 1.2 1.6 1.9 1.6 1 0 1.1.9.5 3.5-.7 3.3.2 5.6 1.7 4.1.4-.3.1-.6-.5-.6s-.9-.7-.6-1.5c.4-.8 1-1.5 1.6-1.5.5 0 .6.5.2 1.1-.3.6 0 1.5.7 2 1.1.7 1.1.9.1.9-.7 0-1 .4-.7 1 .4.6-.1.7-1.2.4-1.5-.5-1.6-.4-.3.5.8.6 2.3.8 3.3.5.9-.3 1.7 0 1.7.6s-.4.8-1 .5c-.5-.3-1-.2-1 .4 0 .6.9 1.5 2.1 2.1 1.4.8 1.7 1.5 1 2.4-1.2 1.4-1.1 5.7.1 5 .5-.3.5-1.1.2-1.7-.4-.7-.3-.9.1-.4.5.4 1 1.6 1.2 2.7.2 1.4-.2 1.8-1.5 1.4-1.6-.5-1.6-.5.1.6 1.9 1.2 2.4 3.5.5 2.4-.8-.4-1-.3-.5.2s1.4.9 2 .9c.7 0 1.1.8 1.1 1.8-.1.9.3 1.4.9 1 .6-.4.8 0 .5.9-.4.8 0 1.5.7 1.5 1.1 0 1-.7-.3-3.1-1.6-3.1-2.8-7.5-1.6-6.4.3.3.7 1.2.8 2 .6 3.1 3 6.7 4 6.1.6-.4.6 0-.1.9-1.5 1.8-.7 2.9 1.5 2.1 1-.5 1.3-.3.8.6-.5.7-1.4 1-2.2.7-.8-.3-1.4-.1-1.4.4 0 .9 1.5 1.4 3.3 1.1.5-.1.6.3.2.9-.3.5 0 2.1.7 3.5l1.3 2.5 1.4-2.3c1.3-2 1.3-2.1-.1-.9-1.3 1-1.7 1-2.1-.2-.4-.9-.1-1.8.5-2.2.7-.4.8-.3.4.4s-.2 1.2.3 1.2c.6 0 1.1-.6 1.1-1.3 0-.8.3-.9.8-.1.4.6 1.4 1.4 2.2 1.7 1.2.4 1.1.6-.2.6-1 .1-1.8.7-1.8 1.5 0 1.8 2.7 2.9 3.6 1.4.4-.6.3-.8-.4-.4-.6.3-1.3.2-1.7-.4-.3-.5 0-1 .7-1 1.7.1 6.6 2.9 5.3 3-.5.1-.1.5.9.9 1.9.7 1.9.8-.2 1.3-1.2.4-2 .2-1.6-.3.3-.5-.3-.6-1.2-.2-1.1.4-1.3.8-.6 1.1.7.2.9.9.6 1.4-.4.7-.2.8.4.4.6-.3 1.6.3 2.2 1.4.6 1.1.8 2 .5 2-.4 0 .3 1.3 1.4 2.9 1.1 1.5 1.7 3.1 1.4 3.5-.4.4.1.4 1.2 0 1.1-.5 1.4-.9.7-1.2-1.7-.5-3.6-4.2-2.2-4.2.5 0 1 .6 1 1.4 0 .8.6 1.6 1.3 1.8.6.3 1.2 1.8 1.2 3.4.1 2 .6 2.9 1.7 2.9 1 0 2.3.6 3 1.3.9.9.9 1.2-.2 1.2-.7 0-1.1.3-.7.6.3.3 1.1.3 1.7-.1.8-.5.7-1.1-.2-2.3-.9-1.1-.5-1 1.3.3 1.5 1.1 2.5 2.3 2.3 2.7-.5.8 2.4 3.8 3.6 3.8.5 0 1.1-.8 1.3-1.7.4-1.6.5-1.6.6-.1.1 1.2.8 1.5 2.6 1.2 1.4-.2 2.5 0 2.5.5s-1.3.7-2.9.6c-3.4-.3-5.9.9-4.2 1.9.6.4 1.1.2 1.1-.3 0-1.3 2.2-1 3.2.4.5.6.8.4.8-.5.1-1.2.4-1.1 1.5.4.8 1.1 1.8 1.7 2.1 1.3.4-.4 1.2-.2 1.9.3.8.7 1.2.5 1.2-.4 0-.8-.8-1.3-1.9-1.1-1.2.3-1.6 0-1.2-.7.5-.7.2-.8-.6-.3s-1.1.4-.7-.3c.4-.5 1.5-.9 2.5-.7.9.2 2.1.4 2.6.4.4.1.6.7.3 1.5-.3.7-.1 1.8.5 2.4.6.6.6 1.2-.1 1.6-.6.4-1.1 1.1-1.1 1.5 0 1.3 3.9 2.1 4.6 1 .3-.5.2-.9-.3-.8-.4.1-1.5.1-2.3 0-1.3-.1-1.3-.3-.1-1 1-.7 2.4-.3 4.5 1.2 1.7 1.2 3.2 2 3.3 1.7.1-.3.5-.2.9.2.3.4-.2.6-1.3.4-1.2-.3-2 .1-2 .9s.4 1.2.8.9c.4-.2 1 0 1.4.6.3.5 1.2 1 1.8 1 .9 0 .8-.3-.1-.8-1-.7-.8-1.3.7-2.6 1.9-1.7 1.9-1.7 1.4.6-.4 1.8-.3 2 .6.8.9-1.3 1.1-1.3 1.1.1 0 .8-.6 2.1-1.3 2.9-1 1.2-.9 1.2.4.2.9-.6 1.9-.9 2.3-.5.9.9 3.7 1.3 3.2.4-.3-.4 0-1.3.5-2.1.9-1.3 1-1.3.8 0-.3 3.4.2 4 3.9 4 2.7 0 3.3.3 2.2 1-.9.6-1 1-.3 1s1.7-.8 2.3-1.8c1-1.4 1.1-1.3.6.8-.5 2.3-.4 2.4.9.7 1.3-1.8 1.4-1.7 2 .2.3 1.2 1.1 2.1 1.7 2.1.7 0 .6-.5-.2-1.4-.9-1.2-.8-1.5.9-1.3 1.1 0 1.7.5 1.4 1-.3.5 0 .7.8.5.8-.3 1.3-1.1 1.1-1.7-.1-.7.2-1 .7-.6.6.3.7 1.3.4 2.3-.6 1.5-.5 1.5 1 .3.9-.7 1.7-1 1.8-.5 0 .5.4 0 .9-1.1.8-1.8.9-1.8.9-.2.1 1-.5 2-1.3 2.3-1.5.6-1.6 2.8-.1 4.1.4.4.5.2.1-.5-.4-.6-.2-1.2.4-1.2.6 0 .8-.4.5-1-.3-.5-.1-1 .4-1 .6 0 1.1.6 1.1 1.2 0 .9.4.8 1.1-.2.8-1.2 1-1 .5 1-.5 2.4-.4 2.4.9.6 1.2-1.5 1.2-2.2.3-2.7-.7-.4-1.6-.5-2-.3-.4.3-.8 0-.8-.5 0-1.5 2.3-1.4 3.9.2 1.2 1 1.3.8.7-.8-.6-1.8-.5-1.9.7-.3.9 1.2 1.7 1.4 2.4.7.6-.6 1-.5 1 .3 0 .7.4 2 .7 2.9.5 1 .2 1.6-.9 1.6s-1.4-.6-.9-2.1c.4-1.5.3-1.7-.4-.7s-1.1 1-1.4.1c-.2-.7-.8-.2-1.5 1.1l-1 2.4h11.6c10.5 0 11.7-.2 11.6-1.7-.1-1-.5-2.1-1.1-2.5-.5-.5-.6-.4-.2.1.4.5 0 1.5-1 2.2-2.5 1.9-3.8 1.7-2-.4.9-.9 1.3-2.4 1.1-3.2-.3-1-.2-1.1.4-.4.4.6 1.8 1 3 .9 1.2-.1 1.9.3 1.6.8-.3.6-.1.7.5.3.7-.4 1.2-.2 1.2.3 0 .6.5 1.1 1 1.1.6 0 .4-1-.5-2.3-1.6-2.4-1.4-2.5 4.8-2.7.9-.1 1.5-.5 1.3-.9-.3-.5.6-.6 1.9-.3 1.5.2 2.2.9 1.8 1.6-.3.6 0 .6.8-.2.7-.6 1.7-1.2 2.2-1.2.4 0 .5.6.1 1.2-.6 1-.4 1 .8 0 1.1-.9 1.8-.9 2.1-.2.3.6.4.5.2-.2-.1-.7-.8-1.2-1.4-1-.7.1-.9-.3-.6-.9.5-.8.2-.8-1.2-.1-1.6.9-1.9.7-2-1.1 0-1.2.1-1.6.4-1 .7 2 2.3 1.5 1.6-.5-.4-1.1 0-1 1.1.5 1 1.3 2.2 2.3 2.8 2.3.6 0 .5-.7-.3-1.7-1.3-1.6-1.2-1.7.3-.4 1 .7 1.5 1.8 1.1 2.5-.4.6.1.5 1-.3 1-.8 2-1.1 2.4-.8.3.4 1.5.2 2.6-.4 1.4-.8 1.8-.8 1.3 0-.4.6-.3 1.1.3 1.1s1.7-1.2 2.4-2.6c1.2-2.2 1.5-2.4 2-1 .5 1.1.3 1.5-.5 1-.7-.4-.8-.3-.4.5.6.8 1.2.9 2 .2.7-.6 1.5-.9 1.8-.6.2.3.5-.2.5-1 0-1.2-.3-1.2-1.6-.3-1.2.9-1.1.7.2-.8 2-2.4 4.8-2.7 6.3-.5 1 1.2 1.1 1.1.9-1.1-.3-2.6 1.4-3.3 3.2-1.3.4.4.3.5-.4.1-.6-.3-1.5-.1-1.9.5-.4.8-.3.9.4.5s1.2-.2 1.2.6c0 .7.7.2 1.6-1 1.5-2.2 4.1-2.2 2.8 0-.4.7-.2.8.5.4.9-.6.9-1.1 0-2.2-.8-.9-1.6-1.1-2.3-.5-.8.7-1.2.4-1.2-.9 0-1.7.2-1.7 2.9-.3 2 1 2.7 1.1 2.1.2-.5-.9-.2-1 1.1-.5 1.5.5 1.6.4.5-.9-.9-1.1-.9-1.5-.1-1.5.7 0 .9-.5.5-1.3-.4-.6-.4-.9.1-.5.4.4 1.4.3 2.1-.2.8-.8 1.7-.6 2.8.5 2.2 2.2 2 .7-.1-1.9-1.5-1.7-1.3-1.6 1.7.4s3.2 2.1 1.8.4c-2.2-2.6-2.2-2.6.2-5.4 1.4-1.6 1.7-2.6.9-3-.6-.4.2-.8 1.8-.8 5.4-.2 7-.6 7-1.9 0-.9-.5-.9-2-.1s-1.8.7-1.2-.4c.3-.7 0-.5-.9.5-1 1.4-1.9 1.6-3.1.9-1.6-.8-1.6-1-.1-1.5.9-.4 1.6-1.2 1.6-1.8 0-.9-.3-.9-1.4 0-1.1.9-1.3.6-1.1-1.4.2-1.4-.1-2.7-.6-3.1-.5-.3-.9-1-.9-1.7 0-.6.6-.2 1.4.8.8 1.1 1.2 2.4.8 2.9-.3.5.2.7 1.1.3.9-.3 1.6-.3 1.6.1-.3 1.9.3 2.8 2 2.9 1.4.1 1.8-.3 1.4-1.4-.5-1.3-.2-1.2 1.5.2 1.1 1 1.8 2.5 1.5 3.4-.3 1.2-.2 1.2.7-.2.6-.9 1.5-1.5 2-1.2.5.3 1.1-.4 1.5-1.5.4-1.1 1.1-1.7 1.7-1.4.7.4.8.2.4-.5-.4-.6-.1-1.4.7-1.7.7-.2 1.4-1.1 1.4-1.8 0-.8-.6-1.2-1.4-.9-.7.3-1.3-.1-1.3-.8 0-.7.3-.9.7-.6.9 1 3.4-1.4 2.6-2.6-.3-.6-.1-.7.6-.3.6.4.8 1.3.4 1.9-.4.7.2.5 1.3-.3 2.9-2.2 3-2.4 1.2-1.7-1 .4-1.8.2-1.8-.3 0-.6.5-1 1.1-1 .5 0 .8-.4.4-.9-.3-.5-.1-1.2.5-1.6.6-.4.8-1 .5-1.5-.3-.5 0-1.2.6-1.6.7-.4.9-.3.6.3-.7 1.1 2.2 2.8 3.1 1.8.3-.3.1-.5-.4-.5-1.6 0-1.4-3.8.2-4.4.9-.3 1.2-1.1.8-1.7-.4-.7.1-.7 1.6.1 1.2.7 2 .8 1.6.2-.3-.5.5-2.1 1.9-3.6 1.3-1.4 1.9-2.6 1.3-2.6-.6 0-.5-.6.3-1.6 1-1.2 1-1.7 0-2.3-1-.6-.9-1 .4-1.5.9-.3 2.1-.4 2.5-.1.5.3 1.2 0 1.6-.6.4-.7.3-.9-.4-.5-.6.3-1.3.2-1.7-.4-.6-.9.8-1.4 2.8-1.1.5.1.6-.3.2-.9-.4-.6-1.6-.8-2.8-.5-2.1.5-2.1.5.1-.6 2.3-1.2 3.1-4.9 1-4.9-.6 0-.8-.3-.5-.6.4-.4 1.2-.2 2 .4.9.8 1.7.8 2.7 0 1.2-.8 1.2-.9-.2-.4-1.2.3-1.8 0-1.8-.9 0-.8.5-1.5 1-1.5.6 0 .3-1.2-.7-2.8l-1.7-2.7 2.3 2.2c2.2 2.3 3.7 3.1 2.7 1.4-.4-.5-.3-1.1.1-1.4.5-.2.2-.2-.5 0-.7.1-1-.2-.7-.7.3-.6 0-1-.7-1-1 0-1-.2.1-.9.7-.5 1.1-1.4.7-2-.5-.7-.1-.9.8-.5 1.8.7 2.1 2 .6 2.7-.6.3-.5.4.2.3.7-.2 1.3-.9 1.3-1.7 0-.8.5-2.1 1-2.9.7-1.3.6-1.3-.7-.2-1.3 1-1.5.9-1.2-1.4.1-1.4.5-2.8.8-3.1.3-.4 0-1.3-.7-2.2-1.1-1.4-1-1.4.5-.2 1 .7 1.5 1.8 1.1 2.4-.3.6-.1.7.5.3.9-.5.9-1.3.2-2.7-.8-1.3-.7-1.9 0-1.9s.7-.6 0-2.1c-.7-1.1-.9-2.3-.6-2.6.3-.4.1-1.1-.4-1.8-.7-.8-.5-1.2.5-1.2.8 0 1.2.4.9.9-.9 1.4.7.9 2.4-.9 1.6-1.6 1.6-1.6 0-1-1 .3-1.8.2-1.8-.4 0-.6-.4-.8-.8-.5-.4.2-.9-.5-.9-1.6-.2-1.9-.1-1.9 1.1-.2 1.3 1.7 1.4 1.6 2.5-.4.6-1.2 1.7-2.2 2.3-2.2.7 0 .6.5-.2 1.5-.9 1.1-1 1.9-.3 2.6.8.8 1.3.7 1.8-.2.5-.8.4-1-.3-.5-1.5.9-1.6-.6-.1-2.1.8-.8.8-1.3 0-1.7-.6-.4-1.1-1.2-1.1-1.7 0-.6.5-.7 1.1-.3.8.5.8.1 0-1.4-1.3-2.4-1.4-3.5-.3-2.9.4.3.7-1.1.8-3.1.1-2.1-.1-3.1-.3-2.4-.3.6-.9 1-1.3.7-.5-.3-.7-1.2-.4-2 .4-.8.9-1.3 1.3-1.1.3.2.6-1.3.6-3.4.1-2.5-.3-3.6-1.1-3.3-.8.3-1.1-.5-.9-2.3.1-1.6.1-3.4-.2-4.1-.9-2.3-1.9-1.4-1.9 1.7 0 1.6.4 3 1 3s.4.5-.4 1c-1.3.9-1.3 1 0 1s1.3.1 0 1.1c-1.2.8-1.1.9.6.5 1.4-.5 2.1-.2 2.1.9s-.7 1.4-2.1.9c-1.2-.3-1.6-.2-1 .3 1.2 1 1.4 5.6.1 6.4-.5.4-.4.9.2 1.3.6.4 1.1.2 1.1-.4 0-.6.5-.8 1.1-.4.8.4.7.9-.2 1.4-2.5 1.6-3.7 0-3.1-4.2.4-3.3.2-4-.9-3.3-1.1.6-1.2.5-.2-.5 1-1.1.9-1.6-.5-2.7-1.6-1.2-1.5-1.2.3-.6s1.9.5.5-1.2c-.8-1-1.5-1.9-1.4-1.9 0-.1.6-1.2 1.3-2.5 1.1-2 1.1-2.3-.1-1.8-.8.3-1.5-.1-1.5-.9 0-.7.4-1.1.9-.8.4.3.8 0 .8-.6s.5-.8 1-.5c1.6 1 1.1-.1-.7-1.6-1.4-1.2-1.6-1.2-.8 0 .5.9.4 1.2-.3.7-.6-.4-.8-1.4-.5-2.3.5-1.2.3-1.4-.8-.8-1.1.7-1.2.6-.2-.7.7-.8 1-1.7.7-2-1-1.1-1.4-5.8-.4-5.8.5 0 1-.5 1-1.1 0-.5-.4-.8-.8-.5-.4.2-1.4-.5-2.2-1.7-1.2-2-1.2-2.1.3-.9 1.2 1 1.7 1 2.3.1.4-.8.3-.9-.4-.5s-1.2.3-1.2-.3c0-.5.5-1.3 1-1.6 1.5-.9.1-2.7-1.6-2.1-1.3.5-1.9-.6-1.5-2.7.1-.5-.9-.6-2.1-.2-1.5.4-1.9.3-1-.3 1-.7 1-1.1-.2-2.1s-1.3-1.7-.4-3.1c.7-1 1.7-1.6 2.3-1.3.5.4.6.2.2-.2-1-1.2-3.9-1.6-3.2-.5.3.5.1 1.1-.4 1.4-.5.4-.8-.2-.6-1.1.2-1 .4-2.2.4-2.6.1-.5.4-.6.9-.4.4.3.7-.5.7-1.8 0-1.2-.5-2.1-1.1-1.8-.6.2-1.1 1.1-1 2 0 .9-.6 1.8-1.4 2-1.3.4-1.3.3 0-.6 1.3-1 1.2-1.3-.5-2.8-1.6-1.3-1.7-1.5-.2-1 1.1.4 1.7.1 1.7-.8 0-1.3-1.9-2-4.3-1.6-.5.1-.6-.3-.3-.8.4-.5.2-1.2-.4-1.6-.7-.4-.7-1.2 0-2.5 1.1-2-1.1-4.7-3-3.5-.6.4-.9.1-.8-.7.2-.7-.2-1.2-.9-1.1-.9.2-1-.4-.4-2 .5-1.2 1.4-2.1 2.1-1.9.6.1.9-.2.5-.8-.3-.6-1-.8-1.4-.6-.4.3-1.9-.6-3.4-2-1.4-1.3-3-2.4-3.4-2.4-.4.1.2.9 1.4 1.9 1.2 1 1.9 2.2 1.5 2.6-.4.5-.1.5.7 0 1-.6 1.2-.4.6.5s-.4 1.1.5.5c.9-.6 1.1-.4.5.5-.6 1-1.5.4-3.6-2.1-2.6-3.2-2.7-3.5-1.1-4.8 1.5-1.2 1.4-1.3-1.1-.8-2.7.4-2.7.4-1.1-2.1.9-1.3 1.1-2.1.5-1.8-.6.4-1.1.2-1.1-.4 0-.6-.8-.9-1.8-.6-1.3.4-2.2-.4-3.5-3.2-1-2-1.6-2.7-1.3-1.5.2 1.3.1 2.3-.4 2.3-.9 0-2-4.8-1.1-5.3.3-.2 0-.2-.6-.1-1.2.3-1.7-.8-1.5-2.7.1-.4-1.4-.6-3.2-.5-2.6.1-3.2-.2-2.8-1.4.5-1.2.3-1.3-1-.3-1.8 1.5-2.9.7-2-1.5.5-1.5.4-1.5-1.1-.3-1 .8-2 1.1-2.4.7-.3-.3-.1-.6.5-.6.7 0 1.2-.5 1.2-1.1 0-.5-.4-.7-1-.4-.6.3-.7-.1-.4-.9.3-.9 1.1-1.6 1.7-1.6.6 0 .7-.3.4-.7-.4-.3-1.6.2-2.7 1.2-1.6 1.4-1.9 1.5-1.5.4.3-.9-.1-2.2-.9-2.9-.9-.7-1.3-1.7-.9-2.3.4-.6.1-.7-.8-.1-.8.4-2.2 1-3.3 1.1-1.6.3-1.7.1-.6-1.2.7-.9 1-1.8.6-2.2-.3-.3-.6-.2-.6.4 0 1.6-2.8 2.4-3.6 1.1-.4-.6-.3-.8.4-.4.6.3 1.4.1 1.8-.6.4-.7.4-1-.1-.6-.4.4-1.4.3-2.2-.3-.7-.6-1.3-.8-1.3-.4s-.8.1-1.7-.6c-1.4-1.2-1.5-1.2-.9 0 .7 1 .3 1.2-1.5.6-2-.5-2.1-.4-.9.5 1.3 1 1.3 1.1-.1.7-.9-.3-2.2 0-2.9.6-.7.7-.6.1.3-1.3 2.1-3 2.2-4.4.3-3.7-.7.3-2 0-2.7-.6-1.1-1-1.1-.9 0 .5.7 1 1.7 1.5 2.2 1.2 1.6-1 .9.3-.8 1.7-1 .7-1.5.9-1.1.5 1-1.1-1.1-3.8-2.3-3-.5.3-1.8 0-2.8-.6-1.6-.8-1.9-1.5-1.2-3.3.7-1.9.5-2.3-1-2.3-1.1 0-1.5.4-.9 1.1.5.6.5 1.7-.2 2.5-.8 1.3-.9 1.2-.5-.1.4-1.1-.3-2-1.9-2.8-3.2-1.4-3.7-1.4-2.8.1.6 1 .4 1-.8 0-.9-.7-2.2-1.1-2.9-1-.8.2-1.3-.3-1.1-1 .1-.6-.4-1.3-1-1.3-1.5-.1-3.1-.5-3.8-.8-2.1-1-3.8-.7-3.3.5.4 1 0 1.2-1.1.8-1-.4-1.6-.1-1.6.7 0 .7-.3.9-.6.6-.4-.4-.1-1.3.5-2.1.9-1.1.9-1.6 0-2.2-.7-.4-.9-.3-.6.3.7 1.1-1.3 2.3-3.6 2.3-.8 0-.8-.3.1-.9.8-.4-.4-.7-3-.7-3.6.2-4.6-.3-6.5-2.7-1.2-1.7-2.4-2.4-2.8-1.8-.3.6-1.1 1.1-1.6 1.1-.6 0-.8-.4-.5-.8.8-1.3-7.3-.7-8.6.6-.7.7-1.9 1.2-2.7 1.2-1.1 0-1.1-.3.3-1.3 1.6-1.2 1.6-1.4.2-1.4-.9 0-1.6.5-1.6 1s-.8.3-1.7-.4c-1.3-1.1-1.3-.8.2 1.2zm9-.2c-.9.8-3.6 1-3 .2.2-.4 1.1-.8 2-.8.8 0 1.3.3 1 .6zm6.8.5c1-.3 2.1.3 3.1 1.9 1.2 1.7 2.4 2.3 4.1 2.1 1.4-.1 2.5.2 2.5.7 0 .6.4.8.8.5.4-.2 1.4-.1 2.2.4 1.2.7 1.1.9-.5.9-4.7.1-5.6.5-5 2 .4 1.3.2 1.3-.8-.1-.8-1-1.7-1.5-2.1-1.1-.4.4-.4-.1 0-1.2.7-2 .7-2-1.5 0-2.1 1.8-2.2 2-.5 2.3 2.7.5 3.8 1.8 2.3 2.7-.8.5-1 .4-.5-.3.4-.8 0-1.2-1.2-1.2-2.5 0-3.4-1-2.2-2.5.7-.9.5-1.7-.7-2.6-1.5-1.2-1.6-1.2-1 .3.3 1 .2 1.8-.3 1.8-.9 0-1.5-2.3-1.1-4.4.1-.4-.4-1.6-1.1-2.5-1.1-1.4-1.1-1.4.3-.3.9.7 2.3 1 3.2.6zm24.5 5.2c.5-.3.9 0 .9.7s-.8 1.3-1.8 1.3-1.6-.2-1.4-.5c.3-.2-.1-1.1-.8-2-1-1.4-1-1.4.5-.3.9.8 2.1 1.1 2.6.8zM74.2 18.8c-.6.2-1.4.3-1.7.2-.3 0-1.3.6-2.1 1.5-.9.8-2.1 1.2-2.7.8-.6-.4-.8 0-.4 1 .3.9.1 1.9-.5 2.3-.7.5-.8.2-.3-.6.6-.9.2-1-1.6-.5-2.2.7-2.1.5.6-1.6 1.6-1.3 3.3-2.4 3.7-2.4.4 0 1.2-.5 1.9-1.2.6-.6 1.9-.9 2.7-.5 1 .3 1.2.7.4 1zm60.4-.6c.5.7.3.8-.6.3-.9-.6-1.2-.4-.8.7.4.8 0 1.5-.7 1.5-1.6 0-1.5-1.8 0-2.9 1.3-1 1.3-1 2.1.4zm54.8 2c-.3.5-1 .6-1.5.3-.5-.4-.9-.2-.9.3 0 .6-.8 1.3-1.7 1.6-1.6.6-1.6.6 0-1.2 1.7-1.8 5.1-2.7 4.1-1zM183 22c0 .5-.5 1-1.1 1-.5 0-.7-.5-.4-1 .3-.6.8-1 1.1-1 .2 0 .4.4.4 1zm6.1 2.3c-1 .9-1.1.8-.5-.6.3-1 .9-1.5 1.2-1.2.3.3 0 1.1-.7 1.8zM129 25c-.6 1.1-1.3 2-1.6 2-.3 0-.2-.5.1-1 .3-.6 0-1-.7-1.1-1 0 1.2-1.4 3-1.8.1-.1-.2.8-.8 1.9zm70.3 0c1 1.2.9 1.2-.4.2-.9-.6-1.8-.9-2.1-.6-.3.3-.9.1-1.2-.4-.9-1.5 2.2-.8 3.7.8zm-14.6.5c0 .8-.4 1.2-.9.9-.5-.3-.6-1-.3-1.5.9-1.3 1.2-1.1 1.2.6zm-54.2 5.7c.5-.4.5-.1.1.6-.6 1-1.4.6-3.2-1.3-1.3-1.4-2.4-3.1-2.4-3.7 0-.7 1.1.2 2.3 2 1.3 1.7 2.8 2.8 3.2 2.4zm.9-3c-.3.4-.9.8-1.5.8-.5 0-.9-.4-.9-.8 0-.5.7-.9 1.5-.9s1.2.4.9.9zm-5.2 3.2c-.2.5.2 1.3 1 1.8 1.1.8 1.1.9 0 .6-.8-.2-1.3-.8-1.2-1.3.1-.6-.9-1.3-2.2-1.7-2.2-.7-2.2-.7.2-.5 1.4.1 2.3.6 2.2 1.1zM214 36c.7 1.4.7 2 0 2-.5 0-1-.7-1-1.5s-.5-1.5-1.1-1.5c-.5 0-.7.5-.3 1.2.4.7.3.8-.5.4-1.2-.8-.6-2.6.9-2.6.5 0 1.4.9 2 2zm-91.9 4.7c-.6 1.1-1.1 1.3-1.1.5 0-.7-.5-1-1.2-.6s-.8.3-.4-.5c.4-.6 1.2-.9 1.7-.6.5.4.9.1.9-.6s.3-1 .6-.6c.3.3.1 1.4-.5 2.4zm-3.4 3.3c-.1 1-.5 1.6-.9 1.4-.4-.3-.8.1-.8.8 0 .8-.5.6-1.1-.5-.8-1.3-.7-2.2.1-3.2 1.5-1.8 2.9-1.1 2.7 1.5zm105.8 1.9c.3.5.1 1.2-.5 1.6-.5.3-1-.1-1-.9 0-1.8.6-2.1 1.5-.7zm-105.1 1.9c.3.5-.1.9-.9.9s-1.2-.4-.9-.9c.3-.4.7-.8.9-.8.2 0 .6.4.9.8zm66.1.1c-.9.8-3.6 1-3 .2.2-.4 1.1-.8 2-.8.8 0 1.3.3 1 .6zm-73.4 4.8c1.3 1.6 1.2 1.7-.3.4-1-.7-1.8-1.5-1.8-1.7 0-.8.8-.3 2.1 1.3zm68.7 1.8c-.3.3-.9-.2-1.2-1.2-.6-1.4-.5-1.5.5-.6.7.7 1 1.5.7 1.8zm-70.1.9c0 .8-.6 1.2-1.5.9-1.1-.5-1.1-.7 0-1.4.7-.5 1.3-.9 1.4-.9 0 0 .1.6.1 1.4zm-74 1.4c0 1-.6 1.9-1.3 1.9-.9 0-.9-.5-.1-1.9.7-1 1.3-1.8 1.4-1.8.1 0 .1.8 0 1.8zm73.7 2.6c-.3.9-1.2 1.2-2.2.9-1.5-.6-.9-1.1 2.5-2.2.1-.1 0 .5-.3 1.3zm74.6.2c0 .8-1.9 1.3-2.4.6-.3-.5.1-.9.9-.9s1.5.2 1.5.3zm-76.5 3.2c-.3.3-1.1 0-1.8-.7-.9-1-.8-1.1.6-.5 1 .3 1.5.9 1.2 1.2zm-69.8 1.9c0 .9-.4 1-1.4.2-.7-.6-1.3-1.2-1.3-1.4 0-.1.6-.2 1.3-.2.8 0 1.4.6 1.4 1.4zm198.8.4c-.4.5-1.2.9-1.8.8-.9 0-.8-.2.1-.6.6-.2.9-1 .6-1.5-.4-.7-.2-.8.5-.4.6.4.9 1.2.6 1.7zm-130.5.3c0 .3-.4.8-1 1.1-.5.3-1 .1-1-.4 0-.6.5-1.1 1-1.1.6 0 1 .2 1 .4zm-66.3 2.9c.2.3-1.2.4-3.1.3-1.9 0-3.2-.4-2.9-.9.4-.7 5.1-.2 6 .6zm60.3.2c0 .2-.9.3-1.9.2-1.1 0-1.8-.5-1.5-.9.4-.6 3.4 0 3.4.7zm2.7 1c-.9.7-1.3 1.6-.9 2 .4.5.1.5-.7 0-1.2-.7-1.1-1 .2-2 .9-.7 1.3-1.6.9-2-.4-.5-.1-.5.7 0 1.2.7 1.1 1-.2 2zm-65.1 3.1c.1.9 0 1.3-.4 1-.3-.4-.7-1.4-.8-2.2-.1-.9 0-1.3.4-1 .3.4.7 1.4.8 2.2zm61.6-.5c.2.2.1.3-.1.2-.2-.2-.9.2-1.6.7-.8.7-1.2.5-1.2-.4 0-1.2 2.2-1.6 2.9-.5zm-81.8 4c-.8 1.4-2.1 1.1-2.1-.5 0-.8.6-1.2 1.4-.9.7.3 1 .9.7 1.4zm20.6 0c0 .4-.9.7-1.9.6-1.1 0-1.8-.4-1.6-.7.6-.9 3.5-.8 3.5.1zM181.5 78c.3.6-.1.7-.9.4-1.8-.7-2.1-1.4-.7-1.4.6 0 1.3.4 1.6 1zM17.8 80.5c-.3.3-.9-.2-1.2-1.2-.6-1.4-.5-1.5.5-.6.7.7 1 1.5.7 1.8zm20.6.5c-.6.6-1 .3-1-1s.4-1.6 1-1c.7.7.7 1.3 0 2zm55.6-.5c0 .2-.6.5-1.3.8-.8.3-1.4-.1-1.4-.8 0-.7.6-1.1 1.4-.8.7.3 1.3.6 1.3.8zm91 .9c0 .2-.7.7-1.6 1-.8.3-1.2.2-.9-.4.6-1 2.5-1.4 2.5-.6zm-94 2.4c0 .4-1 .9-2.2.9-1.8.2-2 0-.8-.7 1.8-1.2 3-1.3 3-.2zm-52.3 5.4c.2 1.7 0 1.9-.7.8-.5-.8-.6-1.8-.4-2.2.8-1.2 1-1 1.1 1.4zm51.4 1.1c-.5.5-1.7.4-2.8-.2-1.6-1.1-1.6-1.1.4-.6 1.9.5 2.2.3 1.7-1.2-.5-1.5-.4-1.5.5-.3.6.8.6 1.9.2 2.3zm160.8.9c.8-.3 1.1 0 .7.6-.3.6-1.5 1-2.6.9-1-.1-1.7-.3-1.5-.6.3-.2-.1-1.1-.7-2-1.1-1.4-1-1.4.7 0 1.1.9 2.6 1.4 3.4 1.1zM37 90.4c0 .2-.8 1-1.7 1.7-1.6 1.3-1.7 1.2-.4-.4 1.3-1.6 2.1-2.1 2.1-1.3zm51.5 2.2c1.1.8 1.4 1.4.7 1.4-.8 0-1 .5-.6 1.2.6 1 .4 1-.7 0-2-1.8-3.4-1.5-1.8.5 1.2 1.4 1.2 1.6 0 .8-1.1-.6-1.3-.4-.9.7.4 1 0 1.4-1.5 1.3-1.1-.1-2.3-.8-2.5-1.6-.3-1.2-.2-1.2.6 0 .7.9 1.2 1 1.6.2.4-.6 0-1.4-.8-1.7-.9-.3-1.6-1.1-1.6-1.6 0-.6.6-.6 1.4.1 1 .8 1.6.9 2.1.1.3-.5.1-1-.4-1-.6 0-1.1-.4-1.1-.8 0-1.3 3.3-1 5.5.4zM37 95.4c-.5 1.3-.6 2.7-.2 3.2.4.4.1.4-.6 0s-1.1-1-.9-1.4c.2-.4.7-1.5 1-2.5.4-.9.9-1.7 1.1-1.7.3 0 .1 1.1-.4 2.4zm146.2 1.2c-.9 1.6-1 1.4-.9-.8.1-1.5.6-2.3 1.1-1.8.4.4.4 1.6-.2 2.6zM42 95.6c0 .8-1.9 1.3-2.4.6-.3-.5.1-.9.9-.9s1.5.2 1.5.3zm65 2c0 .8-1.9 1.3-2.4.6-.3-.5.1-.9.9-.9s1.5.2 1.5.3zm77.5 1.6c-.6 1.9-.5 2.1.6 1 .7-.6 2-1.2 2.9-1.1 1.1 0 1 .3-.4.8-1.3.5-1.6 1-.9 1.4.6.4 1.9 0 2.7-.9 2-2 2-.7 0 2.6-.8 1.4-1.3 1.7-1 .7.4-1.1.2-1.6-.5-1.2-.5.4-.7 1.5-.4 2.6.5 1.4.2 1.7-.9 1.3-.8-.3-1.2-1.3-.9-2.2.4-1.4.3-1.4-.5-.3-.6.8-.9 2.3-.7 3.3.3 1.2 0 1.6-.8 1.1-.9-.5-.9-.4 0 .8.8.9.9 2 .3 2.9-.9 1.3-1 1.3-1.1 0-.1-.8-.1-1.8 0-2.3 0-.4-.5-.7-1.1-.7-.8-.1-.6-.6.5-1.4 1.2-.9 1.4-1.6.7-2.1-.5-.3-.8-1.1-.5-1.6.4-.5.1-.9-.4-.9-.6 0-1.1-.5-1.1-1.2 0-.9.3-.9 1.2 0 1.7 1.7 3.3 1.5 1.9-.2-.6-.7-.9-2.1-.5-3 .9-2.4 1.6-1.9.9.6zm-142.1 2.2c-.6 1.8-.5 1.9.8.8 1.2-1 1.7-.8 2.6 1.2.9 2 .6 2.7-1.9 4.9-1.6 1.4-2.9 2.1-2.9 1.6s-.7-.9-1.6-.9c-1.9 0-1.3-2.4.7-2.6 3.1-.3 3.3-.5 1.6-1.5-.9-.6-1.5-1.4-1.2-2 .3-.5 0-.6-.8-.3s-1.8 0-2.2-.6c-.4-.6-.1-1.1.6-.9 2.6.3 4-.1 3.4-1.1-.3-.5-1.3-.7-2.3-.4-1.4.5-1.4.4-.3-.4 2.2-1.6 4.3-.3 3.5 2.2zm39.6-.3c1.5 2.8.5 2.3-1.5-.7-.9-1.5-1.2-2.3-.6-2 .6.4 1.6 1.6 2.1 2.7zm-33-.9c0 .4-.4.8-.9.8-.6 0-1.2-.4-1.5-.8-.3-.5.1-.9.9-.9s1.5.4 1.5.9zm29-.2c0 .5-.5 1-1.1 1-.5 0-.7-.5-.4-1 .3-.6.8-1 1.1-1 .2 0 .4.4.4 1zm26.4 2.3c-.9.5-1.8.6-2.1.3-.4-.3-.1-.6.6-.6s.9-.5.6-1c-.4-.6-1.1-.7-1.7-.4-.7.4-.8.2-.4-.4.5-.9 1.2-.8 2.6 0 1.7 1.1 1.7 1.4.4 2.1zM150 101c-.8.5-.9 1-.2 1.4.6.3 1.7-.2 2.4-1.1.7-1 2-1.9 2.8-2.1.8-.2.2.9-1.5 2.3-2.5 2.1-2.6 2.5-1 2.3 1.1-.2 2.3-.8 2.7-1.3.5-.6.8-.6.8.1 0 .6-1.2 2.4-2.7 3.9l-2.8 2.8 2.5-.7c2.1-.6 2.2-.5.7.4-.9.6-1.5 1.5-1.2 2 1.2 2-1.8 2.1-3.6.1-1.1-1.2-1.5-2.1-.9-2.1s1.3.7 1.6 1.5c.4.8 1 1.5 1.5 1.5.6 0 .6-.8 0-1.9-.6-1-.7-2.2-.3-2.6.4-.4-.2-.5-1.3-.3-1.4.2-2-.3-2-1.7 0-1.1-.6-2.5-1.4-3.1-1.1-.9-1.2-1.2-.1-1.9.9-.5 1.1-.4.6.3-.4.7-.2 1.2.4 1.2.6 0 1.3-.7 1.6-1.5.4-.8 1.1-1.2 1.6-.9.6.4.6.9-.2 1.4zm62.1.3c-1 .9-1.1.8-.5-.6.3-1 .9-1.5 1.2-1.2.3.3 0 1.1-.7 1.8zm-83.5 1.2c.1.9-.4 1.1-1.4.7-1-.4-1.2-.7-.4-1 .7-.2.9-.9.5-1.5-.3-.7-.2-.8.2-.4.5.4 1 1.4 1.1 2.2zm-49.6-.8c1-.9 1.1-.9.6 0-.4.7-.2 1.3.3 1.3.6 0 1 .6.9 1.2-.2.7.3 1.2 1 1 1.7-.3 1.5 1.5-.3 2.2-.8.3-1.2 1.2-.9 2.1.4.8.1 1.5-.6 1.5s-1 .7-.6 1.6c.3.8.2 1.2-.4.9-.6-.3-1-.1-1 .4 0 .6-.7 1.1-1.5 1.1s-1.5-.5-1.5-1c0-.6.6-.9 1.3-.8.6.2 1.1-.5 1.1-1.4-.1-1 .3-1.5.9-1.1.6.4.7.1.2-.7-.6-.9-.4-1.1.5-.5.9.6 1.1.4.6-.4-.6-.9-1.3-.8-2.7.5-1 .9-1.9 1.2-1.9.6s.8-1.7 1.8-2.4c.9-.7 1.8-2.2 2-3.3.2-1.6.1-1.7-.7-.5-1 1.3-1.1 1.3-1.1 0 0-1.2-.2-1.2-.9-.2-.6 1.1-1 .9-1.4-.7-.4-1.7-.2-1.9 1.2-1.1 1.2.6 2.2.5 3.1-.3zm30 .3c0 .5-.2 1-.4 1-.3 0-.8-.5-1.1-1-.3-.6-.1-1 .4-1 .6 0 1.1.4 1.1 1zm7.5 1.7c0 1-.5 2.4-.9 3.1-.5.8-.1 2.1 1 3.3 1.4 1.5 1.4 1.9.3 1.4-1-.4-1.6 0-1.6 1 0 .8.7 1.4 1.5 1.3.8-.2 1.6.5 1.8 1.5.2 1.4 0 1.6-1.1.7-.8-.7-1.9-.8-2.6-.4-.8.4-.2 1.2 1.7 2 1.9.9 2.1 1.2.7.8-1.9-.4-2.2-.2-1.7 1.3.4 1.3.3 1.5-.4.4-.8-1.1-1.4-1-3.5.3-2.3 1.6-2.5 1.6-2.3-.1 0-1-.4-1.8-1.1-1.8-2 0-2.3-1.1-.3-1.2 1.1-.1 2 .3 2 .8 0 .6.5.7 1 .4 1.5-.9-.7-3.5-2.9-3.5-1.4-.1-1.4-.2.2-1.1.9-.5 2.2-.7 2.7-.4.6.3.7-.1.4-.9-.5-1.2-1-1.3-2.6-.5-1.1.6-2.2.8-2.6.5-.3-.3 0-.6.8-.6 1 0 1-.3-.1-1.8-.7-.9-.9-1.4-.4-.9 1.6 1.3 4.5-2.4 4-5.2-.3-1.4-.2-1.9.1-1.1.4.8 1.2 1.8 1.8 2.2.8.6.7 1-.2 1.6-.9.7-.7 1.3.9 2.8 2.2 1.9 2.2 1.9 1.5-.3-.4-1.2-.2-2.4.4-2.8.7-.5.5-1.2-.7-2.1-1.3-1.1-1.4-1.4-.3-1.2.8.2 1.4-.3 1.2-1-.1-.8.1-1.1.6-.8.5.3.8 1.3.7 2.3zm76.7-1.5c-.7.7-.8 1.7-.1 2.9.7 1.3.5 2-.8 2.8-1.3.8-1.4 1-.4 1.1.8 0 2.3-.8 3.5-1.8 2-1.7 2-1.7 0 .9-1 1.5-2.3 2.4-2.8 2.1-1.9-1.1-6.3-.8-6.3.4 0 1 .5 1 2 .2s1.8-.7 1.2.3c-.6.9-.3 1.1.8.6.9-.3 1.9-.2 2.2.3.3.5-.9.7-2.6.5-2.7-.4-2.9-.3-1.7 1.2s1.1 1.5-.8.3c-2.4-1.5-3-7.4-.7-6.6.7.3 1.7-.3 2.3-1.4 1.2-2.2 3.9-5 4.8-5 .3 0 .1.5-.6 1.2zM38 104c.8.5 1.1 1 .5 1-.5 0-1.7-.5-2.5-1s-1-1-.5-1c.6 0 1.7.5 2.5 1zm38.1 1.5c1.7-1.1.9 1.2-1.1 3-1.6 1.4-1.7 2-.8 2.6 1 .7 1 1.1 0 2.1s-.8 1.6.9 2.9c1.7 1.2 1.9 1.8.9 2.4-.8.5-1.1.4-.7-.1.3-.6-.3-1.5-1.4-2.2-2.3-1.5-2.4-.9-.4 2.1 1.4 2.2 1.3 2.3-2 2.3-1.9 0-3.5-.4-3.5-.8 0-.5 1.2-.6 2.6-.4 1.7.3 2.4.1 2.1-.7-.2-.7-1.5-1.2-2.8-1.3-5.7-.2-6.4-1-2.8-3.2 1.2-.8 1.8-.9 1.4-.3-.3.6-.2 1.1.3 1.1 1.7 0 2.1-1.3 1.1-3.3-.9-1.5-.8-1.8.2-1.2.9.6 1.1.3.6-.8-.4-1-.2-1.6.6-1.4.7.1 1.1-.4.9-1.1-.1-.8.2-1.1.9-.6.8.4.9-.1.5-1.7-.6-2.1-.5-2.1.4-.6.6.9 1.5 1.5 2.1 1.2zm31.9-1c.7.9 1 1.8.7 2.2-.4.3-.9-.2-1.3-1.1-.3-.9-1-1.3-1.5-1-.5.3-.9 0-.9-.5 0-1.6 1.6-1.3 3 .4zm19.4.6c.8.9.6.9-1 .1-1.2-.6-2.4-.9-2.7-.6-.3.3-.8.1-1.1-.5-.9-1.4 3.4-.5 4.8 1zm4.5-.7c.9 1.1.9 1.6-.1 2.2-.7.4-1 .4-.6-.1.4-.4.3-1.4-.3-2.2-.6-.7-.9-1.3-.6-1.3.2 0 1 .6 1.6 1.4zm75.1-.4c0 .5-.5 1-1.1 1-.5 0-.7-.5-.4-1 .3-.6.8-1 1.1-1 .2 0 .4.4.4 1zm7.6 1.2l1.9 2.1-2.7-1.8c-2.9-1.8-3.4-2.5-2-2.5.5 0 1.7 1 2.8 2.2zm3.4-1.6c0 .8-1.9 1.3-2.4.6-.3-.5.1-.9.9-.9s1.5.2 1.5.3zm-37.3 1.9c0 .8-.4 1.2-.9.9-.5-.3-.6-1-.3-1.5.9-1.3 1.2-1.1 1.2.6zm-143.9 2c-.3.3-.9-.2-1.2-1.2-.6-1.4-.5-1.5.5-.6.7.7 1 1.5.7 1.8zm85.7-1.6c.3.5 0 1.3-.6 1.7-.7.4-.9.3-.5-.4.3-.6-.2-1.3-1.1-1.5-1.6-.4-1.6-.5-.1-.6.9 0 1.9.3 2.3.8zm97.6.8c1.3 1.6 1.2 1.7-.3.4-1.6-1.2-1.8-1.1-1.8.8 0 1.2-.6 2.4-1.4 2.7-.8.3-1.4 1.1-1.2 1.7.1.7.1.9-.1.4-.3-.4-1-.4-1.6 0-.7.4-.6 0 .1-1 1.6-1.9.8-3.7-1.6-3.8-1.1 0-1.3-.2-.4-.6.7-.3 2.2.3 3.3 1.3 1.8 1.6 1.9 1.6 1.9-.3 0-1.7.8-3.3 1.5-3.3.2 0 .9.8 1.6 1.7zm-95.1.8c0 .8-.4 1.5-1 1.5-.5 0-.7-.7-.4-1.5.4-.8.8-1.5 1-1.5.2 0 .4.7.4 1.5zm-76.5.5c.3.5.1 1-.4 1-.6 0-1.1-.5-1.1-1 0-.6.2-1 .4-1 .3 0 .8.4 1.1 1zm70.5 0c0 .5-.4 1-1 1-.5 0-1-.5-1-1 0-.6.5-1 1-1 .6 0 1 .4 1 1zm89.1.7c1.3 1.6 1.2 1.7-.3.4-1-.7-1.8-1.5-1.8-1.7 0-.8.8-.3 2.1 1.3zm-80.1.8c-.7.8-1.7 1.5-2.3 1.5-.6 0-.2-.7.9-1.5 2.5-1.9 3-1.9 1.4 0zm-91 .5c0 .5-.5 1-1.1 1-.5 0-.7-.5-.4-1 .3-.6.8-1 1.1-1 .2 0 .4.4.4 1zm85.5 0c.3.5.1 1-.4 1-.6 0-1.1-.5-1.1-1 0-.6.2-1 .4-1 .3 0 .8.4 1.1 1zm75.8 2c-.7 2.7-1.3 2.5-1.1-.4.1-1.4.5-2.3.9-2 .4.2.5 1.3.2 2.4zm14.7-2c0 .5-.7.7-1.5.4-.8-.4-1.5-.8-1.5-1 0-.2.7-.4 1.5-.4s1.5.4 1.5 1zm7.9.6c-.6.7-.7 1.9-.3 2.6.5.9.2.8-1-.2-1.1-.8-1.4-1.6-.7-1.8.6-.2.9-.7.7-1.1-.3-.4.1-.8.9-.8 1.1 0 1.2.4.4 1.3zm-177.8 1.7c-1 .9-1.1.8-.5-.6.3-1 .9-1.5 1.2-1.2.3.3 0 1.1-.7 1.8zm77.2-.3c.3 1.1.1 1.8-.4 1.4-.5-.3-.9-1.2-.9-2 0-2 .7-1.7 1.3.6zm74.8.3c-1 .9-1.1.8-.5-.6.3-1 .9-1.5 1.2-1.2.3.3 0 1.1-.7 1.8zM39 112c-.8.5-1.9 1-2.5 1-.5 0-.3-.5.5-1s2-1 2.5-1c.6 0 .3.5-.5 1zm29-.6c0 .2-.8 1-1.7 1.7-1.6 1.3-1.7 1.2-.4-.4 1.3-1.6 2.1-2.1 2.1-1.3zm26.5 1.4c-.3.3-1.1 0-1.8-.7-.9-1-.8-1.1.6-.5 1 .3 1.5.9 1.2 1.2zm116.5-1.2c0 .8-1.9 1.3-2.4.6-.3-.5.1-.9.9-.9s1.5.2 1.5.3zm-10.5 1.3c.3.5.2 1.2-.3 1.5-.5.3-.9-.1-.9-.9 0-1.7.3-1.9 1.2-.6zM94 114.6c0 .2-.7.4-1.5.4s-1.5-.4-1.5-1c0-.5.7-.7 1.5-.4.8.4 1.5.8 1.5 1zm55.5 1.7c-.4.8-1.4 1.8-2.3 2.2-1.3.5-1.3.3.2-1.4 1-1.1 1.5-2.5 1.1-3.3-.6-1-.5-1 .4-.2.6.6.9 1.8.6 2.7zm67.3-1c.6-.3.9-1 .5-1.6-.3-.7-.2-.8.2-.4 1.3 1.2 1.5 3.6.3 4.4-.7.4-.8.1-.3-.7.6-.9.4-1.2-.6-.8-.9.3-2.6-.3-4-1.4l-2.4-2 2.5 1.4c1.4.8 3.1 1.3 3.8 1.1zm-160.5.2c-.3.9-.8 1.4-1 1.1-.3-.3-.2-.9.2-1.5.9-1.6 1.5-1.3.8.4zm96.2.5c-.3.4.1 1.1.7 1.3.8.4.7.6-.4.6-1.1.1-1.6-.6-1.5-1.8 0-1.1.5-1.7.9-1.5.5.3.6.9.3 1.4zm32.5-.9c0 .5.5.7 1.2.3.7-.4.8-.3.4.5-.4.6-1.2.9-1.7.5-.5-.3-1.7 0-2.6.8-1.5 1.2-1.5 1.1-.2-1 1.5-2.3 2.9-2.9 2.9-1.1zm28.8 2.5c.2.1-.4.4-1.3.8-1.1.4-1.4.2-.9-.6.5-.7.2-.9-.7-.6-1 .4-1.5-.1-1.5-1.3 0-1.7.1-1.7 2.1-.1 1.1.9 2.1 1.7 2.3 1.8zM41 116c0 .5-.4 1-1 1-.5 0-1-.5-1-1 0-.6.5-1 1-1 .6 0 1 .4 1 1zm157.3 1.5c-.7 2.1-1.2 1.9-1-.4 0-1.1.5-1.8.9-1.5.4.3.5 1.1.1 1.9zm8.4-.8c0 .7-.5.9-1.1.5-.6-.3-1.7-.7-2.4-.8-2.7-.4-2.2-1.2.6-1.1 1.6.1 2.9.7 2.9 1.4zM37 118c0 .5-.2 1-.4 1-.3 0-.8-.5-1.1-1-.3-.6-.1-1 .4-1 .6 0 1.1.4 1.1 1zm16.5 0c.3.6-.1.7-.9.4-1.8-.7-2.1-1.4-.7-1.4.6 0 1.3.4 1.6 1zm11.1 1.6c.1.9 0 1.3-.4 1-.3-.4-.7-1.4-.8-2.2-.1-.9 0-1.3.4-1 .3.4.7 1.4.8 2.2zm28.4-1.1c-.5.7-.9 1.4-.7 1.6.1.2 0 .3-.2.1-1.1-.7-.7-2.9.5-2.9.9 0 1.1.4.4 1.2zm109.5-.6c.3.5 0 1.3-.6 1.7-.8.5-.9.3-.4-.6.6-1 .4-1.2-.9-.7-1 .4-1.5.3-1.1-.3.8-1.3 2.2-1.3 3-.1zm-198 2c-.3.5.5 1.7 1.7 2.7 1.4 1 1.6 1.4.6 1.1-1.3-.5-1.6 0-1.6 2.5.1 2.6-1.4 4.7-3.2 4.8-.4 0-.6-1.2-.6-2.6 0-2.3.1-2.4 1.2-.9 1.1 1.5 1.3 1.4 1-.9-.1-1.4-.5-2.9-.8-3.2-.9-.8.3-4.4 1.4-4.4.5 0 .7.4.3.9zm206.8 2.2c2.2-.1 3.7 1.3 3.2 3-.5 1.4-.2 1.7.9 1.3.9-.3 1.3-1.1.9-1.8-.3-.6-.2-.7.2-.3 1.5 1.3 1.4 3.6-.1 3-.8-.3-1.4-.2-1.2.3.4 1.4-2.5 5.4-3.9 5.4-.7 0-1.3-.5-1.3-1.1 0-.5.4-.8.8-.5 1 .6 4.3-3 3.5-3.8-.3-.3-1.7.2-3.2 1.1l-2.6 1.5 2.4-1.9c2.3-2 2.3-2.1.5-3.2-1.7-1.1-1.6-1.1.6-.5 2.2.6 2.3.5 1.1-.9-.7-.9-1.8-1.5-2.4-1.4-.6.1-1.2-.7-1.4-1.8-.3-1.8-.2-1.8.5-.2.4 1 1.1 1.8 1.5 1.8zm3.7-1.9c0 .9.3.9 1.2 0 .7-.7 1.6-1.2 2.2-1.2.5 0 .1.6-.9 1.4-1.1.8-2.5 1.2-3.2.9-1.5-.6-1.7-2.3-.3-2.3.6 0 1 .5 1 1.2zm-165.6 2c-.3.4-.9.8-1.5.8-.5 0-.9-.4-.9-.8 0-.5.7-.9 1.5-.9s1.2.4.9.9zm73.1.6c-.3.3-1.1 0-1.8-.7-.9-1-.8-1.1.6-.5 1 .3 1.5.9 1.2 1.2zm30.2-1.2c-.3.3-1.2.4-1.9.1-.8-.3-.5-.6.6-.6 1.1-.1 1.7.2 1.3.5zm67.5 1.3c-.4 1-.7 1.1-1 .3-.2-.7-.9-.9-1.4-.6-.6.4-.8.3-.5-.3 1-1.6 3.6-1.1 2.9.6zm-177.5 1.3c-.3.8-.6.5-.6-.6-.1-1.1.2-1.7.5-1.3.3.3.4 1.2.1 1.9zm5.5 2.8c.4 0 .8.4.8 1 0 1.8-1.8 1-2.5-1-.4-1.1-1.1-1.8-1.6-1.5-.5.4-.1 1.7.8 3 1 1.2 2 2.1 2.3 2 .4-.2 1.1.5 1.8 1.5 1.2 1.9 1.1 1.9-2.1 0-4-2.5-4.2-2.5-4.4.1-.2 1.8 0 1.9 1.5.8.9-.8 1.4-1 1-.5-.4.5-.3 1.6.2 2.6.6 1.2.5 1.7-.5 1.7-.7 0-1.1-.7-.8-1.4.3-.8.2-1.3-.3-1.2-2.3.4-3.5-.2-2.7-1.4 1.1-1.7 1-3.1-.1-3.9-.6-.4 0-1.6 1.4-3 2.3-2.2 2.6-2.2 3.4-.6.5 1 1.3 1.8 1.8 1.8zm77.1 0c-1 1-2 1.5-2.3 1.3-.3-.3.3-1 1.2-1.7 1.4-1 1.5-1.5.5-2.6-1-1.2-.9-1.2.6-.1 1.7 1.3 1.7 1.5 0 3.1zm64-2.9c-1.2 1.2-.6 4.9.9 4.9.6 0 .8-.9.5-2-.3-1.1-.1-1.8.4-1.5 1.1.7.8 5.5-.3 5.5-.4 0-.8.5-.8 1.1 0 .6.7.9 1.5.5.8-.3 1.5-.1 1.5.4 0 .6-.5 1-1 1-.6 0-1.5 1-2.1 2.2-.8 2-.9 1.9-.4-.6s.4-2.8-.8-1.8c-.8.7-1.7.9-2 .5-.4-.3-.7.1-.7 1s-.5 1.7-1.1 1.7c-.7 0-.6-.8.4-2.3.8-1.2 2-2.1 2.6-1.9 1.2.2.8-3.8-.4-5.8-.6-1 1.1-4 2.3-4 .3 0 .1.5-.5 1.1zm19.4 1.1c.2 1.8 0 2-.7.8-1.2-1.8-1.3-3-.2-3 .4 0 .9 1 .9 2.2zm-86.4.3c-.3.9-.8 1.4-1 1.1-.3-.3-.2-.9.2-1.5.9-1.6 1.5-1.3.8.4zM51 126c0 .5-.2 1-.4 1-.3 0-.8-.5-1.1-1-.3-.6-.1-1 .4-1 .6 0 1.1.4 1.1 1zm169.5 0c.3.5.1 1-.4 1-.6 0-1.1-.5-1.1-1 0-.6.2-1 .4-1 .3 0 .8.4 1.1 1zm-92.3 2.2c-.7.7-1.2.8-1.2.2 0-.6.3-1.4.7-1.7.3-.4.9-.5 1.2-.2.2.3-.1 1.1-.7 1.7zm58.8 2.1c0 .5-.4.5-1 .2-.5-.3-1-1.4-1-2.3 0-1.5.2-1.5 1-.2.5.8 1 1.9 1 2.3zM41 131c0 .4-.7 1.1-1.6 1.4-1.3.5-1.4.4-.6-.7.7-.8.8-1.8.4-2.2-.4-.5-.1-.5.6-.1.6.4 1.2 1.1 1.2 1.6zm45.5.1c-.4.5-.2.9.4.9.5 0 1.2-.5 1.4-1 .3-.6.4-.5.3.2-.4 1.9-2.9 1.6-3.2-.5-.1-.9.2-1.5.7-1.1.5.3.7 1 .4 1.5zm47-1.1c.3.6-.1.7-.9.4-1.8-.7-2.1-1.4-.7-1.4.6 0 1.3.4 1.6 1zm61.2 1.2c.2 1.8 0 2-.7.8-1.2-1.8-1.3-3-.2-3 .4 0 .9 1 .9 2.2zm23.9.3c.1.8-.2 1.5-.7 1.5-.5 0-.9-.5-.9-1.1 0-.5-.6-.7-1.2-.3-.9.5-.8.2.1-.9 1.5-1.9 2.4-1.6 2.7.8zm-33.6.6c0 .5-.4.9-.8.9-.5 0-.9-.7-.9-1.5s.4-1.2.9-.9c.4.3.8.9.8 1.5zm-92 .3c-.7.7-1.3.7-2 0-.6-.6-.3-1 1-1s1.6.4 1 1zm30-.4c0 .5-.2 1-.4 1-.3 0-.8-.5-1.1-1-.3-.6-.1-1 .4-1 .6 0 1.1.4 1.1 1zm45.5 1.5c0 1 .6 2 1.3 2.3.8.2 1-.2.5-1.4-.6-1.6-.5-1.7.9-.4 1 1 1.2 1.7.5 2.1-.5.4-.2.9.9 1.1 1 .3-.2.4-2.8.4-2.6-.1-5.1-.6-5.5-1-.4-.5-.3-.6.4-.2.7.4 1.7-.2 2.2-1.3 1.5-2.7 1.4-3-.9-2.6-1.1.2-1.8 0-1.5-.5.9-1.5 4-.4 4 1.5zm4.8-.8c-.6 1.6-1 1.6-1.6 0-.3-.8.1-1.4.8-1.4.7 0 1.1.6.8 1.4zm7.3.5c1.9 2.3 1.9 2.3-.2.5-1.1-.9-2.4-1.4-2.9-1-.4.5-.5.2-.1-.5.9-1.6 1-1.6 3.2 1zm-5.5 1.1c-1 .9-1.1.8-.5-.6.3-1 .9-1.5 1.2-1.2.3.3 0 1.1-.7 1.8zM86 135.5c.7 1.3 1.7 2.2 2.2 1.9.5-.3.3-1.3-.4-2.2-1-1.2-1-1.4 0-.8.7.4 1.2.2 1.2-.5 0-.8.7-.6 1.9.5 1.5 1.3 2 1.4 2.5.4.3-.7.3-.2 0 1.1-.5 1.8-.3 2.2.7 1.6.8-.5 1.1-.4.6.1-.5.5-1.2.9-1.5.9-.4 0-1.3.4-2 .9-1.1.7-1.2.4-.3-1.1 1-2 .6-3.3-1.1-3.3-.4 0-.7.3-.7.7.4 2.2-.3 3.2-2.1 3-1.3-.1-1.9-.6-1.5-1.5.2-.7-.2-1.5-1-1.8-1.6-.6-2.1-2.4-.7-2.4.5 0 1.5 1.1 2.2 2.5zm131-1.4c1.2.8 1 .9-.7.4-1.8-.5-2.2-.3-1.7.9.8 2.1 2.2 2 4.8-.2 2.1-1.7 2.1-1.7.3.4-2 2.4-1.1 4 1.2 2.1 1.4-1 1.4-1 .4.4-.7.9-1 1.9-.6 2.2.3.4.1.7-.5.7-.7 0-1.2-.4-1.2-.8 0-.5-1.1-1.4-2.4-2-2-.9-2.5-.8-3 .4-.9 2.4.6 4.5 2.4 3.4 1-.7 1.1-1 .3-1-.7 0-1.3-.5-1.3-1.2 0-.6.9-.3 2 .7s2 2.3 1.9 2.9c0 .7-.2.7-.5-.1-.7-1.5-3.4-.5-3.4 1.2 0 1.9-1.7 2.8-2.6 1.4-.4-.8-.3-.9.4-.5 2.3 1.4 1.2-2.5-1.4-4.9-2.4-2.2-2.4-2.3-.3-1.8 1.6.4 2 .2 1.7-.8-.3-.8-1.1-1.3-1.7-1.1-.7.1-1-.2-.6-.8.5-.8 1.2-.7 2.3.2 1.3 1.1 1.5 1.1 1-.4-1.1-2.7.6-3.6 3.2-1.7zM2.7 135.5c0 .8-.4 1.2-.9.9-.5-.3-.6-1-.3-1.5.9-1.3 1.2-1.1 1.2.6zm176.4.2c1.3 1.6 1.2 1.7-.3.4-1.7-1.3-2.2-2.1-1.4-2.1.2 0 1 .8 1.7 1.7zm78.2 2.2c-.2 1.8-1 4.3-1.8 5.4-1.4 2-1.4 1.9-1.3-.4.1-1.3.6-3 1.1-3.7.7-.9.6-1.1-.6-.7-.8.4-1.8.2-2.2-.4-.4-.7 0-.8 1-.5 1.7.7 1.8-1.5.1-2.8-.5-.3.2-.5 1.6-.5 2.2.2 2.4.6 2.1 3.6zm-218.9-2.1c.3.5-.1.9-.9.9s-1.2-.4-.9-.9c.3-.4.7-.8.9-.8.2 0 .6.4.9.8zm3.6-.4c0 .3-.4.8-1 1.1-.5.3-1 .1-1-.4 0-.6.5-1.1 1-1.1.6 0 1 .2 1 .4zm82 0c0 .2-.8 1-1.7 1.7-1.6 1.3-1.7 1.2-.4-.4 1.3-1.6 2.1-2.1 2.1-1.3zm24.1 1.9c-1 .9-1.1.8-.5-.6.3-1 .9-1.5 1.2-1.2.3.3 0 1.1-.7 1.8zm45.4-1.3c-.3.5-1.2 1-1.8 1-.7 0-.6-.4.3-1 1.9-1.2 2.3-1.2 1.5 0zm-16.8 1.5c0 .8-.4 1.2-.9.9-.5-.3-.6-1-.3-1.5.9-1.3 1.2-1.1 1.2.6zm-134.4 1.2c-.6 1.6-.5 1.7 1.3.3s1.8-1.4.5.3c-1.5 1.9-3.9.8-2.7-1.2 1.1-1.7 1.6-1.3.9.6zm21.7-1.1c0 .8-1.9 1.3-2.4.6-.3-.5.1-.9.9-.9s1.5.2 1.5.3zm-25.8 4.6c-.6.6-.7 0-.4-1.9.5-2.1.7-2.3 1-.9.2 1 0 2.2-.6 2.8zm42.8-2.1c0 .5-.4.9-.8.9-.5 0-.9-.7-.9-1.5s.4-1.2.9-.9c.4.3.8.9.8 1.5zm101.4.8c-.2.3-1.2-.3-2.2-1.3-1.6-1.7-1.6-1.8.5-.5 1.2.7 2 1.5 1.7 1.8zm-120.5.3c1.4 2.2.5 2.4-1.6.3-.8-.8-1.9-1.2-2.5-.9-.6.4-.8.3-.5-.3 1-1.6 3.3-1.1 4.6.9zm5.1-.7c0 .2-.9.3-1.9.2-1.1 0-1.8-.5-1.5-.9.4-.6 3.4 0 3.4.7zm17.5.3c-.3.3-1.1 0-1.8-.7-.9-1-.8-1.1.6-.5 1 .3 1.5.9 1.2 1.2zm16-.9c.3.5.2 1.2-.3 1.5-.5.3-.9-.1-.9-.9 0-1.7.3-1.9 1.2-.6zm21 .1c-.3.5-1.2 1-1.8 1-.7 0-.6-.4.3-1 1.9-1.2 2.3-1.2 1.5 0zm28.6 1.3c-1 .9-1.1.8-.5-.6.3-1 .9-1.5 1.2-1.2.3.3 0 1.1-.7 1.8zm18.3-1.1c-.3.4-1.1.5-1.9.1-2.1-.7-1.9-1.2.4-1 1.1 0 1.8.5 1.5.9zM92 141.5c-.7.8-1.7 1.5-2.3 1.5-.6 0-.2-.7.9-1.5 2.5-1.9 3-1.9 1.4 0zm92.5.4c-.3.6-1.1 1.1-1.6 1.1s-.4-.6.3-1.4c1.4-1.6 2.4-1.3 1.3.3zm-60 1.1c-1 1.1-2.1 1.8-2.3 1.5-.3-.3.3-1.2 1.4-2 2.7-2 3-1.8.9.5zm40.6-.7c-.5.5-.7 1.5-.5 2.2.3.7.2 1.5-.3 1.8-.4.3-.8-.7-.8-2.2-.1-1.7.5-2.8 1.2-2.8.9 0 1 .4.4 1zm5.3-.5c.3.5-.1.9-.9.9s-1.2-.4-.9-.9c.3-.4.7-.8.9-.8.2 0 .6.4.9.8zm-105.9 2.1c-.3.6-1.1 1.1-1.6 1.1s-.4-.6.3-1.4c1.4-1.6 2.4-1.3 1.3.3zm-23 .1c.3.6-.1.7-.9.4-1.8-.7-2.1-1.4-.7-1.4.6 0 1.3.4 1.6 1zm54.5-.5c0 .2-.6.8-1.3 1.4-1 .8-1.4.7-1.4-.2 0-.8.6-1.4 1.4-1.4.7 0 1.3.1 1.3.2zm14.7 2c-2.6 1.9-.8 2.6 2.4 1 1.5-.8 3.2-1.5 3.6-1.5.4.1-.9 1-2.9 2.1-3.6 1.9-5.2 3.4-2.5 2.4 1.7-.7 4.1 3.2 2.5 4.1-.6.4-.8.3-.5-.3.4-.6 0-1.7-.9-2.4-1.3-1.1-1.5-1.1-1.2.2.1.8 0 1.6-.4 1.7-2.2.6-2.9 0-2.3-1.8.4-1.3.2-2-.5-1.8-2.5.6-2.1-2.2.4-3.3 1.4-.7 2.3-1.6 1.9-2.2-.4-.6-.1-.7.7-.2 1 .6 1 1.1-.3 2zm38.1-.6c-.7.9-1.3 1.8-1.5 2-.1.2-.1-.5 0-1.6 0-1.1.7-2 1.4-2 1 0 1 .4.1 1.6zm36.9-1.2c-.4.3 0 1.8.9 3.2l1.6 2.6-2.4-2.5c-1.7-1.7-2.1-2.7-1.4-3.2 1.4-1 2.1-1 1.3-.1zm26.3-.3c0 .2-.7.9-1.5 1.6-1.3 1.1-1.4 1-.9-.4.5-1.4 2.4-2.3 2.4-1.2zm-167 1c0 .2-.8 1-1.7 1.7-1.6 1.3-1.7 1.2-.4-.4 1.3-1.6 2.1-2.1 2.1-1.3zm13.5.5c.3.5.2 1.2-.3 1.5-.5.3-.9-.1-.9-.9 0-1.7.3-1.9 1.2-.6zm-18 1.1c.3.5.1 1-.4 1-.6 0-1.1-.5-1.1-1 0-.6.2-1 .4-1 .3 0 .8.4 1.1 1zm31.9.6c.3.8.2 1.2-.4.9-.6-.3-1-1-1-1.6 0-1.4.7-1.1 1.4.7zm6-.4c-.3.4-1.1.5-1.9.1-2.1-.7-1.9-1.2.4-1 1.1 0 1.8.5 1.5.9zm89.7 1.2c-1 1.1-.8 1.7 1 3 1.9 1.3 2 1.8.9 3.1-.7.8-1 1.8-.8 2.1.3.3 1.5-.7 2.7-2.2 1.1-1.5 2.1-2.3 2.1-1.9 0 .4.8.2 1.8-.5.9-.7-.2.4-2.6 2.4-2.5 2.2-3.9 4.3-3.5 4.9.4.7-.1.6-1-.2-2-1.6-2.1-.9-.6 2.2.9 2 .9 2-.4.5-1.1-1.4-1.6-1.5-2.7-.5-.8.8-1.1.8-.7.1.4-.7 0-1.5-.9-1.8-1.2-.5-1.5-.2-1 1.1.6 1.5.5 1.6-.5.5-1.1-1-1-1.6.5-3 1.1-.9 1.6-1.2 1.2-.6-.3.7.1 1.5 1 1.8 1.2.5 1.5.2.9-1.1-.8-2.1-1.3-4.2-1.4-6.1-.1-.7-.5-1.1-1-.7-.5.3-1.2.2-1.5-.3-.3-.5.2-.9 1.1-.9.9 0 1.8.9 2.1 1.9.2 1 .9 1.8 1.4 1.8.5 0 .6-.4.3-1-.4-.6.1-.7 1.2-.4 1.4.4 1.3.2-.4-1.4-2.3-2-3.2-3.9-1.3-2.7.6.3 1.3-.1 1.6-1 .4-.9.9-1.4 1.2-1.1.3.3-.1 1.2-.7 2zm21.7 4.6c2.2 1.1 2.2 1.3.8 2.9-.9 1-1.3 2.1-.9 2.6.5.4.2.5-.4.1-.8-.4-1.3-.2-1.3.6-.1.7-.7.2-1.5-1.2s-1.4-2-1.5-1.4c0 .6-1.2 1.6-2.7 2.3-2.4 1-2.6 1-1-.2 2.4-2 2.1-3-.4-1.6-1.2.6-1.9.7-1.5.1.3-.5-.1-1.3-1-1.6-.9-.4-1.4-.9-1.1-1.2.3-.3 1.2-.2 1.9.2.7.5 2.7.9 4.5 1 2.5 0 3.1-.3 3-1.8-.1-1.8-1.7-2.6-1.7-.8 0 .5-.5 1-1.1 1-.8 0-.7-.5.1-1.6 1.1-1.3 1-1.9-.8-3.7-2.1-2.1-2.2-2.1-2.2-.2 0 1.6-.2 1.7-1 .5-1.8-2.9 1.4-3 4.5-.1 1.6 1.6 4 3.4 5.3 4.1zm-151.4-4.5c.3.8.1 1.5-.4 1.5-.6 0-1-.7-1-1.5s.2-1.5.4-1.5.6.7 1 1.5zm27.1.3c-.3.3-1.1 0-1.8-.7-.9-1-.8-1.1.6-.5 1 .3 1.5.9 1.2 1.2zm6.9 1.2c.8 0 1.7.7 2 1.6.3.9 1.1 1.2 1.8.8.9-.5.8-.2-.1 1-1.2 1.5-1.2 1.9.3 3.4 1.7 1.6 1.8 1.6 1.2-.4-.4-1.4-.2-2.1.8-2.1.8 0 1.2.6.9 1.4-.3.7-.2 2 .1 2.9.5 1.3.9 1.4 2.1.4.9-.7 1.5-.8 1.5-.2 0 1.4-2.8 2.3-3.5 1.2-.4-.6-1.1-1-1.7-1-.7 0-.7.4.1 1.3.8 1 .7 1.4-.4 1.4-.8 0-1.2-.4-1-.8.3-.4-.7-1.7-2.2-2.8-1.6-1.2-2-1.8-1-1.5 2.8 1 2-.5-1.5-2.7-1.8-1.2-2.5-1.8-1.5-1.5.9.3 2.5.9 3.5 1.2.9.3.4-.6-1.3-2-2.1-1.8-3.1-2.2-3.7-1.3-.9 1.5-1 .5-.2-1.8.6-1.6.8-1.6 1.6-.1.5.9 1.5 1.6 2.2 1.6zm78.9 1.1c-.8.8-1.3.7-1.8-.2-.5-.8-.4-1 .3-.5 1.5.9 1.6-.6.2-2.2-.5-.7-.2-.5.7.3 1.2 1.1 1.4 1.8.6 2.6zm39.2-1.1c.1 1-.2 1.7-.6 1.4-.4-.2-.7-1.3-.6-2.4.2-2.3 1-1.7 1.2 1zM53 148c0 .5-.5 1-1.1 1-.5 0-.7-.5-.4-1 .3-.6.8-1 1.1-1 .2 0 .4.4.4 1zm23.1.7c1.3 1.6 1.2 1.7-.3.4-1-.7-1.8-1.5-1.8-1.7 0-.8.8-.3 2.1 1.3zM95 148c0 .5-.5 1-1.1 1-.5 0-.7-.5-.4-1 .3-.6.8-1 1.1-1 .2 0 .4.4.4 1zm36-.6c0 .3-.4.8-1 1.1-.5.3-1 .1-1-.4 0-.6.5-1.1 1-1.1.6 0 1 .2 1 .4zm41.4 2.5c-.4.3-.9 0-1.1-.7-.3-.6-1-.9-1.5-.6-.7.4-.8.2-.4-.5.6-.9 1.1-.9 2.2 0 .8.6 1.2 1.5.8 1.8zm-123.6.6c2.2 0 2.7.5 2.5 2.2-.2 1.6.2 2.1 1.1 1.7.8-.3 1.3-1.5 1.1-2.6-.3-1.1-.1-1.8.2-1.4 2.1 2.1-1 6.8-3.2 4.8-.5-.4-.6.1-.2 1 .7 1.9-2.1 3.4-3.7 1.8-.5-.5-1.6-1-2.4-1-.9 0-.6.7.8 1.8 1.8 1.4 1.9 1.9.7 1.9-.9 0-1.4-.4-1.1-.9.3-.4 0-.8-.5-.8-.6 0-1.1.7-1.1 1.5s-.4 1.5-1 1.5h-1.7c-.5 0-.9-.6-.9-1.3-.1-.6-.2-1.7-.3-2.2-.1-.6-.6-.3-1.2.5-.9 1.3-1 1.3-.6 0 .2-.8-.2-2.2-1-3.1-1.2-1.4-1.2-1.7.1-2.2 1-.4 1.3-.1 1 .7-.3.8.4 2.1 1.6 2.9 1.4 1 1.8 2 1.4 3.3-.5 1.4-.4 1.6.5.8.6-.6 1.4-2.3 1.7-3.9.4-2.5.3-2.7-1.1-1.5-1.7 1.4-1.7 1.4-2-1.7-.1-1.2.1-2 .5-1.8.4.3 1.1-.2 1.4-1.1.5-1.2.1-1.4-1.7-.9-1.9.5-2 .4-.4-.5 2.8-1.8 4.1-.2 2.2 2.7-2.4 3.5-1.1 4 1.3.5 1.7-2.3 1.9-3.2.9-4.2-.9-1.1-.8-1.1.6 0 1.1.8 3.1 1.4 4.5 1.5zm105.5 0c.4.8.3 1.6-.1 1.9-.4.3-.9-.4-.9-1.5-.2-2.3.3-2.5 1-.4zm28.1.9c-.3.9-1 1.6-1.5 1.6-.6 0-.5-.9.1-2.1 1.3-2.4 2.4-2 1.4.5zm-57.5-.1c.8 1 .7 1.4-.2 1.4-.8 0-1.4-.6-1.4-1.4 0-.7.1-1.3.2-1.3.2 0 .8.6 1.4 1.3zm23.6-.2c1.1 1.6.1 1.9-1.3.3-.7-.8-.8-1.4-.3-1.4s1.3.5 1.6 1.1zm-56.1 1.1c-.3.4-.1.8.5.8.5 0 1.3.9 1.6 2 .4 1.1 1.2 1.8 1.8 1.4.7-.3.2.3-1 1.4-1.5 1.3-1.9 2.2-1.2 2.9.7.7.7 1.3-.2 1.8-.7.5-1 .4-.7-.1.3-.5 0-1.5-.8-2.2-1.4-1.2-1.5-1.2-1.8.7 0 .5-.4 1.2-.8 1.6-.3.4-.5 0-.4-.9.1-.8.5-1.9.9-2.2 1.3-1.4.7-2.6-.7-1.5-1.1.9-1.6.9-2.2 0-.4-.7-.3-.9.3-.6.6.4 1.6 0 2.2-.7.8-1 .9-1.6.1-2.1-.5-.3-1 0-1.1.7 0 1-.2 1-.6 0-.2-.6-1-.9-1.5-.6-.6.4-.8.2-.5-.4.4-.5 1.3-.9 2-.8 2 .3 3.8 1.7 3.2 2.6-.5.8 2.5 2.4 3.2 1.6.2-.2-.7-1.7-2.1-3.3-1.7-2-2.1-3-1.1-3 .8 0 1.2.4.9.9zm4.6-.6c0 .8-1.9 1.3-2.4.6-.3-.5.1-.9.9-.9s1.5.2 1.5.3zm31.6 1.9c-.6 1.7 2.1 3.5 4.4 2.8 1.3-.4 1.3-.3.1.5-.8.6-2.1.8-3 .5-1.3-.5-1.4-.3-.3.8.6.7 1.2 1.7 1.2 2.3 0 .5-.6.2-1.3-.9-.8-1-1.9-1.5-2.5-1.1-1 .6-3.2-2.2-3.2-4.1.1-.4.6.2 1.3 1.4.9 1.6 1.6 2 2.7 1.3.9-.6 1-1 .3-1-.6 0-1.1-.9-1-2 .1-1.1.5-2 1-2s.7.7.3 1.5zm17.7.2c-.4 1.1-.3 1.4.5.9 1.9-1.2 7.7 3 7.9 5.6.2 1.7 0 1.9-.7.8-.5-.8-.6-1.8-.4-2.2.5-.8.4-.9-3.4-1.3-1.5-.2-2.1.3-2 1.3.2.8-.3 1.7-1.1 2-1 .3-1.1-.2-.6-1.9.8-2.4.8-2.4-1.4-.5-1.1 1.1-2.1 1.4-2.1.8 0-.7.6-1.2 1.3-1.3 1 0 1-.2 0-.6-.7-.2-1.3-.9-1.3-1.5s.6-.6 1.5.2 1.5.9 1.5.2c0-.6-.5-1.4-1.1-1.8-.8-.4-.7-.9.2-1.5 1.9-1.2 1.9-1.1 1.2.8zm-136.9.1c.3.5-.1.9-.9.9s-1.2-.4-.9-.9c.3-.4.7-.8.9-.8.2 0 .6.4.9.8zm61.1.2c.3.5.1 1-.4 1-.6 0-1.1-.5-1.1-1 0-.6.2-1 .4-1 .3 0 .8.4 1.1 1zm11.5 1c-.6 1.1-1.3 2-1.6 2-.2 0 0-.9.6-2s1.3-2 1.6-2c.2 0 0 .9-.6 2zm52-1c-.8.5-2.2.9-3 .9-1 0-.8-.3.5-.9 2.7-1.2 4.3-1.2 2.5 0zm5.8.2c.9.9 1.2.9 1.2 0 0-.7.5-1.2 1.1-1.2.8 0 .8.4 0 1.4-.6.7-.9 2.2-.5 3.2.5 1.6.4 1.6-.5.4-1.1-1.6-1.4-.9-1.2 2.5.1 1.8 0 1.8-.9-.2-.6-1.5-1.5-2.1-2.5-1.7-.8.3-1.5.1-1.5-.6 0-.6.5-.8 1-.5.6.3 1-.2 1.1-1.2 0-1.6.1-1.6.8.1.6 1.5.9 1.7 1.6.6.5-.8.1-1.8-1-2.7-1.1-.7-1.4-1.3-.9-1.3.6 0 1.5.5 2.2 1.2zm13.2-.2c.8.5 1.1 1 .5 1-.5 0-1.7-.5-2.5-1s-1-1-.5-1c.6 0 1.7.5 2.5 1zm3.6.5c-.1.8-.5 1.7-.8 2.1-.5.4-.4-1.6.1-3.4.3-.9.9.1.7 1.3zm37.9-.5c.3.5.1 1-.4 1-.6 0-1.1-.5-1.1-1 0-.6.2-1 .4-1 .3 0 .8.4 1.1 1zm15.7.9c.2-.6.9.2 1.6 1.7 1.1 2.5 1 2.7-.1 1.2-.8-1-1.6-1.5-1.9-1.3-.3.3-1.3-.5-2.4-1.7l-1.9-2.3 2.1 1.8c1.5 1.2 2.3 1.4 2.6.6zm-35.8.3c-.5.8-.2.9.9.5.9-.3 1.9-.2 2.1.2.4.7-2.8.8-4.2.2-.5-.2.8-2.1 1.4-2.1.3 0 .2.5-.2 1.2zm-118.9.8c-.3.5-1.2 1-1.8 1-.7 0-.6-.4.3-1 1.9-1.2 2.3-1.2 1.5 0zm3.5-.6c0 .3-.4.8-1 1.1-.5.3-1 .1-1-.4 0-.6.5-1.1 1-1.1.6 0 1 .2 1 .4zm101.1 2.3c-1.2 2-1.4 1.4-.5-1.2.4-.9.9-1.4 1.1-1.1.3.2 0 1.3-.6 2.3zm44.9-1.2c0 .8-.4 1.5-1 1.5-.5 0-.7-.7-.4-1.5.4-.8.8-1.5 1-1.5.2 0 .4.7.4 1.5zm-32.3 2c0 .8-.4 1.2-.9.9-.4-.3-.8-.9-.8-1.5 0-.5.4-.9.8-.9.5 0 .9.7.9 1.5zm-120.7 1c-.7.9-1.5 1.3-1.9 1-.3-.3.1-1 .9-1.5 2.1-1.4 2.4-1.2 1 .5zm22.8 1c-.3.3-.9-.2-1.2-1.2-.6-1.4-.5-1.5.5-.6.7.7 1 1.5.7 1.8zm111.5-.5c.3 1.1.1 1.8-.4 1.4-.5-.3-.9-1.2-.9-2 0-2 .7-1.7 1.3.6zm23.6-1.1c1.7 1.1.3 3.5-2.1 3.7-1 .1-1.6-.2-1.3-.6.3-.5-.1-1.1-.7-1.3-1-.4-.9-.8.2-1.6 1.8-1.3 2.1-1.3 3.9-.2zM9.7 161.2c-.3.8-.6.5-.6-.6-.1-1.1.2-1.7.5-1.3.3.3.4 1.2.1 1.9zm75-.7c0 .8-.4 1.2-.9.9-.5-.3-.6-1-.3-1.5.9-1.3 1.2-1.1 1.2.6zm49.3 0c0 .8-.2 1.5-.4 1.5s-.6-.7-1-1.5c-.3-.8-.1-1.5.4-1.5.6 0 1 .7 1 1.5zm16.8.5c-.7 1-1.4 1.8-1.5 1.6-.6-.6.9-3.6 1.8-3.6.5 0 .4.9-.3 2zm7.2-.5c0 .9.6 1.2 1.5.9.8-.4 1.5-.4 1.5-.1 0 1.6-3.1 1.3-4-.3-.7-1.4-.7-2 0-2 .5 0 1 .7 1 1.5zm33-1.1c0 .3-.4.8-1 1.1-.5.3-1 .1-1-.4 0-.6.5-1.1 1-1.1.6 0 1 .2 1 .4zm-62.5 1.6c.3.5.1 1-.4 1-.6 0-1.1-.5-1.1-1 0-.6.2-1 .4-1 .3 0 .8.4 1.1 1zm14-.1c.3.5.2 1.2-.3 1.5-.5.3-.9-.1-.9-.9 0-1.7.3-1.9 1.2-.6zm-42 1c.3.5.2 1.2-.3 1.5-.5.3-.9-.1-.9-.9 0-1.7.3-1.9 1.2-.6zm52.5.1c0 .5-.5 1-1.1 1-.5 0-.7-.5-.4-1 .3-.6.8-1 1.1-1 .2 0 .4.4.4 1zm52 1.6c0 .8-.4 1.4-.8 1.4s-.8-.9-.8-1.9c0-1.1.4-1.7.8-1.5.4.3.8 1.2.8 2zm7.3-1.1c-.3.9-.8 1.4-1 1.1-.3-.3-.2-.9.2-1.5.9-1.6 1.5-1.3.8.4zm-49.8.5c-.3.5-1.2 1-1.8 1-.7 0-.6-.4.3-1 1.9-1.2 2.3-1.2 1.5 0zm-123.1.8c.3.5-.1.9-.9.9s-1.5-.4-1.5-.9c0-.4.4-.8.9-.8.6 0 1.2.4 1.5.8zm2.7 1.9c-1.2 2-1.4 1.4-.5-1.2.4-.9.9-1.4 1.1-1.1.3.2 0 1.3-.6 2.3zm115.1-.9c.4 1.2-.1 1.8-1.3 1.8s-1.5-.4-.9-1.2c.6-.6.7-1.4.3-1.7-.3-.4-.2-.7.4-.7.6 0 1.3.8 1.5 1.8zm53.2.1c.4.5-.4.7-1.6.4-1.9-.4-2.1-.3-.8.7s1.3 1.1-.2.6c-1.2-.4-1.8 0-1.9 1.2 0 1.1-.2 1.2-.6.4-1-2.6 3.7-5.7 5.1-3.3zm-173.9 1c.3.5.2 1.2-.3 1.5-.5.3-.9-.1-.9-.9 0-1.7.3-1.9 1.2-.6zm2.2 2.6c0 .8-.4 1.2-.9.9-.5-.3-.6-1-.3-1.5.9-1.3 1.2-1.1 1.2.6zm169.9.4c-.4.5-.1 1.2.4 1.4.6.3.5.4-.2.3-1.5-.3-2.3-2.6-.8-2.6.6 0 .9.4.6.9zm-172.2 1.7c.3.8.2 1.2-.4.9-.6-.3-1-1-1-1.6 0-1.4.7-1.1 1.4.7zm171.3 1.4c1.4 1.1 2.1 2 1.4 2-.6 0-1.1.5-1.1 1.1 0 .5.6.7 1.3.3.6-.4.4.2-.5 1.3-2.1 2.3-2.3 4.4-.5 6.2 1 1.1.8 1.1-1 0-1.2-.7-2-1.5-1.9-1.9.9-1.7 1.9-4.7 2.1-6.3.2-2.2-2-4.1-3.6-3.1-.8.4-.9.3-.5-.4 1-1.6 1.4-1.5 4.3.8zm-106.2 0c.3.6-.1.7-.9.4-1.8-.7-2.1-1.4-.7-1.4.6 0 1.3.4 1.6 1zM38 173.4c0 .2-.8 1-1.7 1.7-1.6 1.3-1.7 1.2-.4-.4 1.3-1.6 2.1-2.1 2.1-1.3zm118.7 1.1c0 .8-.4 1.2-.9.9-.5-.3-.6-1-.3-1.5.9-1.3 1.2-1.1 1.2.6zm48.9.5c0 1.1-.4 2-.9 2-.4 0-.5.5-.1 1.2s.3.8-.5.4c-.6-.4-1-1-.8-1.4.2-.4.7-1.5 1-2.5.8-2.3 1.3-2.2 1.3.3zm-169.2 3.6c.3.8.2 1.2-.4.9-.6-.3-1-1-1-1.6 0-1.4.7-1.1 1.4.7zm119.6-1c0 .8-1.9 1.3-2.4.6-.3-.5.1-.9.9-.9s1.5.2 1.5.3zm54.5 2.3c0 1.6-.3 2.7-.7 2.4-1.3-.7-.7-5.3.6-5.3.1 0 .1 1.3.1 2.9zm-116-.1c0 1-.8 2.8-1.7 4.1-1.6 2.3-1.7 2.3-1.5.3 0-1.1.4-1.9.8-1.6.4.2 1 0 1.4-.6.3-.5.1-1-.6-1-.8 0-.8-.4.1-1.5 1.6-1.9 1.7-1.9 1.5.3zm64.5.4c0 .4-.4.8-.9.8-.6 0-1.2-.4-1.5-.8-.3-.5.1-.9.9-.9s1.5.4 1.5.9zm-118.5.8c-.3.5-1.2 1-1.8 1-.7 0-.6-.4.3-1 1.9-1.2 2.3-1.2 1.5 0zm1 3c.3.6-.1.7-.9.4-1.8-.7-2.1-1.4-.7-1.4.6 0 1.3.4 1.6 1zm54.8.5c.4.8.3 1.6-.1 1.9-.4.3-.9-.4-.9-1.5-.2-2.3.3-2.5 1-.4zm110.9-.1c1.9 1.4 4.5 7.1 2.8 6.1-.6-.3-1-1.1-1-1.7 0-.6-1.1-2.1-2.6-3.4-2.6-2.5-2.1-3.2.8-1zm-46.2 0c0 .2-.8 1-1.7 1.7-1.6 1.3-1.7 1.2-.4-.4 1.3-1.6 2.1-2.1 2.1-1.3zm-72.9 4.9c-1 .9-1.1.8-.5-.6.3-1 .9-1.5 1.2-1.2.3.3 0 1.1-.7 1.8zm118.9.2c-.7.9-1.5 1.3-1.9 1-.3-.3.1-1 .9-1.5 2.1-1.4 2.4-1.2 1 .5zm-168.3 1.8c0 .8-.6 1.4-1.4 1.4-.9 0-1-.4-.2-1.4.6-.7 1.2-1.3 1.4-1.3.1 0 .2.6.2 1.3zm47.7.5c.3.5-.1.9-.9.9s-1.2-.4-.9-.9c.3-.4.7-.8.9-.8.2 0 .6.4.9.8zm69.6-.2c0 .8-1.9 1.3-2.4.6-.3-.5.1-.9.9-.9s1.5.2 1.5.3zm4 .4c-1.8 1.2-3 1.3-3 .2 0-.4 1-.9 2.2-.9 1.8-.2 2 0 .8.7zm49-.5c0 .3-.6 1.4-1.2 2.5-1 1.6-1 2.4 0 4 1.8 3 .2 5.2-2 2.8-1-1-1.4-1.8-1-1.8.4 0 1.3.5 2 1.2.9.9 1.2.9 1.2 0 0-.6-.7-1.5-1.5-1.9-1.2-.7-1.3-1.2-.1-3.5.8-1.5 1.2-2.9.8-3.2-.3-.3 0-.6.6-.6.7 0 1.2.2 1.2.5zm28.7 3.6c-1.2 2-3.7 2.6-3.7.9 0-.6.6-.9 1.3-.8.7.2 1.1-.6 1.1-2-.1-1.7.1-2 1.2-1.1 1 .8 1.1 1.5.1 3zm-32.5-2.4c-.6.2-.9 1-.6 1.5.4.7.2.8-.5.4-1.3-.9-.5-2.6 1.2-2.5.9 0 .8.2-.1.6zm5.3 3.2c0 1.6-.3 2.7-.7 2.4-1.3-.7-.7-5.3.6-5.3.1 0 .1 1.3.1 2.9zm-123.1-.3c.3.8.2 1.2-.4.9-.6-.3-1-1-1-1.6 0-1.4.7-1.1 1.4.7zm67.1-.7c.3.5.2 1.2-.3 1.5-.5.3-.9-.1-.9-.9 0-1.7.3-1.9 1.2-.6zm-67.1 6c-.6.6-2.4-1.9-2.4-3.4.1-.6.7-.1 1.5.9.8 1.1 1.2 2.2.9 2.5zm-4.1-.4c-.3.9-.8 1.4-1 1.1-.3-.3-.2-.9.2-1.5.9-1.6 1.5-1.3.8.4zm.8 2.8c-1 .9-1.1.8-.5-.6.3-1 .9-1.5 1.2-1.2.3.3 0 1.1-.7 1.8zm126.3.3c.3.8.2 1.2-.4.9-.6-.3-1-1-1-1.6 0-1.4.7-1.1 1.4.7zm-51 .6c-.4.5-.9.7-1.2.4-.3-.3-1.3.1-2.3 1-1.3 1.2-1.9 1.2-2.5.3-.4-.7-.3-1 .3-.6s1.6.1 2.2-.6c1.2-1.5 4.3-1.9 3.5-.5zm48.6 3.9c-1 2.3-1 2.2-.5-.5.6-2.6.4-2.8-.9-1.7-1 .8-1.6.9-1.6.3 0-1.3 2.3-2.2 3.3-1.2.4.3.3 1.7-.3 3.1zm-127-1.7c0 .2-.8 1-1.7 1.7-1.6 1.3-1.7 1.2-.4-.4 1.3-1.6 2.1-2.1 2.1-1.3zm78 0c0 .2-.8 1-1.7 1.7-1.6 1.3-1.7 1.2-.4-.4 1.3-1.6 2.1-2.1 2.1-1.3zm2 2c0 .2-.8 1-1.7 1.7-1.6 1.3-1.7 1.2-.4-.4 1.3-1.6 2.1-2.1 2.1-1.3zm-82.5 5.4c.3 2 .1 3.2-.5 3.2s-.8-.5-.5-1c.7-1.2-.7-1.3-2.1-.3-.5.5-.2.1.6-.7.9-.8 1.4-2.4 1.2-3.5-.2-1.1-.2-1.8.1-1.5.3.3.8 2 1.2 3.8zm128.3-2c.2.7-.1 1.2-.8 1.2-.6 0-.8-.5-.5-1 .9-1.4-.8-1.2-2.5.2-1.2 1.1-1.2 1-.1-.5 1.5-1.9 3.2-1.8 3.9.1zm-166 .1c-.2 2.2.4 3.1 1.5 2.5.8-.5.8-.2-.2.9-.7.9-1.6 1.7-1.9 1.7-.3 0-.2-.3.1-.7.4-.3.1-1.6-.7-2.8-1.2-1.8-1.2-2.2-.1-2.2.8 0 1.4.3 1.3.6zm167.8 3c-.4.5-.1 1.2.4 1.4.6.3.5.4-.2.3-1.5-.3-2.3-2.6-.8-2.6.6 0 .9.4.6.9zm12.2 1.9c1.1-.9 1-.5-.3 1.4-1.8 2.5-5.4 5-4 2.9.3-.5-.1-1.2-.7-1.5-.7-.3-.4-.4.7-.3 1.5.1 1.9-.3 1.8-1.8-.1-1.1 0-1.4.3-.7.5 1 .9 1 2.2 0zm-63.1.8c-.3.3-1.2.4-1.9.1-.8-.3-.5-.6.6-.6 1.1-.1 1.7.2 1.3.5zM77 219.5c0 .8-.2 1.5-.4 1.5s-.6-.7-1-1.5c-.3-.8-.1-1.5.4-1.5.6 0 1 .7 1 1.5zm83.6.7c.4.7.4 1-.1.6-.4-.4-1.5-.2-2.4.5-1.4 1.1-1.4 1-.2-.6 1.6-2 1.8-2.1 2.7-.5zm-112.3 5.1c-.8.5-1.7.6-2 .3-.4-.3-.1-.6.5-.6.7 0 .9-.7.5-1.7-.6-1.5-.5-1.6.9-.3s1.4 1.6.1 2.3zm21.2.7c.3.6-.1.7-.9.4-1.8-.7-2.1-1.4-.7-1.4.6 0 1.3.4 1.6 1zm88.5-.7c0 .2-1 1.2-2.2 2.3l-2.3 1.9 1.9-2.3c1.8-2.1 2.6-2.7 2.6-1.9zm-86.1 6c0 .9-.2.8-.6-.1-.2-.6-1-.9-1.5-.6-.7.4-.8.2-.4-.5.9-1.3 2.6-.5 2.5 1.2zm-14.5.3c.5 1.4.4 1.5-.9.4-1.7-1.4-1.9-2-.6-2 .5 0 1.2.7 1.5 1.6zm10.6.4c0 .5-.4 1-1 1-.5 0-1-.5-1-1 0-.6.5-1 1-1 .6 0 1 .4 1 1zm92.5-.1c.3.5.2 1.2-.3 1.5-.5.3-.9-.1-.9-.9 0-1.7.3-1.9 1.2-.6zm-.2 4.6c.4.8.3 1.6-.1 1.9-.4.3-.9-.4-.9-1.5-.2-2.3.3-2.5 1-.4zm32.4 1c0 .8-.4 1.2-.9.9-.5-.3-.6-1-.3-1.5.9-1.3 1.2-1.1 1.2.6zm-19.7 7.9c0 .2-.7.7-1.6 1-.8.3-1.2.2-.9-.4.6-1 2.5-1.4 2.5-.6zm-84.6 2.1c-.4.8-1.1 1.2-1.6.9-.6-.4-.5-1 .3-1.5 1.9-1.2 1.9-1.1 1.3.6zm41.2 6.4c-1.1 1.7 2.2 2 4.4.4 1.8-1.3 2.4-1.3 3.1-.2 1.1 1.8-.8 3.9-2.8 3.2-1.2-.5-1.4-.3-.8.7.5.9.4 1.1-.4.6-.6-.4-.9-1.1-.7-1.5.3-.4-.1-.8-.8-.8-.8 0-1.2.6-1 1.2.6 1.4-2.6 1.6-4.3.2-1.8-1.3-1.6-3.8.1-3.1.8.3 1.7.1 2.1-.5.3-.6.8-1.1 1.1-1.1.3 0 .3.4 0 .9z"/><path d="M131.9 4.8c-.7.9-.9 1.4-.4.9.4-.4 1.6 0 2.6.9 1.3 1.2 1.9 1.2 2.5.3.4-.8.3-1-.4-.5-.7.4-1.2.1-1.2-.8 0-2.3-1.6-2.8-3.1-.8zm7.7 3c-.3.5.1.9.9.9s1.2-.4.9-.9c-.3-.4-.7-.8-.9-.8-.2 0-.6.4-.9.8zm-22.9 34.9c-.4.3-.7 1.1-.7 1.7 0 .6.5.5 1.2-.2.6-.6.9-1.4.7-1.7-.3-.3-.9-.2-1.2.2zM85 92.4c0 .2.7.7 1.6 1 .8.3 1.2.2.9-.4-.6-1-2.5-1.4-2.5-.6zM43 104c0 .5.5 1 1.2 1 .6 0 .3.6-.7 1.4-1.1.8-2.6 1.2-3.5.9-1.2-.4-1.3-.3-.1.5 1.9 1.3 6.2-1.4 5.4-3.4-.6-1.6-2.3-1.9-2.3-.4zm105.4.4c0 2.4 2.7 2.9 4.7.9.7-.7.2-.9-1.7-.5-1.8.3-2.5.1-2-.6.3-.6.3-1.3-.2-1.6-.4-.2-.8.5-.8 1.8zm-69.1 2.1c0 .8.4 1.2.9.9.5-.3.6-1 .3-1.5-.9-1.3-1.2-1.1-1.2.6zm29.7 3.1c-1.2 1.3-1.2 1.5.1 1.4 2.8-.4 3.7 0 3.4 1.7-.1 1-.9 1.7-1.6 1.5-.9-.2-.8.3.4 1.5 1.1 1.3 1.4 2.3.7 3.1-.7.9-.7.9.3.1.6-.5 1.3-1.4 1.3-2 .1-.5.2-1 .4-1.2 1-1.3.4-3.9-1.5-5.7-2-1.9-2.3-1.9-3.5-.4zm81.5-4.7c-.6 1.1 1.3 2.6 2.2 1.7.4-.3.1-.6-.6-.6s-.9-.5-.6-1c.3-.6.4-1 .1-1-.3 0-.7.4-1.1.9zm-117.6 3.8c-1.3 1.6-1.2 1.7.4.4.9-.7 1.7-1.5 1.7-1.7 0-.8-.8-.3-2.1 1.3zm-1.6 3.8c.4.8.2 1.7-.3 2-.6.4-1 1.1-1 1.7 0 .5.9 0 1.9-1.3 1.9-2.4 1.9-3.9-.1-3.9-.5 0-.8.7-.5 1.5zM67 116c0 .5.5 1 1.1 1 .5 0 .7-.5.4-1-.3-.6-.8-1-1.1-1-.2 0-.4.4-.4 1zm-25 11.5c0 .2 1 1 2.3 1.6 2 1.1 2.1 1.1.8-.4-1.3-1.6-3.1-2.3-3.1-1.2zm65 20.3c0 .5.7.9 1.5.9s1.2-.4.9-.9c-.3-.4-.9-.8-1.5-.8-.5 0-.9.4-.9.8zm61 5.2c-.9.6-1 1-.3 1 .6 0 1.5-.5 1.8-1 .8-1.2.4-1.2-1.5 0zm-2.4 2.3c.3.8 1.1 1.4 1.9 1.4 2 0 1.9-.4-.5-1.7-1.5-.8-1.8-.8-1.4.3zm22.3-2.4c.9.6 1 1.1.2 1.5-.6.4-1.1 1.2-1.1 1.8 0 .6.9.3 2-.7 1.6-1.4 1.7-2 .8-2.7-.7-.4-1.7-.8-2.3-.8-.5 0-.4.4.4.9zm-143.2-1.3c-.3.3-.3 1.3 0 2.2.5 1.1.3 1.3-.7.7-.9-.6-1.1-.4-.6.4.5.7 1 1 1.4.7.3-.3 1.1.2 1.8 1.2 1.4 1.9 2.1 1.6 2.6-1.3.1-1.1.7-2.3 1.3-2.7.5-.4.6-1 .2-1.5-1-.9-2.8 1.8-2 3.1.3.5.1.6-.5.2-.8-.5-1-.1-.6 1.1.5 1.5.4 1.5-.4.3-.7-.9-.7-1.9-.2-2.6 1.4-1.6-.7-3.3-2.3-1.8zm102.3 4.2c0 .5.7.9 1.5.9s1.2-.4.9-.9c-.3-.4-.9-.8-1.5-.8-.5 0-.9.4-.9.8zm60 4.2c0 .5.7 1 1.6 1 .8 0 1.2-.5.9-1-.3-.6-1-1-1.6-1-.5 0-.9.4-.9 1zm-72.4 94.9c-.4.5-.2 1.2.3 1.5.5.4 1.2.2 1.5-.3.4-.5.2-1.2-.3-1.5-.5-.4-1.2-.2-1.5.3zm-7.9 2.2c.7.7 1.5 1 1.8.7.3-.3-.2-.9-1.2-1.2-1.4-.6-1.5-.5-.6.5zM137 .9c0 .6.4 1.3 1 1.6.6.3.7-.1.4-.9-.7-1.8-1.4-2.1-1.4-.7zm-23.7 1.7c-.3.8-1.2 1.3-2 1-.8-.3-1.1-.1-.8.4.6.9-.8 1.4-2.8 1.1-.5-.1-.6.3-.2.9.7 1.2 6.1-1.3 6.7-3.1.2-.7.8-.5 1.7.5C117 4.8 117 5 115.6 5c-1 0-1.4.5-1.1 1 .5.8 1.1.8 1.9.1.7-.6 1.7-.7 2.2-.3.5.4-.2-.5-1.5-2.1-2.9-3.2-3-3.2-3.8-1.1zM99.1 6.4c-.8 1-.9 1.6-.1 2.1.5.3 1 .5 1.1.3.4-1.8.7-3.8.4-3.8-.1 0-.8.6-1.4 1.4zm65 1.2c0 1.1.3 1.4.6.6.3-.7.2-1.6-.1-1.9-.3-.4-.6.2-.5 1.3zM95 8c-.8.5-1.2 1.2-.9 1.5.4.3 1.2-.1 1.9-1 1.4-1.7 1.1-1.9-1-.5zm-4.7 1.5c0 .7.6 1.1 1.4.8.7-.3 1.3-.6 1.3-.8 0-.2-.6-.5-1.3-.8-.8-.3-1.4.1-1.4.8zm-7.8 2.4c-.3.5-.2 1.2.3 1.5.5.3.9-.1.9-.9 0-1.7-.3-1.9-1.2-.6zm91.2.5c-.4 1-.3 1.5.3 1.1.6-.3 1-.1 1 .4 0 .6.5 1.1 1 1.1.6 0 1-.7 1-1.6 0-.9.5-1.2 1.2-.8.7.4.8.3.4-.5-.6-.9-1.1-.9-2.1-.1s-1.4.8-1.7-.2c-.3-.8-.7-.6-1.1.6zm-93.7.5c0 .7-.5.9-1.2.5-.7-.5-.8-.3-.3.5.5.9 1 1 1.8.2.6-.6.8-1.4.4-1.8-.4-.3-.7-.1-.7.6zm108.6 2.9c-.3.5.1.9.9.9s1.2-.4.9-.9c-.3-.4-.7-.8-.9-.8-.2 0-.6.4-.9.8zM29.3 55.2c-.2 1.8 0 2 .7.8 1.2-1.8 1.3-3 .2-3-.4 0-.9 1-.9 2.2zM234 58.9c0 .6.4 1.3 1 1.6.6.3.7-.1.4-.9-.7-1.8-1.4-2.1-1.4-.7zM22.3 63.1c-.2 2.3.3 2.5 1 .4.4-.8.3-1.6-.1-1.9-.4-.3-.9.4-.9 1.5zm216.3 3.8c-.3.5.1 1.4.9 2.1 1 .9 1.5.9 1.5.1 0-.6-.6-1.1-1.2-1.1-.9 0-.8-.4.2-1 .9-.6 1-1 .3-1-.6 0-1.4.4-1.7.9zM19 69.1c0 .5-.4.8-.8.5-.5-.3-.9.1-.9.9 0 1.3.4 1.2 1.9-.2 2.1-1.8 2.2-2.3.8-2.3-.5 0-1 .5-1 1.1zm227 15.4c.7.8 1.6 1.2 2.1.9.5-.3.9 0 .9.5 0 .6.5 1.1 1 1.1.6 0 .5-.8-.2-2-.7-1.1-2.1-2-3.2-2-1.5 0-1.6.3-.6 1.5zM10.7 88.1c.6 2.3.9 2.4 1.6.5.3-.8 0-1.7-.7-1.9-1-.4-1.2.1-.9 1.4zM253 100c-.9.6-1 1-.3 1 .6 0 1.5-.5 1.8-1 .8-1.2.4-1.2-1.5 0zm-.3 3.7c.3.7.6 1.3.8 1.3.2 0 .5-.6.8-1.3.3-.8-.1-1.4-.8-1.4-.7 0-1.1.6-.8 1.4zm1.1 3.5c1.4 1.4 4.4 2 3.6.7-.3-.5-1-.7-1.5-.4-.5.4-.9.1-.9-.4 0-.6-.5-1.1-1.2-1.1-.9 0-.9.3 0 1.2zM3.3 109.1c-.2 2.3.3 2.5 1 .4.4-.8.3-1.6-.1-1.9-.4-.3-.9.4-.9 1.5zm254.4 2c.7.7 1.5 1 1.8.7.3-.3-.2-.9-1.2-1.2-1.4-.6-1.5-.5-.6.5zM3.9 139.2c-.6 1.9-.9 6.1-.3 5.6.7-.8 1.5-5.8.8-5.8-.2 0-.4.1-.5.2zm-3.5 6.9c-.5.8-.3.9.6.4 1-.6 1.2-.4.7.8-.3 1-.2 1.7.3 1.7 1.3 0 1.3-2.7.1-3.5-.5-.3-1.3 0-1.7.6zm257.1 2.9c-.3.6.1.7.9.4 1.8-.7 2.1-1.4.7-1.4-.6 0-1.3.4-1.6 1zM1.6 152.2c.3.5 1 .6 1.5.3 1.3-.9 1.1-1.2-.6-1.2-.8 0-1.2.4-.9.9zm251.4-.3c0 .6.4 1.2.8 1.5.5.3.9-.1.9-.9s-.4-1.5-.9-1.5c-.4 0-.8.4-.8.9zM12.2 177.7c1.1.3 1.5 1 1.1 2.1-.6 1.4-.5 1.5.9.2 1.7-1.6.6-3.1-2.2-2.9-1.1.1-1.1.2.2.6zm220.9 23.7c-.9 1.1-.9 1.6 0 2.2.7.4.9.3.5-.4-.3-.5 0-1.2.6-1.5.7-.2 1-.7.7-1.1-.3-.4-1.2 0-1.8.8zm-4.6 5.5c-.3.5-.2 1.2.3 1.5.5.3.9-.1.9-.9 0-1.7-.3-1.9-1.2-.6zM35 208c0 .5.5 1 1 1 .6 0 1-.5 1-1 0-.6-.4-1-1-1-.5 0-1 .4-1 1zm189.7 6.1c.7.7 1.5 1 1.8.7.3-.3-.2-.9-1.2-1.2-1.4-.6-1.5-.5-.6.5zm-20 15.5c-1.2 1.6-1.4 2.5-.5 3 .6.4.8.3.4-.4-.3-.5.6-1.9 2-2.9 1.5-1.1 2-2 1.2-2-.7 0-2.1 1.1-3.1 2.3zM66 240c0 .6.4.9.9.6.5-.4 1.2-.1 1.4.4.3.6.4.5.3-.2-.3-1.5-2.6-2.3-2.6-.8zm9 4.5c0 .8.2 1.5.4 1.5s.6-.7 1-1.5c.3-.8.1-1.5-.4-1.5-.6 0-1 .7-1 1.5zm105.1 1.2c.6.7 1.7 1.3 2.3 1.2.7 0 .6-.2-.2-.6-.6-.2-1-.8-.8-1.2.3-.4-.1-.8-.9-.8-1.1 0-1.2.4-.4 1.4zM173 250c0 .5.5 1 1.1 1 .5 0 .7-.5.4-1-.3-.6-.8-1-1.1-1-.2 0-.4.4-.4 1zm-7.5.8c-.2.3-.2.8.1 1.3.5.9 3.4.1 3.4-1 0-.8-2.7-1-3.5-.3zM148 253c-1.3.8-1.3 1.2.3 2.7 1.4 1.4 1.8 1.5 1.5.3-.2-.8.2-1.4.9-1.3.6.1 1.7-.5 2.5-1.5 1.1-1.5 1.1-1.6-.3-.5-.9.8-1.9.9-2.5.3-.6-.6-1.5-.6-2.4 0zm-5 5c0 .6.7 1 1.5 1s1.5-.2 1.5-.4-.7-.6-1.5-1c-.8-.3-1.5-.1-1.5.4z"/></svg>