<svg width="154" height="52" viewBox="0 0 154 52" fill="none" xmlns="http://www.w3.org/2000/svg"><g opacity=".4" clip-path="url(#clip0_1118_396)"><path fill="#fff" d="M.387 0h153v52h-153z"/><path d="M44.64 22.864c-.21.563-.654 1.612-1.492 3.06-.214.367-.45.763-.717 1.182-1.891 2.969-5.192 7.16-10.827 12.06l-7.718 6.707-7.716-6.708c-5.145-4.47-8.342-8.351-10.295-11.25-.28-.42-.537-.813-.768-1.185-1.154-1.869-1.727-3.203-1.976-3.866-2.268-6.084.826-12.854 6.912-15.121 5.185-1.931 10.87.029 13.84 4.416 2.972-4.387 8.658-6.347 13.842-4.416 6.09 2.269 9.185 9.039 6.916 15.12z" fill="#F1F5F6"/><path d="M37.73 7.743a11.744 11.744 0 00-9.599.621 11.72 11.72 0 00-4.243 3.795A11.786 11.786 0 0014.148 7c-1.361 0-2.749.236-4.101.742-6.085 2.267-9.18 9.039-6.912 15.12.25.665.822 1.998 1.976 3.867H5.11c.231.374.485.768.768 1.185h.003c1.953 2.9 5.15 6.778 10.295 11.25l7.715 6.708 7.718-6.708c5.638-4.9 8.937-9.092 10.828-12.059.267-.419.503-.815.717-1.182.835-1.448 1.28-2.497 1.492-3.06 2.265-6.082-.828-12.852-6.916-15.121zm-6.904 30.53l-6.938 6.032-6.938-6.033c-4.005-3.478-7.242-6.96-9.634-10.355h17.436l2.045-7.868 2.764 17.143 3.377-13.796 1.624 8.024 1.69-4.332 4.765.014c-1.776 2.654-4.91 6.578-10.19 11.17zM43.532 22.45c-.179.472-.593 1.474-1.406 2.88l-.352.591-6.326-.02-.52 1.332-1.88-9.266-3.244 13.259-2.733-16.943-3.232 12.449H6.517c-.139-.212-.272-.42-.397-.621-1.11-1.797-1.65-3.065-1.873-3.66C2.213 16.992 5 10.895 10.46 8.857a10.498 10.498 0 013.689-.668 10.55 10.55 0 018.756 4.637l.984 1.45.983-1.45a10.563 10.563 0 0112.444-3.969 10.505 10.505 0 015.927 5.512 10.518 10.518 0 01.288 8.082z" fill="#C8CDD0"/><path d="M118.94 23.546l-4.043 4.043a2.37 2.37 0 000 3.349 2.37 2.37 0 003.35 0l4.043-4.042-3.35-3.35zm2.519 35.236c7.176 3.695 16.342 6.991 21.524 1.81 5.184-5.183 1.884-14.344-1.811-21.52l-1.766 3.245s3.193 6.748-2.377 12.32c-5.573 5.572-12.323 2.377-12.323 2.377l-3.247 1.768z" fill="#F1F5F6"/><path d="M143.554 61.162c7.405-7.404-1.029-21.696-5.079-28.566-2.152-3.65-6.55-9.871-11.81-10.538-2.369-.3-4.594.571-6.617 2.594l1.142 1.14c1.672-1.671 3.397-2.37 5.272-2.134 4.751.603 9.013 7.025 10.624 9.757 3.545 6.01 11.848 20.088 5.33 26.606-6.521 6.52-20.6-1.782-26.611-5.33-2.733-1.612-9.156-5.873-9.759-10.62-.238-1.873.46-3.598 2.135-5.272l-1.141-1.141c-2.023 2.022-2.895 4.247-2.595 6.615.286 2.258 2.037 6.796 10.54 11.808 6.867 4.054 21.165 12.484 28.569 5.08z" fill="#C8CDD0"/><path d="M105.932 36.555l4.043-4.042a2.37 2.37 0 013.35 0 2.37 2.37 0 010 3.349l-4.043 4.042-3.35-3.35z" fill="#F1F5F6"/><path d="M132.791-4.205l-6.107-6.106a2.76 2.76 0 00-3.902 0l-21.943 21.94a2.76 2.76 0 000 3.9l6.106 6.106a2.762 2.762 0 003.903 0L132.791-.304a2.76 2.76 0 000-3.901z" fill="#E1E7EB"/><path d="M121.822 10.664L110.85 21.633a2.762 2.762 0 01-3.903 0l-6.106-6.105a2.758 2.758 0 010-3.902L111.813.656l10.009 10.008z" fill="#F1F5F6"/><path d="M132.791-4.205l-6.106-6.106a2.754 2.754 0 00-1.952-.807c-.705 0-1.413.269-1.951.807l-21.943 21.94a2.76 2.76 0 000 3.9l2.582 2.58-9.837 9.831a.664.664 0 000 .944.665.665 0 00.944 0l9.835-9.833 2.582 2.582a2.755 2.755 0 001.952.807c.705 0 1.412-.269 1.951-.807l3.407-3.407.943-.943L132.789-.304a2.758 2.758 0 00.002-3.901zm-.943 2.956l-1.17 1.17-4.06-4.06-.944.944 4.06 4.059-1.501 1.5-1.558-1.558-.943.944 1.558 1.558-1.273 1.272-4.059-4.06-.944.944 4.06 4.059-1.496 1.496-1.558-1.558-.944.943 1.558 1.558-1.279 1.28-4.06-4.06-.943.944 4.059 4.059-1.491 1.49-1.558-1.557-.944.943 1.558 1.558-1.489 1.489-4.06-4.06-.943.944 4.06 4.06-1.28 1.278-1.558-1.558-.943.944 1.558 1.558-1.291 1.29-4.06-4.058-.944.943 4.06 4.059-1.172 1.172c-.269.27-.627.417-1.008.417s-.738-.148-1.008-.417l-6.106-6.105a1.425 1.425 0 010-2.013l21.943-21.939c.269-.269.627-.417 1.008-.417s.738.148 1.005.417l6.107 6.105c.269.27.417.627.417 1.008a1.473 1.473 0 01-.424 1.015z" fill="#C8CDD0"/><path d="M58.926 57.068l10.352-10.35 11.434 11.431L70.36 68.5a8.087 8.087 0 01-11.434 0 8.087 8.087 0 010-11.431z" fill="#F1F5F6"/><path d="M69.28 46.718L79.63 36.37a8.086 8.086 0 0113.802 5.715 8.06 8.06 0 01-2.368 5.717l-10.35 10.347L69.28 46.718z" fill="#E1E7EB"/><path d="M80.714 58.152l10.35-10.348a8.055 8.055 0 002.368-5.717 8.047 8.047 0 00-2.366-5.714 8.059 8.059 0 00-5.718-2.368 8.06 8.06 0 00-5.718 2.368L69.28 46.72l11.434 11.432zm-.262-20.96a6.88 6.88 0 014.896-2.027 6.88 6.88 0 014.896 2.027 6.859 6.859 0 012.025 4.893c0 1.848-.72 3.587-2.027 4.895l-9.528 9.526-9.788-9.788 9.526-9.526z" fill="#C8CDD0"/><path d="M55.673 35.237a7.373 7.373 0 0110.221 10.221l-10.22-10.221zm-2.051 2.051l10.221 10.219a7.37 7.37 0 01-9.297-.925 7.369 7.369 0 01-.924-9.294z" fill="#E1E7EB"/><path d="M53.622 37.287l.024-.038a7.411 7.411 0 012.028-2.013l10.22 10.22-.023.037a7.411 7.411 0 01-2.028 2.013L53.622 37.287z" fill="#F1F5F6"/><path d="M54.546 46.582a7.348 7.348 0 005.21 2.158v-1.165a6.166 6.166 0 01-4.388-1.817 6.207 6.207 0 114.389 1.817v1.165a7.347 7.347 0 005.213-2.158 7.368 7.368 0 000-10.424A7.348 7.348 0 0059.76 34a7.347 7.347 0 00-5.214 2.158 7.371 7.371 0 000 10.424z" fill="#C8CDD0"/><path d="M54.416 13.723l18.94-18.937c5.016-5.014 13.262-4.9 18.42.255 5.154 5.152 5.268 13.397.253 18.41L73.088 32.39c-1.399 1.398-3.7 1.365-5.14-.074L54.49 18.86c-1.44-1.439-1.473-3.74-.074-5.136z" fill="#F1F5F6"/><path d="M54.416 13.723l8.73-8.727 18.671 18.668-8.73 8.728c-1.398 1.398-3.7 1.364-5.139-.074L54.49 18.862c-1.44-1.442-1.473-3.743-.074-5.139z" fill="#E1E7EB"/><path d="M54.487 18.861l13.459 13.457c1.439 1.439 3.74 1.47 5.142.071l18.94-18.937C97.045 8.438 96.93.196 91.775-4.96c-5.156-5.155-13.402-5.27-18.415-.255L54.42 13.721c-1.403 1.4-1.372 3.702.067 5.14zm20.03-22.915c4.384-4.383 11.617-4.283 16.125.224 4.508 4.507 4.608 11.739.224 16.122L71.925 31.229c-.775.774-2.054.758-2.85-.04L55.616 17.732c-.795-.795-.815-2.074-.04-2.848L74.517-4.054z" fill="#C8CDD0"/><path d="M65.607 10.846l3.435 3.435-3.343 3.34 3.489 3.487 3.34-3.342 3.435 3.435 3.393-3.39-3.435-3.435 3.342-3.342-3.488-3.485-3.342 3.34-3.436-3.435-3.39 3.392z" fill="#C8CDD0"/></g><defs><clipPath id="clip0_1118_396"><path fill="#fff" transform="translate(.387)" d="M0 0h153v52H0z"/></clipPath></defs></svg>