<svg width="32" height="32" viewBox="0 0 32 32" fill="none" xmlns="http://www.w3.org/2000/svg"><path fill-rule="evenodd" clip-rule="evenodd" d="M23.332 14.012h-.577v1.028h.577c.615 0 .69-.263.69-.501 0-.138 0-.527-.69-.527zm-.577-.402h.477c.577 0 .64-.288.64-.501 0-.201-.063-.477-.64-.477h-.477v.978zm-16.997.29h-.665v1.129h.665c.376 0 .614-.226.614-.565 0-.35-.238-.564-.614-.564zm-.665 4.34v1.13h.665c.376 0 .614-.227.614-.565 0-.352-.238-.565-.614-.565h-.665zm17.7-16.118C27.919 4.635 31.448 9.905 31.448 16c0 4.74-2.134 8.98-5.494 11.815V19.28h1.417v-.401h-1.417v-.514h-.464v9.826a15.385 15.385 0 01-6.147 2.895V19.368h-.364v-2.81h-.414v2.81h-1.292v-2.81h-.426v2.81h-1.292v-2.81h-.427v3.224h3.75v11.399a15.54 15.54 0 01-2.878.267c-2.807 0-5.44-.748-7.708-2.057l5.394-10.7 1.078-2.133H14.3l-.828 1.643-.803-1.643h-.464l1.029 2.058L7.92 29.169a15.513 15.513 0 01-2.79-2.192v-7.195h.64c.602 0 1.029-.401 1.029-.978s-.427-.979-1.029-.979h-.665v-.853h1.456v-.414H4.679v9.954A15.394 15.394 0 01.552 16c0-4.053 1.56-7.742 4.114-10.498v9.952h1.092c.602 0 1.028-.401 1.028-.978s-.426-.979-1.028-.979h-.665v-.852h1.455v-.415h-1.43V5.035A15.4 15.4 0 0116 .552c.43 0 .856.017 1.278.052L9.734 12.218l-1.568 2.408v-2.408H7.74v3.224h.389l1.58-2.396v2.396h.427v-2.986L17.792.655a15.34 15.34 0 014.549 1.254v13.533h1.003c.703 0 1.104-.326 1.104-.916 0-.351-.138-.615-.413-.765.175-.15.263-.376.263-.652 0-.565-.376-.891-1.054-.891h-.451V2.121zm-11.666 13.32v-.024l.64-3.199h1.705v3.224h-.414v-2.797h-.94l-.565 2.797h-.427zm3.5 0h2.019v-.413h-1.593v-1.016h1.392v-.414h-1.392v-.954h1.593v-.426h-2.02v3.224zm3.637-2.81h-.978v-.413h2.37v.414h-.965v2.81h-.427v-2.81zm-9.232 3.927l-.828 1.631-.828-1.63h-.464l1.053 2.094-.564 1.13h.464l1.63-3.225h-.463zm12.87 3.224h-2.02v-3.224h2.02v.414h-1.593v.954H21.7v.414h-1.39v1.028h1.593v.414zm.477 0h2.02v-.414h-1.594V18.34h1.393v-.414h-1.393v-.954h1.593v-.414h-2.02v3.224zm-12.331-3.224h1.718v2.81h.364v.414H9.044v-.414h.44l.564-2.81zm-.138 2.81h1.417v-2.396h-.94l-.477 2.396zm16.884-2.923a.53.53 0 00-.414.176.558.558 0 00-.326-.1c-.338 0-.552.238-.552.64v.564h1.87v-.615c0-.414-.214-.665-.578-.665zm-.89.878v-.15c0-.251.1-.251.163-.251.075 0 .175 0 .175.25v.151h-.338zm.715 0v-.213c0-.263.113-.263.188-.263s.176 0 .176.263v.213h-.364zm.765-2.283a.932.932 0 01-.953.929.94.94 0 01-.954-.929c0-.514.414-.928.954-.928s.953.402.953.928zm-.401-.012a.536.536 0 00-.552-.527.536.536 0 00-.552.527c0 .3.238.54.552.54a.538.538 0 00.552-.54zm.388-2.81h-.401v.84h-.351v-.727h-.402v.727h-.313v-.84h-.402v1.242h1.87v-1.242z" fill="url(#paint0_linear_1118_276)"/><defs><linearGradient id="paint0_linear_1118_276" x1=".552" y1="16" x2="31.448" y2="16" gradientUnits="userSpaceOnUse"><stop stop-color="#00D07C"/><stop offset="1" stop-color="#0F9B91"/></linearGradient></defs></svg>