<svg width="117" height="24" viewBox="0 0 117 24" fill="none" xmlns="http://www.w3.org/2000/svg"><path d="M12.224 7.256L10.326 18.69h-2.39l1.58-9.47H4.893l-1.58 9.47H.923L2.822 7.256h9.402zm.403 11.434l1.899-11.434h8.194c.864 0 1.573.165 2.127.496.559.328.95.784 1.173 1.368.227.581.28 1.251.156 2.01a4.651 4.651 0 01-.826 2.016 4.296 4.296 0 01-1.642 1.351c-.673.324-1.451.486-2.333.486h-6.559l.318-1.938h6.168c.469 0 .87-.08 1.2-.24a2.03 2.03 0 00.799-.675c.197-.29.326-.624.385-1 .063-.383.043-.716-.061-.999a1.225 1.225 0 00-.576-.659c-.275-.16-.645-.24-1.11-.24h-5.314l-1.58 9.458h-2.418zm25.298-5.56c-.208 1.22-.612 2.257-1.211 3.11-.596.852-1.324 1.5-2.184 1.942a5.938 5.938 0 01-2.769.665c-1.038 0-1.934-.237-2.686-.71-.748-.472-1.29-1.155-1.624-2.049-.335-.897-.399-1.978-.19-3.244.2-1.224.6-2.263 1.2-3.115.6-.856 1.33-1.508 2.195-1.954a5.937 5.937 0 012.786-.676c1.03 0 1.92.238 2.669.715.751.476 1.293 1.165 1.624 2.066.335.897.398 1.98.19 3.25zm-2.406-.286c.13-.785.124-1.444-.017-1.976-.138-.536-.391-.942-.76-1.217-.368-.276-.833-.413-1.395-.413a3.21 3.21 0 00-1.68.457c-.507.306-.935.749-1.285 1.33-.346.576-.586 1.278-.72 2.104-.134.79-.13 1.448.01 1.977.146.528.405.929.777 1.2.376.268.843.402 1.401.402.607 0 1.162-.149 1.664-.446.506-.302.933-.74 1.279-1.313.346-.576.588-1.278.726-2.104zm9.496-4.36h2.557c.92 0 1.7.193 2.345.58a3.291 3.291 0 011.39 1.636c.287.7.35 1.523.19 2.468-.145.916-.477 1.714-.994 2.396a5.378 5.378 0 01-1.932 1.59 5.703 5.703 0 01-2.535.565H43.48c-.92 0-1.705-.186-2.356-.559a3.306 3.306 0 01-1.413-1.585c-.29-.681-.359-1.485-.206-2.412.16-.946.502-1.768 1.027-2.468a5.369 5.369 0 011.954-1.63 5.599 5.599 0 012.53-.581zm-.335 2.021c-.492 0-.942.099-1.352.296a2.603 2.603 0 00-1.021.882c-.276.395-.464.888-.564 1.48-.09.566-.058 1.036.095 1.412.152.376.4.657.742.843.343.187.754.28 1.234.28h2.569c.49 0 .936-.095 1.334-.285.398-.19.73-.473.994-.849.268-.376.445-.841.53-1.396.1-.591.082-1.085-.056-1.48a1.58 1.58 0 00-.703-.887c-.331-.197-.74-.296-1.228-.296H44.68zm2.976-3.45l-1.988 12.104h-2.295l1.988-12.104h2.295zm19.482.201L65.24 18.69h-2.39l1.58-9.47h-7.78l-1.58 9.47h-2.39l1.9-11.434h12.56zm.403 11.434L69.44 7.256h4.511c.864 0 1.573.165 2.128.496.558.328.949.784 1.172 1.368.227.581.28 1.251.156 2.01a4.651 4.651 0 01-.826 2.016 4.296 4.296 0 01-1.642 1.351c-.673.324-1.451.486-2.333.486H69.73l.318-1.938h2.485c.469 0 .87-.08 1.2-.24a2.03 2.03 0 00.799-.675c.197-.29.326-.624.385-1 .063-.383.043-.716-.061-.999a1.225 1.225 0 00-.575-.659c-.276-.16-.646-.24-1.112-.24h-1.63l-1.58 9.458h-2.418zm21.615-5.56c-.208 1.22-.612 2.257-1.211 3.11-.596.852-1.324 1.5-2.183 1.942a5.938 5.938 0 01-2.77.665c-1.038 0-1.934-.237-2.686-.71-.748-.472-1.29-1.155-1.624-2.049-.335-.897-.398-1.978-.19-3.244.2-1.224.601-2.263 1.2-3.115.6-.856 1.331-1.508 2.195-1.954a5.937 5.937 0 012.786-.676c1.03 0 1.92.238 2.669.715.752.476 1.293 1.165 1.624 2.066.335.897.399 1.98.19 3.25zm-2.406-.286c.13-.785.124-1.444-.017-1.976-.138-.536-.39-.942-.76-1.217-.368-.276-.833-.413-1.395-.413-.61 0-1.17.152-1.68.457-.507.306-.935.749-1.285 1.33-.346.576-.586 1.278-.72 2.104-.134.79-.13 1.448.01 1.977.146.528.405.929.777 1.2.376.268.843.402 1.401.402.607 0 1.162-.149 1.664-.446.506-.302.933-.74 1.279-1.313.346-.576.588-1.278.726-2.104zm3.27 5.846l1.898-11.434h7.588l-.335 1.993h-5.17l-.374 2.233h1.87c.905 0 1.66.147 2.267.441.61.29 1.05.702 1.318 1.234.272.532.348 1.16.229 1.882a4.028 4.028 0 01-.86 1.904c-.447.547-1.025.975-1.736 1.284-.708.309-1.513.463-2.418.463H90.02zm2.742-1.943h1.859c.432 0 .81-.078 1.133-.234.324-.16.585-.37.782-.631a1.94 1.94 0 00.38-.866c.074-.454-.036-.837-.33-1.15-.29-.316-.76-.474-1.407-.474H93.32l-.558 3.355zm10.2-5.265h5.356c.908 0 1.666.147 2.272.441.611.29 1.05.702 1.318 1.234.272.532.346 1.16.223 1.882a3.986 3.986 0 01-.854 1.904c-.45.547-1.031.975-1.742 1.284-.707.309-1.513.463-2.418.463h-6.907l1.898-11.434h2.418l-1.575 9.491h4.49c.432 0 .81-.078 1.134-.234.327-.16.59-.37.787-.631.201-.264.326-.553.374-.866.078-.454-.03-.837-.324-1.15-.294-.316-.765-.474-1.412-.474h-5.356l.318-1.91zm13.904-4.226l-1.898 11.434h-2.412l1.898-11.434h2.412z" fill="#04171C"/><path d="M31.683 20.834a.83.83 0 00.006-.365.354.354 0 00-.158-.224.602.602 0 00-.325-.076.911.911 0 00-.41.089.786.786 0 00-.297.255c-.078.11-.133.244-.164.4a.75.75 0 00-.01.364c.029.097.084.17.166.218a.646.646 0 00.326.073.906.906 0 00.405-.086.763.763 0 00.293-.25c.078-.11.134-.242.168-.398z" fill="#08B585"/><path d="M26.813 22.563l.895-3.577a.254.254 0 01.392-.147l2.907 2.03 3.83-1.982a.254.254 0 01.363.287l-.894 3.577a.254.254 0 01-.393.147l-2.906-2.03-3.83 1.982a.254.254 0 01-.364-.287z" fill="#08B585"/><path fill-rule="evenodd" clip-rule="evenodd" d="M82.45 7.03a6.42 6.42 0 012.31-.418c.938 0 1.767.182 2.488.547l1.207-4.916h-4.801L82.45 7.03z" fill="#08B585"/><path d="M84.857 3.691c-.22.963-.96 2.004-1.966 1.385-1.007-.62-1.38-1.185-1.17-2.1.208-.916 1.099-1.583 1.965-1.385.866.197 1.39 1.138 1.171 2.1zm4.378 1.02c-.66.735-1.811 1.288-2.391.258-.58-1.03-.633-1.705-.006-2.405.627-.7 1.73-.85 2.391-.258.662.593.664 1.67.006 2.405z" fill="#08B585"/><path d="M87.567 2.967c-.26 1.137-1.134 2.368-2.323 1.637-1.19-.732-1.631-1.4-1.384-2.483.247-1.082 1.3-1.87 2.323-1.636 1.024.233 1.643 1.344 1.384 2.482z" fill="#08B585"/></svg>