<svg width="11" height="11" viewBox="0 0 11 11" fill="none" xmlns="http://www.w3.org/2000/svg"><path d="M5.566.832c.026-.11.182-.11.208 0l.273 1.142a.107.107 0 00.2.025L6.793.962c.053-.1.204-.061.202.052l-.019 1.173c-.001.1.12.148.187.074l.788-.868c.076-.084.213-.009.183.1l-.31 1.133a.107.107 0 00.163.118l.979-.645c.094-.062.208.045.152.143l-.581 1.02a.107.107 0 00.128.155l1.108-.381c.107-.037.19.095.112.176l-.816.843a.107.107 0 00.086.182l1.168-.093c.112-.009.16.14.064.2l-.999.612a.108.108 0 00.038.198l1.154.201c.111.02.121.175.013.209l-1.12.344a.108.108 0 00-.013.201l1.069.483c.102.046.073.2-.04.205l-1.17.055a.108.108 0 00-.062.191l.915.734c.088.07.021.212-.089.189l-1.147-.239a.107.107 0 00-.108.17l.704.939c.068.09-.032.21-.133.16L8.348 8.48a.107.107 0 00-.146.137l.449 1.085c.043.104-.083.196-.17.123l-.89-.763a.107.107 0 00-.176.097l.166 1.162c.016.112-.13.17-.194.077l-.674-.96a.107.107 0 00-.194.05l-.128 1.166c-.012.113-.167.132-.207.026L5.77 9.582a.107.107 0 00-.2 0l-.414 1.098c-.04.106-.195.087-.207-.026L4.82 9.487a.107.107 0 00-.195-.05l-.673.961c-.065.093-.21.035-.194-.077l.166-1.162a.107.107 0 00-.176-.097l-.891.763c-.086.073-.212-.019-.169-.123l.45-1.085a.107.107 0 00-.147-.137l-1.052.517c-.101.05-.2-.07-.133-.161l.704-.939a.107.107 0 00-.108-.17l-1.147.239c-.11.023-.177-.119-.089-.19l.915-.733a.108.108 0 00-.062-.191L.85 6.797c-.113-.005-.143-.159-.04-.205l1.068-.483a.108.108 0 00-.012-.2l-1.12-.345c-.108-.034-.098-.19.013-.209l1.154-.201a.108.108 0 00.038-.198l-1-.613c-.096-.059-.048-.208.065-.199l1.168.093a.107.107 0 00.086-.182l-.816-.843c-.079-.08.005-.213.111-.176l1.109.38a.107.107 0 00.128-.154l-.581-1.02c-.056-.098.058-.205.152-.143l.98.645a.107.107 0 00.161-.118l-.31-1.133c-.03-.109.108-.184.184-.1l.788.868a.107.107 0 00.186-.074l-.019-1.173c-.001-.113.15-.152.203-.052l.547 1.037a.107.107 0 00.2-.025L5.566.832z" fill="#E65A78"/></svg>