<svg width="16" height="17" viewBox="0 0 16 17" fill="none" xmlns="http://www.w3.org/2000/svg"><g clip-path="url(#clip0_1989_1599)"><path d="M14.849 6.928c.56.28 1.151.785 1.151 1.572s-.592 1.292-1.151 1.572A4.348 4.348 0 0113 10.5H9.309l-2.585 5.17a1.5 1.5 0 01-1.342.83H4a.5.5 0 01-.493-.582l.918-5.507-2.253-.375-1.318 1.318A.5.5 0 010 11V6a.5.5 0 01.854-.354l1.318 1.319 2.253-.376-.918-5.507A.5.5 0 014 .5h1.382a1.5 1.5 0 011.342.83L9.309 6.5H13c.568 0 1.271.14 1.849.428z" fill="#A2ACB1"/></g><defs><clipPath id="clip0_1989_1599"><path fill="#fff" transform="rotate(90 7.75 8.25)" d="M0 0h16v16H0z"/></clipPath></defs></svg>