<svg width="297" height="49" viewBox="0 0 297 49" fill="none" xmlns="http://www.w3.org/2000/svg"><g filter="url(#filter0_dd_12_2953)"><path d="M18.714 7.67h-4.692l-2.281 11.687H7.544L9.825 7.67H5.284l.667-3.38h13.43l-.667 3.38zm13.474.021L24.72 19.874c-.617.99-1.213 1.757-1.787 2.303-.56.56-1.155.954-1.786 1.183-.631.244-1.37.366-2.217.366a6.156 6.156 0 01-1.83-.28c-.616-.186-1.104-.43-1.463-.732l1.83-2.884a2.684 2.684 0 001.808.668c.373 0 .688-.086.947-.259.258-.158.516-.423.774-.796L18.35 7.691h4.068l1.463 7.168 4.305-7.168h4.003zm8.365-.193c.86 0 1.664.215 2.41.645.76.417 1.37 1.026 1.83 1.83.459.803.688 1.743.688 2.82 0 1.276-.287 2.432-.86 3.465a6.305 6.305 0 01-2.303 2.41 5.946 5.946 0 01-3.164.883c-1.694 0-2.884-.531-3.573-1.593l-1.12 5.574h-4.089l3.164-15.84h3.874l-.236 1.097c.932-.86 2.059-1.291 3.379-1.291zm-1.98 8.76c.817 0 1.485-.302 2.001-.904.517-.603.775-1.385.775-2.346 0-.69-.2-1.234-.603-1.636-.387-.402-.925-.603-1.614-.603-.818 0-1.485.302-2.002.904-.516.603-.774 1.392-.774 2.368 0 .688.193 1.234.58 1.636.403.387.948.58 1.637.58zm25.767-3.573c0 1.334-.33 2.504-.99 3.508-.66 1.005-1.614 1.794-2.863 2.368-1.248.573-2.733.904-4.455.99l-.796 3.981h-3.552l.797-4.024c-1.952-.158-3.43-.668-4.434-1.528-1.005-.861-1.507-2.06-1.507-3.595 0-2.009.732-3.616 2.196-4.821 1.463-1.205 3.515-1.887 6.155-2.045l.818-4.132h3.551l-.817 4.154c1.922.158 3.386.674 4.39 1.55 1.005.86 1.507 2.059 1.507 3.594zm-7.684 3.766c2.569-.301 3.853-1.42 3.853-3.357 0-.76-.215-1.335-.646-1.722-.416-.402-1.098-.66-2.045-.775l-1.162 5.854zm-6.285-2.56c0 .76.216 1.34.646 1.742.43.402 1.127.668 2.088.797l1.162-5.811c-2.597.3-3.896 1.391-3.896 3.271zm17.006-6.2h4.068l-1.292 6.2 6.091-6.2h3.853L77.75 19.357h-4.09l1.313-6.22-6.09 6.22H65.03L67.377 7.69zm22.464-.193c.861 0 1.665.215 2.41.645.761.417 1.371 1.026 1.83 1.83.46.803.69 1.743.69 2.82 0 1.276-.288 2.432-.862 3.465a6.304 6.304 0 01-2.303 2.41 5.946 5.946 0 01-3.164.883c-1.693 0-2.884-.531-3.572-1.593l-1.12 5.574h-4.09l3.165-15.84h3.874l-.237 1.097c.933-.86 2.06-1.291 3.38-1.291zm-1.98 8.76c.818 0 1.485-.302 2.002-.904.516-.603.775-1.385.775-2.346 0-.69-.201-1.234-.603-1.636-.387-.402-.925-.603-1.614-.603-.818 0-1.485.302-2.002.904-.516.603-.775 1.392-.775 2.368 0 .688.194 1.234.581 1.636.402.387.948.58 1.636.58zm25.014-8.567l-2.303 11.666h-3.68l1.162-6.026-3.896 4.993h-1.743l-1.916-5.252-1.248 6.285h-3.68L97.917 7.69h4.24l2.023 6.092 4.8-6.092h3.895zm15.092 0l-2.324 11.666h-3.875l.237-1.098c-.932.861-2.059 1.292-3.379 1.292a4.988 4.988 0 01-2.432-.624c-.746-.431-1.349-1.048-1.808-1.851-.459-.804-.689-1.751-.689-2.842 0-1.262.28-2.403.84-3.422.574-1.033 1.341-1.844 2.303-2.432a6.053 6.053 0 013.185-.882c1.693 0 2.884.53 3.573 1.592l.28-1.399h4.089zm-7.92 8.567c.817 0 1.485-.302 2.001-.904.517-.603.775-1.385.775-2.346 0-.69-.201-1.234-.603-1.636-.387-.402-.925-.603-1.614-.603-.818 0-1.485.302-2.001.904-.517.603-.775 1.392-.775 2.368 0 .688.193 1.234.581 1.636.402.387.947.58 1.636.58zM8.168 33.632l1.98 4.132H6.597l-2.152-4.261 3.852-4.24H12l-3.831 4.369zm5.273 0l1.98 4.132H11.87l-2.152-4.261 3.852-4.24h3.702l-3.83 4.369zm6.833-9.341h12.591l-.667 3.293h-8.394l-.495 2.432h3.917c1.55 0 2.74.352 3.573 1.055.846.688 1.27 1.686 1.27 2.991 0 1.076-.294 2.016-.883 2.82-.588.789-1.435 1.399-2.54 1.83-1.09.43-2.381.645-3.874.645h-7.511l3.013-15.066zm4.843 12.01c.789 0 1.413-.165 1.872-.495.474-.345.71-.811.71-1.4 0-.459-.157-.796-.473-1.011-.316-.23-.803-.344-1.463-.344h-3.057l-.645 3.25h3.056zm10.29-8.61h4.068l-1.291 6.2 6.09-6.2h3.853l-2.346 11.666h-4.089l1.313-6.22-6.091 6.22h-3.853l2.346-11.666zm27.33 0L60.39 39.357H56.3l1.68-8.416h-2.95l-.452 1.787c-.416 1.736-.847 3.1-1.291 4.09-.445.99-.983 1.707-1.615 2.151-.617.445-1.391.668-2.324.668-.56 0-1.234-.093-2.023-.28l.86-3.336c.259.029.431.043.517.043.588 0 1.048-.28 1.378-.84.344-.56.66-1.449.947-2.668l1.162-4.865h10.546zm13.574 4.93c0 .559-.08 1.197-.237 1.915h-8.566c.143 1.262 1.026 1.894 2.647 1.894.516 0 1.019-.08 1.507-.237a4.014 4.014 0 001.313-.71l1.7 2.561c-1.363 1.004-3.02 1.507-4.972 1.507-1.234 0-2.325-.216-3.272-.646-.932-.445-1.657-1.062-2.173-1.851-.502-.804-.754-1.743-.754-2.82 0-1.277.294-2.425.883-3.443a6.304 6.304 0 012.496-2.41c1.077-.59 2.303-.883 3.68-.883 1.163 0 2.175.215 3.036.645.875.416 1.542 1.012 2.001 1.787.474.775.71 1.672.71 2.69zm-5.94-2.218c-.66 0-1.213.18-1.658.538-.445.345-.768.826-.969 1.442h4.8c.014-.617-.18-1.097-.581-1.442-.402-.358-.933-.538-1.593-.538zm18.295.538h-3.788l-1.636 8.416h-4.09l1.636-8.416h-3.702l.668-3.25h11.579l-.667 3.25zm16.78 2.39c.99.459 1.485 1.255 1.485 2.388 0 1.134-.474 2.024-1.421 2.67-.932.645-2.252.968-3.96.968h-6.715l2.346-11.666h6.113c1.377 0 2.439.244 3.185.732.76.488 1.141 1.191 1.141 2.11 0 .63-.194 1.19-.581 1.678-.373.474-.904.847-1.593 1.12zm-5.575-.948h2.239c.488 0 .882-.107 1.184-.322.301-.23.452-.524.452-.883 0-.301-.108-.524-.323-.667-.201-.158-.495-.237-.883-.237h-2.238l-.43 2.11zm1.744 4.327c.516 0 .925-.108 1.227-.323.301-.23.452-.531.452-.904 0-.617-.402-.926-1.206-.926h-2.647l-.43 2.153h2.604zm19.37 2.84c-1.234 0-2.31-.215-3.228-.645-.918-.445-1.629-1.069-2.131-1.873-.502-.803-.753-1.736-.753-2.798 0-1.277.308-2.425.925-3.443.617-1.019 1.471-1.823 2.562-2.41 1.09-.59 2.317-.883 3.68-.883 1.234 0 2.31.222 3.228.667.919.43 1.629 1.047 2.131 1.85.502.79.754 1.716.754 2.777 0 1.277-.309 2.432-.926 3.466-.617 1.018-1.471 1.822-2.561 2.41-1.076.589-2.303.883-3.681.883zm.237-3.292c.818 0 1.485-.302 2.002-.904.516-.603.775-1.385.775-2.346 0-.69-.194-1.234-.582-1.636-.387-.402-.925-.603-1.614-.603-.818 0-1.485.302-2.001.904-.517.603-.775 1.392-.775 2.368 0 .689.193 1.234.581 1.636.387.387.925.58 1.614.58zm19.339-5.317h-3.788l-1.636 8.416h-4.089l1.635-8.416h-3.702l.668-3.25h11.579l-.667 3.25zm14.304-3.25l-2.346 11.666h-4.067l1.635-8.416h-3.917l-1.636 8.416h-4.068l2.346-11.666h12.053zm15.205 0l-7.468 12.183c-.617.99-1.213 1.757-1.787 2.302-.559.56-1.155.955-1.786 1.184-.631.244-1.37.366-2.217.366a6.15 6.15 0 01-1.829-.28c-.617-.186-1.105-.43-1.464-.731l1.83-2.885a2.683 2.683 0 001.808.668c.373 0 .688-.086.947-.259.258-.157.516-.423.774-.796l-2.647-11.752h4.068l1.464 7.168 4.304-7.168h4.003zm5.165 11.86c-1.234 0-2.317-.216-3.25-.646-.918-.445-1.635-1.069-2.152-1.873-.502-.803-.753-1.736-.753-2.798 0-1.277.308-2.425.925-3.443.617-1.019 1.478-1.823 2.583-2.41 1.105-.59 2.346-.883 3.724-.883 1.32 0 2.46.28 3.422.84a4.884 4.884 0 012.109 2.324l-3.487 1.657c-.43-1.033-1.183-1.55-2.26-1.55-.832 0-1.521.302-2.066.904-.531.603-.796 1.378-.796 2.325 0 .688.194 1.24.581 1.657.402.402.968.603 1.7.603.545 0 1.026-.122 1.442-.366.416-.244.775-.632 1.076-1.163l2.992 1.808c-.559.947-1.349 1.686-2.367 2.217-1.005.531-2.146.797-3.423.797zm16.707-6.027l3.013 5.833h-4.735l-1.722-4.154h-1.528l-.839 4.154h-4.09l2.346-11.666h4.09l-.861 4.305h1.377l3.745-4.305h4.434l-5.23 5.833zm11.279-.021l-3.853 4.261h-3.702l3.831-4.369-1.98-4.132h3.552l2.152 4.24zm5.273 0l-3.853 4.261h-3.702l3.831-4.369-1.98-4.132h3.552l2.152 4.24z" fill="#fff"/><path d="M18.714 7.67v1.076h.885l.171-.868-1.056-.208zm-4.692 0V6.594h-.886l-.17.87 1.056.206zm-2.281 11.687v1.076h.886l.17-.87-1.056-.206zm-4.197 0l-1.056-.206-.25 1.282h1.306v-1.076zM9.825 7.67l1.057.206.25-1.282H9.825V7.67zm-4.541 0l-1.056-.21-.253 1.285h1.309V7.67zm.667-3.38V3.216h-.884l-.172.867 1.056.209zm13.43 0l1.056.21.254-1.285h-1.31V4.29zm-.667 2.304h-4.692v2.152h4.692V6.594zm-5.748.87L10.685 19.15l2.112.412 2.281-11.687-2.112-.412zM11.741 18.28H7.544v2.152h4.197V18.28zM8.6 19.563l2.28-11.687-2.112-.412-2.28 11.686 2.112.412zm1.224-12.97h-4.54v2.153h4.541V6.594zM6.34 7.879L7.007 4.5l-2.112-.417-.667 3.38 2.112.416zm-.39-2.512h13.43V3.215H5.952v2.152zm12.375-1.285l-.667 3.38 2.111.416.667-3.379-2.111-.417zm13.862 3.61l.918.562 1.004-1.639h-1.922v1.076zm-7.467 12.18l.913.57.004-.007-.917-.563zm-1.787 2.303l-.74-.78-.01.01-.01.01.76.76zm-1.786 1.184l-.368-1.011-.01.003-.01.004.388 1.004zm-4.046.086l.318-1.028-.007-.002-.311 1.03zm-1.464-.732l-.909-.576-.504.795.72.605.693-.823zm1.83-2.884l.702-.815-.944-.813-.667 1.052.909.576zm2.755.41l-.562-.919-.018.011-.017.012.596.895zm.774-.797l.885.613.269-.389-.104-.46-1.05.236zM18.35 7.691V6.615h-1.346l.296 1.313 1.05-.237zm4.068 0l1.054-.215-.176-.86h-.878V7.69zm1.463 7.168l-1.054.215.553 2.71 1.424-2.371-.923-.554zm4.305-7.168V6.615h-.609l-.314.522.923.554zm3.086-.562l-7.469 12.182 1.835 1.125 7.469-12.182-1.835-1.125zm-7.465 12.175c-.589.946-1.13 1.632-1.614 2.092l1.483 1.56c.663-.63 1.313-1.479 1.958-2.513l-1.826-1.139zm-1.634 2.112c-.468.468-.933.766-1.393.933l.736 2.023c.803-.293 1.528-.783 2.18-1.435l-1.523-1.521zm-1.413.94c-.48.186-1.083.294-1.829.294v2.152c.947 0 1.823-.136 2.605-.438l-.776-2.008zm-1.829.294c-.507 0-1.01-.076-1.511-.232l-.637 2.056c.704.218 1.42.328 2.148.328V22.65zm-1.518-.234c-.526-.159-.87-.346-1.083-.526l-1.384 1.648c.504.424 1.137.724 1.844.938l.623-2.06zm-.866.875l1.83-2.884-1.818-1.153-1.83 2.884 1.818 1.153zm.218-2.645a3.76 3.76 0 002.51.928v-2.152c-.434 0-.786-.132-1.105-.407l-1.405 1.63zm2.51.928c.543 0 1.076-.127 1.544-.44l-1.194-1.79c-.048.032-.145.078-.35.078v2.152zm1.509-.416c.433-.266.793-.662 1.098-1.102l-1.77-1.226c-.211.306-.368.44-.45.491l1.122 1.837zm1.263-1.952L19.4 7.455l-2.1.473 2.648 11.752 2.1-.474zM18.35 8.768h4.068V6.615H18.35v2.153zm3.013-.861l1.464 7.167 2.109-.43-1.464-7.168-2.109.43zm3.44 7.506l4.306-7.167-1.846-1.109-4.304 7.168 1.845 1.108zm3.383-6.645h4.003V6.615h-4.003v2.153zm14.778-.625l-.538.933.011.006.01.005.517-.944zm1.658 8.115l-.941-.523-.003.005.944.518zm-2.303 2.41l-.556-.921-.006.003.562.918zm-6.737-.71l.903-.586-1.438-2.216-.52 2.59 1.055.212zm-1.12 5.574v1.077h.882l.174-.865-1.055-.212zm-4.089 0l-1.055-.21-.257 1.287h1.312v-1.077zm3.164-15.84V6.614h-.882l-.173.866 1.055.21zm3.874 0l1.052.226.281-1.303H37.41v1.076zm-.236 1.097l-1.052-.227 1.782 1.018-.73-.79zm3.4 6.565l.817.7-.817-.7zm.172-3.982l-.774.747.006.007.007.007.761-.761zm-3.616.301l.818.7-.818-.7zm-.193 4.004l-.775.747.014.014.014.013.747-.774zm3.616-7.103c.672 0 1.29.165 1.873.502L43.5 7.21a5.82 5.82 0 00-2.948-.79v2.153zm1.894.513c.574.315 1.044.777 1.411 1.42l1.87-1.068c-.552-.964-1.301-1.722-2.248-2.24l-1.033 1.888zm1.411 1.42c.352.616.547 1.366.547 2.285h2.153c0-1.232-.265-2.362-.83-3.353l-1.87 1.068zm.547 2.285c0 1.11-.247 2.082-.725 2.943l1.881 1.045c.67-1.206.997-2.543.997-3.988h-2.153zm-.728 2.947a5.23 5.23 0 01-1.915 2.008l1.111 1.843a7.38 7.38 0 002.69-2.814l-1.886-1.037zm-1.921 2.011a4.871 4.871 0 01-2.602.724v2.153a7.022 7.022 0 003.725-1.04l-1.123-1.837zm-2.602.724c-1.466 0-2.245-.445-2.67-1.102l-1.806 1.172c.952 1.467 2.555 2.083 4.476 2.083v-2.152zm-4.628-.728l-1.12 5.575 2.11.423 1.12-5.574-2.11-.424zm-.064 4.71h-4.09v2.153h4.09v-2.153zm-3.034 1.287l3.164-15.84-2.111-.422-3.164 15.84 2.11.422zm2.108-14.975h3.874V6.615h-3.874v2.153zm2.822-1.303l-.236 1.097 2.103.454.237-1.098-2.104-.453zm1.546 2.115c.725-.67 1.587-1.006 2.649-1.006V6.422c-1.579 0-2.97.524-4.11 1.576l1.46 1.582zm.669 7.754c1.12 0 2.09-.43 2.818-1.28l-1.634-1.4c-.305.355-.67.527-1.184.527v2.153zm2.818-1.28c.718-.837 1.034-1.885 1.034-3.046h-2.152c0 .76-.2 1.277-.516 1.645l1.634 1.401zm1.034-3.046c0-.91-.273-1.752-.918-2.397l-1.522 1.522c.159.158.288.407.288.875h2.152zm-.904-2.383c-.636-.66-1.48-.932-2.389-.932v2.152c.47 0 .7.13.84.274l1.55-1.494zm-2.389-.932c-1.12 0-2.09.43-2.819 1.28l1.635 1.4c.305-.355.67-.528 1.184-.528V9.693zm-2.819 1.28c-.72.84-1.034 1.896-1.034 3.068h2.153c0-.78.202-1.302.516-1.667l-1.635-1.401zM35.28 14.04c0 .898.26 1.736.883 2.383l1.55-1.494c-.152-.157-.28-.41-.28-.89H35.28zm.91 2.41c.648.624 1.485.883 2.384.883v-2.152c-.48 0-.733-.13-.89-.28l-1.493 1.55zm27.16-.258l.9.591-.9-.591zm-2.862 2.368l.45.977-.45-.977zm-4.455.99l-.054-1.075-.837.042-.164.822 1.055.21zm-.796 3.981v1.077h.882l.173-.866-1.055-.21zm-3.552 0l-1.055-.209-.255 1.286h1.31v-1.077zm.797-4.024l1.055.209.235-1.185-1.204-.097-.086 1.073zm-4.434-1.528l.7-.818-.7.818zm.689-8.416l.684.83-.684-.83zm6.155-2.045l.065 1.074.83-.05.16-.815-1.055-.209zm.818-4.132V2.31h-.884l-.172.867 1.056.209zm3.551 0l1.056.208.253-1.284h-1.31v1.076zm-.817 4.154l-1.056-.208-.233 1.182 1.2.098.089-1.072zm4.39 1.55l-.707.81.007.007.7-.818zm-6.177 7.36l-1.055-.21-.288 1.451 1.468-.172-.125-1.069zm3.207-5.08l-.747.775.013.013.014.013.72-.8zm-2.045-.774l.13-1.068-.99-.12-.195.978 1.055.21zm-6.8 5.036l-.735.787.734-.787zm2.087.797l-.143 1.066 1 .135.198-.99-1.055-.211zm1.162-5.811l1.055.21.29-1.45-1.469.17.124 1.07zm8.997 2.066c0 1.148-.281 2.107-.814 2.917l1.8 1.182c.787-1.199 1.166-2.579 1.166-4.1h-2.152zm-.814 2.917c-.534.813-1.32 1.479-2.412 1.98l.899 1.956c1.405-.646 2.526-1.558 3.312-2.754l-1.798-1.182zm-2.412 1.98c-1.097.505-2.441.813-4.06.894l.108 2.15c1.825-.092 3.45-.444 4.85-1.088l-.898-1.955zm-5.061 1.758l-.797 3.981 2.11.422.797-3.981-2.11-.422zm.259 3.116h-3.552v2.153h3.552v-2.153zm-2.496 1.285l.796-4.024-2.111-.418-.796 4.024 2.111.418zm-.173-5.306c-1.828-.148-3.053-.615-3.82-1.273l-1.4 1.635c1.241 1.064 2.972 1.616 5.047 1.783l.173-2.145zm-3.82-1.273c-.726-.622-1.13-1.5-1.13-2.777h-2.153c0 1.794.6 3.312 1.883 4.412l1.4-1.635zm-1.13-2.777c0-1.71.604-3.003 1.803-3.99L48.05 8.733c-1.728 1.423-2.587 3.344-2.587 5.652h2.153zm1.803-3.99c1.23-1.014 3.035-1.652 5.535-1.802l-.128-2.148c-2.78.166-5.079.891-6.776 2.288l1.369 1.662zm6.527-2.667l.818-4.132-2.111-.418-.818 4.132 2.11.418zm-.238-3.265h3.551V2.311h-3.55v2.152zm2.496-1.284l-.818 4.154 2.111.416.818-4.154-2.111-.416zm.15 5.434c1.792.147 3.002.618 3.771 1.289l1.414-1.623c-1.24-1.08-2.956-1.642-5.01-1.81l-.175 2.144zm3.778 1.295c.726.622 1.13 1.5 1.13 2.777h2.153c0-1.794-.6-3.312-1.882-4.412l-1.401 1.635zM56.78 17.52c1.396-.163 2.602-.564 3.472-1.323.91-.793 1.332-1.871 1.332-3.103h-2.152c0 .705-.22 1.155-.594 1.48-.414.361-1.135.67-2.308.809l.25 2.137zm4.804-4.426c0-.965-.28-1.872-1.002-2.522l-1.44 1.6c.138.124.29.365.29.922h2.152zm-.974-2.496c-.663-.64-1.622-.943-2.663-1.07l-.26 2.137c.853.104 1.258.318 1.428.481l1.495-1.548zm-3.848-.21L55.6 16.241l2.11.419 1.163-5.854-2.111-.42zm-7.468 3.502c0 .967.28 1.87.988 2.53l1.468-1.573c-.153-.143-.303-.403-.303-.957h-2.153zm.988 2.53c.669.624 1.626.935 2.679 1.076l.286-2.133c-.87-.117-1.304-.337-1.497-.516l-1.468 1.573zm3.877.22l1.162-5.81-2.11-.422-1.162 5.81 2.11.423zm-.017-7.09c-1.403.162-2.614.553-3.49 1.288-.92.774-1.358 1.833-1.358 3.052h2.153c0-.66.212-1.087.59-1.404.422-.354 1.159-.66 2.353-.798l-.248-2.138zm13.235-1.86V6.615h-.882l-.173.864 1.055.212zm4.068 0l1.053.22.27-1.296h-1.323V7.69zm-1.292 6.2l-1.053-.22 1.82.973-.767-.754zm6.091-6.2V6.615h-.451l-.316.322.767.754zm3.853 0l1.055.213.259-1.289h-1.314V7.69zM77.75 19.357v1.076h.881l.174-.864-1.055-.212zm-4.09 0l-1.053-.222-.274 1.298h1.327v-1.076zm1.313-6.22l1.053.222-1.822-.975.77.753zm-6.09 6.22v1.076h.452l.316-.323-.769-.753zm-3.853 0l-1.055-.212-.26 1.288h1.315v-1.076zm2.346-10.59h4.068V6.616h-4.068v2.153zm3.014-1.295L69.1 13.67l2.107.439 1.291-6.2-2.107-.438zm.53 7.172l6.09-6.198-1.534-1.509-6.092 6.199 1.536 1.508zm5.323-5.876h3.853V6.615h-3.853v2.153zm2.798-1.289l-2.346 11.666 2.11.424 2.346-11.665-2.11-.425zM77.75 18.281h-4.09v2.152h4.09v-2.152zm-3.037 1.298l1.313-6.22-2.106-.444-1.313 6.22 2.106.444zm-.509-7.195l-6.09 6.22 1.537 1.506 6.091-6.22-1.538-1.506zm-5.322 5.897H65.03v2.152h3.852v-2.152zm-2.797 1.288l2.346-11.665-2.11-.425-2.346 11.666 2.11.424zM92.252 8.143l-.538.933.01.006.011.005.517-.944zm1.657 8.115l-.94-.523-.003.005.943.518zm-2.303 2.41l-.555-.921-.007.003.562.918zm-6.736-.71l.902-.586-1.438-2.216-.52 2.59 1.056.212zm-1.12 5.574v1.077h.882l.173-.865-1.055-.212zm-4.09 0l-1.054-.21-.257 1.287h1.312v-1.077zm3.165-15.84V6.614h-.883l-.172.866 1.055.21zm3.874 0l1.052.226.281-1.303h-1.333v1.076zm-.237 1.097l-1.052-.227 1.782 1.018-.73-.79zm3.4 6.565l.818.7-.817-.7zm.173-3.982l-.775.747.007.007.007.007.761-.761zm-3.616.301l.817.7-.817-.7zm-.194 4.004l-.774.747.013.014.014.013.748-.774zm3.616-7.103c.672 0 1.29.165 1.873.502L92.79 7.21a5.82 5.82 0 00-2.949-.79v2.153zm1.894.513c.575.315 1.045.777 1.412 1.42l1.869-1.068c-.551-.964-1.3-1.722-2.248-2.24l-1.033 1.888zm1.412 1.42c.352.616.547 1.366.547 2.285h2.152c0-1.232-.264-2.362-.83-3.353l-1.869 1.068zm.547 2.285c0 1.11-.248 2.082-.725 2.943l1.88 1.045c.67-1.206.997-2.543.997-3.988h-2.152zm-.728 2.947a5.23 5.23 0 01-1.915 2.008l1.11 1.843a7.38 7.38 0 002.691-2.814l-1.886-1.037zm-1.921 2.011a4.87 4.87 0 01-2.603.724v2.153a7.022 7.022 0 003.726-1.04l-1.124-1.837zm-2.603.724c-1.465 0-2.244-.445-2.67-1.102l-1.805 1.172c.951 1.467 2.555 2.083 4.475 2.083v-2.152zm-4.628-.728l-1.119 5.575 2.11.423 1.12-5.574-2.11-.424zm-.064 4.71h-4.09v2.153h4.09v-2.153zm-3.034 1.287l3.164-15.84-2.11-.422-3.164 15.84 2.11.422zm2.109-14.975h3.874V6.615h-3.874v2.153zm2.822-1.303l-.237 1.097 2.104.454.237-1.098-2.104-.453zm1.545 2.115c.725-.67 1.588-1.006 2.65-1.006V6.422c-1.58 0-2.97.524-4.11 1.576l1.46 1.582zm.67 7.754c1.12 0 2.09-.43 2.818-1.28l-1.634-1.4c-.305.355-.67.527-1.185.527v2.153zm2.818-1.28c.717-.837 1.034-1.885 1.034-3.046h-2.152c0 .76-.2 1.277-.516 1.645l1.634 1.401zm1.034-3.046c0-.91-.273-1.752-.918-2.397l-1.522 1.522c.159.158.288.407.288.875h2.152zm-.904-2.383c-.636-.66-1.481-.932-2.39-.932v2.152c.47 0 .701.13.84.274l1.55-1.494zm-2.39-.932c-1.12 0-2.09.43-2.818 1.28l1.634 1.4c.305-.355.67-.528 1.185-.528V9.693zm-2.818 1.28c-.72.84-1.034 1.896-1.034 3.068h2.153c0-.78.202-1.302.515-1.667l-1.634-1.401zm-1.034 3.068c0 .898.259 1.736.883 2.383L87 14.93c-.152-.157-.28-.41-.28-.89h-2.153zm.91 2.41c.647.624 1.485.883 2.383.883v-2.152c-.479 0-.732-.13-.889-.28l-1.493 1.55zm27.397-8.76l1.056.209.254-1.285h-1.31v1.076zm-2.303 11.666v1.076h.885l.171-.868-1.056-.208zm-3.68 0l-1.057-.204-.247 1.28h1.304v-1.076zm1.162-6.026l1.057.203-1.905-.866.848.663zm-3.896 4.993V19.4h.526l.323-.414-.849-.662zm-1.743 0l-1.011.369.258.707h.753v-1.076zm-1.916-5.252l1.011-.369-2.066.16 1.055.21zm-1.248 6.285v1.076h.884l.172-.866-1.056-.21zm-3.68 0l-1.055-.212-.26 1.288h1.315v-1.076zM97.917 7.69V6.615h-.882l-.173.864 1.055.212zm4.24 0l1.021-.339-.245-.737h-.776V7.69zm2.023 6.092l-1.021.339.629 1.896 1.237-1.57-.845-.665zm4.8-6.092V6.615h-.523l-.323.41.846.666zm2.839-.208l-2.303 11.665 2.112.417L113.931 7.9l-2.112-.417zm-1.247 10.798h-3.68v2.152h3.68V18.28zm-2.624 1.28l1.163-6.027-2.114-.407-1.162 6.026 2.113.408zm-.742-6.893l-3.896 4.994 1.697 1.324 3.896-4.994-1.697-1.324zm-3.048 4.58h-1.743V19.4h1.743v-2.152zm-.732.707l-1.916-5.252-2.022.738 1.916 5.252 2.022-.738zm-3.982-5.092l-1.248 6.284 2.111.42 1.248-6.285-2.111-.42zm-.193 5.418h-3.68v2.152h3.68V18.28zm-2.625 1.288l2.346-11.665-2.11-.425-2.346 11.666 2.11.424zm1.29-10.801h4.241V6.615h-4.24v2.153zm3.219-.737l2.024 6.09 2.042-.678-2.023-6.09-2.043.678zm3.89 6.417l4.8-6.09-1.691-1.333-4.799 6.091 1.69 1.332zm3.955-5.68h3.895V6.615h-3.895v2.153zm18.987-1.077l1.056.21.256-1.286h-1.312V7.69zm-2.324 11.666v1.076h.882l.173-.866-1.055-.21zm-3.875 0l-1.052-.227-.281 1.303h1.333v-1.076zm.237-1.098l1.052.227-1.782-1.018.73.791zm-5.811.668l-.538.932.011.006.01.006.517-.944zm-1.808-1.851l.934-.534-.934.534zm.151-6.264l-.941-.522-.003.004.944.518zm2.303-2.432l-.556-.921-.006.003.562.918zm6.758.71l-.903.586 1.439 2.22.519-2.595-1.055-.21zm.28-1.399V6.615h-.883l-.173.865 1.056.211zm-1.83 7.663l.817.7-.817-.7zm.172-3.982l-.774.747.007.007.006.007.761-.761zm-3.615.301l.817.7-.817-.7zm-.194 4.004l-.775.747.014.014.014.013.747-.774zm8.501-8.196l-2.325 11.666 2.111.42 2.325-11.665-2.111-.42zm-1.269 10.8h-3.875v2.152h3.875V18.28zm-2.823 1.303l.237-1.098-2.104-.454-.237 1.098 2.104.454zm-1.545-2.116c-.725.67-1.587 1.006-2.649 1.006v2.153c1.579 0 2.969-.525 4.109-1.577l-1.46-1.582zm-2.649 1.006a3.912 3.912 0 01-1.915-.492l-1.034 1.889a6.067 6.067 0 002.949.756v-2.152zm-1.894-.48c-.569-.328-1.04-.802-1.412-1.452l-1.868 1.067c.546.957 1.281 1.717 2.204 2.25l1.076-1.865zm-1.412-1.452c-.35-.615-.547-1.37-.547-2.308h-2.152c0 1.245.263 2.382.831 3.375l1.868-1.067zm-.547-2.308c0-1.097.242-2.057.707-2.904l-1.887-1.036c-.654 1.191-.972 2.513-.972 3.94h2.152zm.704-2.9c.489-.878 1.129-1.55 1.924-2.036l-1.123-1.836c-1.128.69-2.022 1.64-2.682 2.828l1.881 1.045zm1.918-2.032a4.982 4.982 0 012.63-.728V6.422a7.133 7.133 0 00-3.741 1.037l1.111 1.843zm2.63-.728c1.466 0 2.244.446 2.67 1.102l1.806-1.171c-.952-1.467-2.555-2.083-4.476-2.083v2.152zm4.628.727l.28-1.399-2.111-.422-.279 1.4 2.11.421zm-.775-.533h4.089V6.615h-4.089v2.153zm-3.831 8.566c1.121 0 2.09-.43 2.818-1.28l-1.634-1.4c-.305.355-.67.527-1.184.527v2.153zm2.818-1.28c.718-.837 1.034-1.885 1.034-3.046h-2.152c0 .76-.2 1.277-.516 1.645l1.634 1.401zm1.034-3.046c0-.91-.273-1.752-.918-2.397l-1.522 1.522c.159.158.288.407.288.875h2.152zm-.904-2.383c-.636-.66-1.481-.932-2.389-.932v2.152c.47 0 .701.13.84.274l1.549-1.494zm-2.389-.932c-1.121 0-2.09.43-2.819 1.28l1.635 1.4c.305-.355.67-.528 1.184-.528V9.693zm-2.819 1.28c-.719.84-1.033 1.896-1.033 3.068h2.152c0-.78.202-1.302.516-1.667l-1.635-1.401zm-1.033 3.068c0 .898.258 1.736.882 2.383l1.55-1.494c-.151-.157-.28-.41-.28-.89h-2.152zm.91 2.41c.647.624 1.484.883 2.383.883v-2.152c-.479 0-.733-.13-.889-.28l-1.494 1.55zM8.168 33.631l-.81-.709-.467.534.307.64.97-.464zm1.98 4.133v1.076h1.71l-.74-1.54-.97.464zm-3.551 0l-.96.485.298.591h.662v-1.076zm-2.152-4.261l-.797-.724-.498.548.334.66.96-.484zm3.852-4.24v-1.077h-.476l-.32.353.796.724zm3.702 0l.81.71 1.565-1.787h-2.375v1.077zm1.442 4.369l-.809-.71-.468.534.307.64.97-.464zm1.98 4.132v1.076h1.71l-.74-1.54-.97.464zm-3.551 0l-.96.485.298.591h.662v-1.076zm-2.152-4.261l-.797-.724-.498.548.334.66.96-.484zm3.852-4.24v-1.077h-.476l-.32.353.796.724zm3.702 0l.81.71 1.565-1.787h-2.375v1.077zM7.198 34.097l1.98 4.132 1.94-.93-1.98-4.132-1.94.93zm2.95 2.591H6.597v2.152h3.551v-2.152zm-2.59.591l-2.153-4.262-1.921.97 2.152 4.262 1.921-.97zM5.24 34.226l3.853-4.24L7.5 28.54l-3.853 4.24 1.593 1.447zm3.056-3.887H12v-2.152H8.297v2.152zm2.893-1.786l-3.831 4.37 1.618 1.418 3.831-4.369-1.618-1.419zm1.28 5.544l1.98 4.132 1.942-.93-1.98-4.132-1.941.93zm2.951 2.591h-3.55v2.152h3.551v-2.152zm-2.59.591l-2.153-4.262-1.92.97 2.151 4.262 1.922-.97zm-2.317-3.053l3.853-4.24-1.593-1.447-3.853 4.24 1.593 1.447zm3.056-3.887h3.702v-2.152H13.57v2.152zm2.893-1.786l-3.83 4.37 1.617 1.418 3.831-4.369-1.618-1.419zm3.811-4.262v-1.076h-.882l-.173.865 1.055.21zm12.591 0l1.055.213.261-1.29h-1.316v1.077zm-.667 3.293v1.076h.88l.175-.863-1.055-.213zm-8.394 0v-1.076h-.88l-.175.861 1.055.215zm-.495 2.432l-1.055-.215-.262 1.291h1.317v-1.076zm7.49 1.055l-.695.822.008.006.008.006.679-.834zm.387 5.81l.863.644.006-.008-.869-.635zm-2.54 1.83l-.39-1.002-.005.001.396 1.001zm-11.385.646l-1.055-.211-.258 1.287h1.313v-1.076zm9.728-3.551l.628.873.005-.003-.633-.87zm.237-2.411l-.633.87.013.01.014.01.606-.89zm-4.52-.344v-1.077h-.883l-.172.867 1.055.21zm-.645 3.25l-1.056-.21-.255 1.286h1.31V36.3zm-1.787-10.934h12.591v-2.152h-12.59v2.152zm11.536-1.29l-.667 3.293 2.11.427.667-3.293-2.11-.427zm.388 2.43h-8.394v2.153h8.394v-2.152zm-9.449.862l-.495 2.432 2.11.43.494-2.433-2.109-.429zm.56 3.723h3.917V28.94h-3.917v2.152zm3.917 0c1.401 0 2.308.319 2.878.8l1.39-1.643c-1.095-.925-2.57-1.31-4.268-1.31v2.153zm2.894.813c.545.444.873 1.105.873 2.157h2.152c0-1.559-.52-2.892-1.667-3.826l-1.358 1.67zm.873 2.157c0 .867-.233 1.58-.675 2.184l1.737 1.271c.734-1.003 1.09-2.17 1.09-3.455h-2.152zm-.67 2.177c-.445.597-1.111 1.097-2.067 1.47l.781 2.005c1.254-.489 2.28-1.208 3.012-2.189l-1.726-1.286zM28.25 37.71c-.935.37-2.086.57-3.479.57v2.153c1.593 0 3.024-.23 4.27-.72l-.79-2.003zm-3.479.57H17.26v2.153h7.511v-2.152zm-6.456 1.288l3.013-15.066-2.11-.422-3.013 15.066 2.11.422zm6.8-2.191c.929 0 1.8-.193 2.501-.698l-1.256-1.747c-.216.155-.594.292-1.244.292v2.153zm2.506-.701a2.715 2.715 0 001.154-2.27h-2.153c0 .247-.073.389-.267.53l1.266 1.74zm1.154-2.27c0-.732-.272-1.442-.944-1.9l-1.212 1.778-.004-.004a.073.073 0 01-.01-.014c-.001-.004.017.033.017.14h2.153zm-.917-1.881c-.588-.428-1.35-.55-2.097-.55v2.152c.575 0 .788.107.831.138l1.266-1.74zm-2.097-.55h-3.056v2.152h3.056v-2.153zm-4.111.866l-.646 3.25 2.111.42.646-3.25-2.111-.42zm.41 4.536h3.056v-2.153H22.06v2.153zm13.346-9.686v-1.076h-.88l-.175.864 1.055.212zm4.068 0l1.054.22.27-1.296h-1.324v1.076zm-1.291 6.2l-1.054-.22 1.821.973-.767-.754zm6.09-6.2v-1.076h-.45l-.317.322.768.754zm3.853 0l1.055.213.26-1.289h-1.315v1.076zM45.78 39.357v1.076h.882l.174-.864-1.056-.212zm-4.089 0l-1.053-.222-.274 1.298h1.327v-1.076zm1.313-6.22l1.053.222-1.822-.975.769.753zm-6.091 6.22v1.076h.452l.317-.323-.769-.753zm-3.853 0l-1.055-.212-.259 1.288h1.314v-1.076zm2.346-10.59h4.068v-2.152h-4.068v2.153zm3.015-1.295L37.13 33.67l2.107.439 1.292-6.2-2.107-.438zm.53 7.172l6.09-6.198-1.535-1.509-6.09 6.199 1.534 1.508zm5.323-5.876h3.852v-2.153h-3.852v2.153zm2.797-1.289l-2.346 11.666 2.11.424 2.346-11.665-2.11-.425zm-1.29 10.802h-4.09v2.152h4.09v-2.152zm-3.037 1.298l1.313-6.22-2.106-.445-1.313 6.22 2.106.445zm-.509-7.195l-6.09 6.22 1.537 1.506 6.09-6.22-1.537-1.506zm-5.322 5.897H33.06v2.152h3.853v-2.152zm-2.798 1.288l2.346-11.665-2.11-.425-2.346 11.666 2.11.424zm28.62-11.878l1.055.213.26-1.289h-1.315v1.076zM60.39 39.357v1.076h.882l.173-.864-1.055-.212zm-4.09 0l-1.054-.21-.257 1.286H56.3v-1.076zm1.68-8.416l1.055.21.257-1.286H57.98v1.076zm-2.949 0v-1.076h-.838l-.205.813 1.043.263zm-.452 1.787l-1.043-.264-.004.013 1.047.25zm-1.291 4.09l-.982-.442.982.441zm-1.615 2.151l-.62-.88-.009.008.63.872zm-4.347.388l-1.042-.269-.275 1.064 1.07.252.247-1.047zm.86-3.336l.12-1.07-.928-.103-.233.904 1.042.269zm1.895-.797l-.917-.563-.005.008-.005.009.927.547zm.947-2.668l-1.047-.25v.003l1.047.247zm1.162-4.865v-1.076h-.85l-.197.826 1.047.25zm9.491-.212l-2.346 11.666 2.11.424 2.346-11.665-2.11-.425zm-1.29 10.802H56.3v2.152h4.09v-2.152zm-3.035 1.287l1.679-8.416-2.11-.421-1.68 8.415 2.111.422zm.624-9.703h-2.95v2.153h2.949v-2.153zm-3.992.813l-.452 1.786 2.086.528.452-1.787-2.086-.527zm-.456 1.799c-.409 1.707-.82 2.997-1.226 3.9l1.963.881c.484-1.078.933-2.514 1.357-4.28l-2.093-.501zm-1.226 3.9c-.396.881-.83 1.415-1.252 1.713l1.24 1.76c.84-.593 1.482-1.494 1.975-2.592l-1.963-.882zm-1.262 1.72c-.396.285-.936.464-1.695.464v2.152c1.107 0 2.115-.266 2.954-.87l-1.259-1.746zm-1.695.464c-.448 0-1.035-.076-1.776-.251l-.495 2.094c.838.198 1.6.309 2.27.309V38.56zm-.981 1.065l.86-3.336-2.083-.538-.861 3.336 2.084.538zm-.3-2.536c.248.028.48.05.635.05v-2.152c.004 0-.025 0-.104-.007a11.5 11.5 0 01-.293-.03l-.238 2.14zm.635.05c1.015 0 1.805-.522 2.305-1.369l-1.854-1.093c-.161.273-.289.31-.45.31v2.152zm2.294-1.352c.437-.71.784-1.736 1.078-2.986l-2.095-.493c-.28 1.19-.564 1.943-.816 2.352l1.833 1.127zm1.077-2.982l1.163-4.864-2.094-.5-1.162 4.864 2.093.5zm.116-4.038h10.546v-2.153H52.19v2.153zm23.884 5.768v1.076h.865l.186-.845-1.051-.231zm-8.566 0V33.46h-1.206l.136 1.197 1.07-.121zm4.154 1.657l.33 1.024-.33-1.024zm1.313-.71l.896-.595-.656-.99-.92.75.68.835zm1.7 2.561l.638.866.825-.607-.567-.854-.896.595zm-8.243.86l-.464.972.01.005.008.004.445-.98zm-2.174-1.85l-.913.57.006.01.006.01.9-.59zm.129-6.263l-.93-.543-.002.005.932.538zm2.496-2.41l.512.946.005-.003-.517-.944zm6.716-.238l-.482.963.01.005.01.004.462-.972zM75.6 29.93l-.925.549.003.006.004.006.918-.561zm-6.887 1.011l.659.851.008-.006.008-.007-.675-.838zm-.969 1.442l-1.023-.333-.459 1.41h1.482v-1.077zm4.8 0v1.077h1.052l.024-1.052-1.076-.025zm-.581-1.442l-.717.803.008.007.009.008.7-.818zm3.271 1.68c0 .461-.065 1.02-.211 1.683l2.102.463c.17-.771.262-1.49.262-2.147h-2.153zm.84.839h-8.566v2.152h8.566V33.46zm-9.636 1.197c.1.877.481 1.65 1.213 2.175.694.496 1.574.674 2.504.674v-2.152c-.691 0-1.063-.138-1.252-.273-.15-.108-.282-.281-.326-.667l-2.139.243zm3.717 2.849c.628 0 1.242-.096 1.838-.29l-.663-2.047c-.38.123-.77.185-1.175.185v2.152zm1.838-.29a5.092 5.092 0 001.661-.899l-1.36-1.669c-.28.23-.6.403-.964.521l.663 2.048zm.085-1.138l1.7 2.561 1.793-1.19-1.7-2.561-1.793 1.19zm1.958 1.1c-1.15.848-2.575 1.297-4.333 1.297v2.152c2.145 0 4.035-.556 5.61-1.717l-1.277-1.732zm-4.333 1.297c-1.109 0-2.043-.194-2.826-.55l-.89 1.96c1.11.504 2.357.742 3.716.742v-2.153zm-2.808-.541c-.772-.369-1.338-.86-1.737-1.47l-1.8 1.18c.634.969 1.517 1.711 2.61 2.232l.927-1.942zm-1.725-1.45c-.381-.61-.59-1.347-.59-2.25h-2.152c0 1.25.294 2.393.917 3.39l1.825-1.14zm-.59-2.25c0-1.104.253-2.064.739-2.905l-1.864-1.076c-.69 1.196-1.027 2.532-1.027 3.981h2.153zm.736-2.901a5.229 5.229 0 012.08-2.006l-1.024-1.894a7.382 7.382 0 00-2.915 2.816l1.86 1.084zm2.084-2.009c.899-.491 1.944-.75 3.164-.75v-2.152c-1.535 0-2.944.329-4.197 1.014l1.033 1.888zm3.164-.75c1.03 0 1.87.19 2.553.532l.963-1.925c-1.038-.52-2.221-.76-3.516-.76v2.153zm2.573.541c.697.332 1.196.787 1.537 1.364l1.852-1.098c-.576-.973-1.412-1.709-2.465-2.21l-.924 1.944zm1.545 1.376c.358.586.552 1.284.552 2.13h2.153c0-1.193-.28-2.289-.868-3.252l-1.837 1.122zm-4.312-1.164c-.866 0-1.668.24-2.333.777l1.351 1.675c.225-.18.528-.3.982-.3v-2.152zm-2.316.763c-.64.496-1.076 1.17-1.333 1.96l2.047.667c.144-.445.355-.732.604-.925l-1.318-1.702zm-.31 3.37h4.8v-2.153h-4.8v2.153zm5.876-1.052c.02-.88-.268-1.693-.957-2.284l-1.4 1.635c.114.098.213.245.205.6l2.152.05zm-.94-2.27c-.641-.572-1.448-.81-2.31-.81v2.152c.458 0 .714.119.876.264l1.434-1.605zm15.986.803v1.077h.877l.177-.86-1.054-.217zm-3.788 0v-1.076h-.887l-.17.871 1.057.205zm-1.636 8.416v1.076h.887l.17-.87-1.057-.206zm-4.09 0l-1.056-.205-.249 1.281h1.306v-1.076zm1.636-8.416l1.057.206.249-1.282h-1.306v1.076zm-3.702 0l-1.054-.216-.265 1.293h1.32V30.94zm.668-3.25v-1.076h-.878l-.177.86 1.055.216zm11.579 0l1.054.217.266-1.293h-1.32v1.076zm-.667 2.174h-3.788v2.153h3.788v-2.153zm-4.845.871l-1.635 8.416 2.112.41 1.636-8.415-2.113-.41zm-.579 7.545h-4.09v2.152h4.09v-2.152zm-3.033 1.281l1.636-8.415-2.113-.41-1.636 8.415 2.113.41zm.58-9.697h-3.703v2.153h3.702v-2.153zm-2.648 1.293l.667-3.25-2.109-.433-.667 3.25 2.109.433zm-.387-2.39h11.579v-2.153h-11.58v2.153zm10.525-1.293l-.667 3.25 2.108.433.667-3.25-2.108-.433zm17.167 5.855l-.396-1-2.331.922 2.274 1.055.453-.977zm.064 5.058l-.606-.889-.006.005.612.884zm-10.675.969l-1.055-.212-.26 1.288h1.315v-1.076zm2.346-11.666v-1.076H96.3l-.174.864 1.055.212zm9.298.732l-.589.901.008.005.581-.906zm.56 3.788l-.843-.669-.003.003.846.666zm-7.168.172l-1.054-.215-.263 1.292h1.317v-1.077zm3.423-.322l.625.875.014-.01.013-.01-.652-.855zm.129-1.55l-.665.846.033.026.035.023.597-.895zm-3.121-.237v-1.076h-.879l-.175.861 1.054.215zm2.54 6.113l.625.876.014-.01.013-.01-.652-.856zm-3.401-1.83v-1.076h-.882l-.173.865 1.055.211zm-.43 2.153l-1.056-.212-.257 1.288h1.313V36.71zm5.982-2.403c.337.156.533.34.653.533.121.195.209.471.209.88h2.152c0-.726-.16-1.415-.533-2.016-.376-.604-.922-1.047-1.575-1.35l-.906 1.953zm.862 1.412c0 .773-.294 1.332-.951 1.78l1.213 1.779c1.237-.844 1.89-2.064 1.89-3.559h-2.152zm-.957 1.785c-.683.472-1.755.777-3.348.777v2.152c1.823 0 3.391-.341 4.573-1.16l-1.225-1.77zm-3.348.777h-6.715v2.152h6.715v-2.152zm-5.66 1.288l2.346-11.665-2.11-.425-2.346 11.666 2.11.424zm1.291-10.801h6.113v-2.153h-6.113v2.153zm6.113 0c1.273 0 2.096.23 2.596.556l1.178-1.802c-.993-.648-2.293-.907-3.774-.907v2.153zm2.604.561c.446.286.646.644.646 1.203h2.152c0-1.277-.561-2.325-1.636-3.015l-1.162 1.812zm.646 1.203c0 .392-.114.715-.348 1.01l1.685 1.338c.541-.68.815-1.477.815-2.348h-2.152zm-.351 1.013c-.231.294-.591.566-1.143.785l.792 2.001c.825-.327 1.527-.8 2.042-1.454l-1.691-1.332zm-6.322 1.915h2.239v-2.153h-2.239v2.153zm2.239 0c.641 0 1.275-.142 1.809-.524l-1.251-1.751c-.069.049-.224.122-.558.122v2.153zm1.836-.543c.551-.42.876-1.023.876-1.739h-2.153v.015a.111.111 0 01.006-.016c.003-.006.005-.007.002-.004-.004.004-.014.015-.036.032l1.305 1.712zm.876-1.739c0-.592-.235-1.184-.802-1.563l-1.194 1.791a.39.39 0 01-.13-.152c-.031-.063-.027-.1-.027-.076h2.153zm-.734-1.513c-.467-.367-1.038-.467-1.548-.467v2.152c.124 0 .197.013.233.023.033.009.018.01-.015-.016l1.33-1.692zm-1.548-.467h-2.238v2.152h2.238v-2.152zm-3.293.861l-.43 2.11 2.109.43.43-2.11-2.108-.43zm2.368 7.727c.655 0 1.309-.136 1.852-.523l-1.251-1.752c-.059.042-.223.122-.601.122v2.153zm1.879-.543a2.16 2.16 0 00.876-1.76h-2.153c0 .02-.002.03-.002.032l.003-.008.002-.003c-.003.002-.011.012-.031.027l1.305 1.712zm.876-1.76c0-.562-.198-1.145-.722-1.548-.471-.361-1.05-.454-1.56-.454v2.152a1.1 1.1 0 01.261.025c.041.01.026.014-.012-.016a.348.348 0 01-.106-.136c-.02-.046-.014-.062-.014-.023h2.153zm-2.282-2.002h-2.647v2.152h2.647v-2.152zm-3.702.865l-.43 2.153 2.11.422.43-2.153-2.11-.422zm.624 3.44h2.605v-2.153H99.01v2.153zm18.747 1.119l-.469.968.012.006.457-.974zm-2.131-1.873l.913-.57-.913.57zm.172-6.241l-.92-.558.92.558zm2.562-2.41l-.511-.948.511.947zm6.908-.216l-.469.969.013.005.456-.974zm2.131 1.85l-.912.571.004.008.908-.578zm-.172 6.243l.921.557.003-.006-.924-.551zm-2.561 2.41l-.511-.947-.005.003.516.944zm-1.442-3.314l.817.7-.817-.7zm.193-3.982l.775-.747-.775.747zm-3.615.301l.817.7-.817-.7zm-.194 4.003l-.775.747.007.008.007.006.761-.76zm1.377 2.798c-1.109 0-2.024-.193-2.771-.543l-.914 1.948c1.089.51 2.327.748 3.685.748v-2.153zm-2.759-.538c-.751-.363-1.301-.855-1.687-1.474l-1.825 1.14c.617.99 1.488 1.745 2.574 2.272l.938-1.938zm-1.687-1.474c-.383-.612-.59-1.342-.59-2.228h-2.152c0 1.239.295 2.374.917 3.369l1.825-1.14zm-.59-2.228c0-1.095.262-2.047.77-2.886l-1.841-1.115c-.726 1.2-1.081 2.543-1.081 4.001h2.152zm.77-2.886c.513-.848 1.223-1.52 2.152-2.02l-1.022-1.895c-1.253.676-2.251 1.61-2.971 2.8l1.841 1.115zm2.152-2.02c.918-.496 1.966-.754 3.169-.754v-2.152c-1.523 0-2.929.33-4.191 1.011l1.022 1.894zm3.169-.754c1.105 0 2.015.199 2.759.56l.939-1.938c-1.092-.529-2.335-.774-3.698-.774v2.152zm2.772.565c.744.35 1.29.832 1.675 1.447l1.825-1.14c-.62-.992-1.495-1.744-2.587-2.256l-.913 1.95zm1.679 1.455c.378.594.585 1.313.585 2.198h2.153c0-1.238-.295-2.37-.922-3.354l-1.816 1.156zm.585 2.198c0 1.096-.262 2.058-.773 2.914l1.848 1.103c.723-1.21 1.078-2.558 1.078-4.017h-2.153zm-.769 2.908c-.514.848-1.223 1.52-2.152 2.021l1.022 1.894c1.252-.675 2.25-1.61 2.971-2.8l-1.841-1.115zm-2.157 2.024c-.9.492-1.945.75-3.165.75v2.153c1.536 0 2.944-.33 4.197-1.015l-1.032-1.888zm-2.928-.39c1.121 0 2.091-.43 2.819-1.28l-1.634-1.4c-.305.355-.67.527-1.185.527v2.153zm2.819-1.28c.717-.837 1.034-1.885 1.034-3.046h-2.153c0 .76-.199 1.277-.515 1.645l1.634 1.401zm1.034-3.046c0-.899-.259-1.736-.883-2.383l-1.549 1.494c.151.157.279.41.279.889h2.153zm-.883-2.383c-.636-.66-1.481-.932-2.389-.932v2.152c.47 0 .701.13.84.274l1.549-1.494zm-2.389-.932c-1.121 0-2.09.43-2.818 1.28l1.634 1.4c.305-.355.67-.528 1.184-.528v-2.152zm-2.818 1.28c-.72.84-1.034 1.896-1.034 3.068h2.152c0-.78.202-1.302.516-1.667l-1.634-1.401zm-1.034 3.068c0 .898.258 1.736.882 2.383l1.55-1.495c-.151-.156-.28-.41-.28-.888h-2.152zm.896 2.396c.638.639 1.478.897 2.375.897V35.18c-.481 0-.716-.129-.853-.265l-1.522 1.521zm21.714-5.496v1.077h.877l.177-.86-1.054-.217zm-3.788 0v-1.076h-.887l-.17.871 1.057.205zm-1.636 8.416v1.076h.887l.169-.87-1.056-.206zm-4.089 0l-1.057-.205-.249 1.281h1.306v-1.076zm1.635-8.416l1.057.206.249-1.282h-1.306v1.076zm-3.702 0l-1.054-.216-.265 1.293h1.319V30.94zm.668-3.25v-1.076h-.878l-.177.86 1.055.216zm11.579 0l1.054.217.266-1.293h-1.32v1.076zm-.667 2.174h-3.788v2.153h3.788v-2.153zm-4.845.871l-1.635 8.416 2.112.41 1.636-8.415-2.113-.41zm-.579 7.545h-4.089v2.152h4.089v-2.152zm-3.033 1.281l1.636-8.415-2.113-.41-1.636 8.415 2.113.41zm.579-9.697h-3.702v2.153h3.702v-2.153zm-2.647 1.293l.667-3.25-2.109-.433-.667 3.25 2.109.433zm-.387-2.39h11.579v-2.153h-11.579v2.153zm10.525-1.293l-.667 3.25 2.108.433.667-3.25-2.108-.433zm14.691.216l1.055.213.26-1.289h-1.315v1.076zm-2.346 11.666v1.076h.882l.173-.864-1.055-.212zm-4.067 0l-1.057-.205-.249 1.281h1.306v-1.076zm1.635-8.416l1.057.206.249-1.282h-1.306v1.076zm-3.917 0v-1.076h-.887l-.169.871 1.056.205zm-1.636 8.416v1.076h.887l.17-.87-1.057-.206zm-4.068 0l-1.055-.212-.259 1.288h1.314v-1.076zm2.346-11.666v-1.076h-.881l-.174.864 1.055.212zm10.998-.212l-2.346 11.666 2.11.424 2.346-11.665-2.11-.425zm-1.291 10.802h-4.067v2.152h4.067v-2.152zm-3.011 1.281l1.636-8.415-2.113-.41-1.636 8.415 2.113.41zm.579-9.697h-3.917v2.153h3.917v-2.153zm-4.973.871l-1.636 8.416 2.113.41 1.635-8.415-2.112-.41zm-.58 7.545h-4.068v2.152h4.068v-2.152zm-3.013 1.288l2.346-11.665-2.11-.425-2.346 11.666 2.11.424zm1.291-10.801h12.053v-2.153h-12.053v2.153zm27.258-1.077l.918.563 1.004-1.639h-1.922v1.076zm-7.468 12.183l.913.569.004-.007-.917-.563zm-1.787 2.302l-.741-.78-.01.01-.009.01.76.76zm-1.786 1.184l-.368-1.011-.01.004-.01.003.388 1.004zm-4.046.086l.318-1.028-.007-.002-.311 1.03zm-1.464-.731l-.909-.577-.504.795.721.605.692-.823zm1.83-2.885l.702-.815-.944-.813-.667 1.052.909.576zm2.755.41l-.562-.919-.018.011-.017.012.597.895zm.774-.797l.885.613.269-.389-.104-.46-1.05.236zm-2.647-11.752v-1.076h-1.345l.295 1.313 1.05-.237zm4.068 0l1.054-.215-.175-.86h-.879v1.075zm1.464 7.168l-1.055.215.553 2.71 1.424-2.371-.922-.554zm4.304-7.168v-1.076h-.609l-.313.522.922.554zm3.086-.562l-7.469 12.182 1.835 1.125 7.469-12.182-1.835-1.125zm-7.464 12.175c-.59.946-1.13 1.632-1.615 2.092l1.483 1.56c.663-.63 1.313-1.479 1.958-2.513l-1.826-1.139zm-1.634 2.111c-.468.468-.934.767-1.394.934l.736 2.023c.803-.292 1.528-.783 2.179-1.435l-1.521-1.521zm-1.414.941c-.481.186-1.083.294-1.829.294v2.152c.947 0 1.823-.136 2.605-.438l-.776-2.008zm-1.829.294a5.083 5.083 0 01-1.511-.232l-.636 2.056c.703.218 1.42.328 2.147.328V42.65zm-1.518-.234c-.526-.159-.869-.346-1.083-.525l-1.384 1.648c.504.423 1.137.724 1.844.937l.623-2.06zm-.866.875l1.829-2.884-1.817-1.153-1.83 2.884 1.818 1.153zm.218-2.645a3.762 3.762 0 002.511.928v-2.152a1.61 1.61 0 01-1.106-.407l-1.405 1.63zm2.511.928c.542 0 1.075-.127 1.544-.44l-1.194-1.79c-.049.032-.146.078-.35.078v2.152zm1.508-.416c.434-.266.793-.662 1.098-1.102l-1.769-1.225c-.212.305-.369.44-.452.49l1.123 1.837zm1.263-1.952l-2.647-11.751-2.1.473 2.648 11.751 2.099-.473zm-3.697-10.438h4.068v-2.153h-4.068v2.153zm3.014-.861l1.463 7.167 2.109-.43-1.464-7.168-2.108.43zm3.44 7.506l4.305-7.167-1.845-1.109-4.305 7.167 1.845 1.109zm3.382-6.645h4.003v-2.153h-4.003v2.153zm5.918 10.137l-.469.968.009.005.009.004.451-.977zm-2.152-1.873l-.912.57.007.012.905-.582zm.172-6.241l-.92-.558.92.558zm2.583-2.41l-.506-.95.506.95zm7.146-.044l-.542.93.011.006.531-.936zm2.109 2.325l.462.972.946-.45-.424-.958-.984.436zm-3.487 1.657l-.993.414.435 1.043 1.02-.485-.462-.972zm-4.326-.646l-.798-.722-.005.005-.004.006.807.711zm-.215 3.982l-.788.733.013.014.014.014.761-.761zm3.142.237l-.544-.929.544.929zm1.076-1.163l.557-.92-.947-.573-.545.962.935.532zm2.992 1.808l.927.548.542-.918-.912-.55-.557.92zm-2.367 2.217l-.498-.954-.005.003.503.951zm-3.423-.28c-1.109 0-2.033-.193-2.799-.546l-.902 1.954c1.1.508 2.343.745 3.701.745v-2.153zm-2.78-.538c-.753-.364-1.314-.86-1.717-1.486l-1.81 1.164c.631.982 1.505 1.735 2.588 2.26l.939-1.938zm-1.709-1.474c-.383-.612-.59-1.342-.59-2.228h-2.152c0 1.239.295 2.374.917 3.369l1.825-1.14zm-.59-2.228c0-1.095.262-2.047.77-2.886l-1.841-1.115c-.726 1.2-1.081 2.543-1.081 4.001h2.152zm.77-2.886c.511-.844 1.225-1.516 2.168-2.018l-1.012-1.9c-1.266.675-2.275 1.61-2.997 2.803l1.841 1.115zm2.168-2.018c.934-.497 1.998-.756 3.218-.756v-2.152c-1.536 0-2.954.329-4.23 1.008l1.012 1.9zm3.218-.756c1.165 0 2.112.246 2.88.693l1.083-1.86c-1.154-.672-2.489-.985-3.963-.985v2.152zm2.891.7a3.807 3.807 0 011.656 1.823l1.968-.871a5.961 5.961 0 00-2.562-2.825l-1.062 1.872zm2.178.416l-3.487 1.657.924 1.944 3.487-1.657-.924-1.944zm-2.031 2.215c-.277-.665-.69-1.236-1.273-1.636-.586-.402-1.265-.576-1.981-.576v2.152c.361 0 .597.084.764.2.17.116.349.32.503.688l1.987-.828zm-3.254-2.212c-1.128 0-2.109.424-2.864 1.258l1.596 1.444c.336-.37.732-.55 1.268-.55v-2.152zm-2.873 1.269c-.735.833-1.065 1.876-1.065 3.036h2.152c0-.735.2-1.242.528-1.613l-1.615-1.423zm-1.065 3.036c0 .9.259 1.735.869 2.39l1.576-1.466c-.165-.177-.293-.447-.293-.924h-2.152zm.896 2.418c.657.657 1.53.918 2.461.918V35.18c-.532 0-.793-.14-.939-.287l-1.522 1.522zm2.461.918c.711 0 1.385-.161 1.987-.514l-1.089-1.857c-.23.135-.518.218-.898.218v2.153zm1.987-.514c.617-.362 1.097-.907 1.467-1.56l-1.871-1.062c-.233.41-.47.64-.685.765l1.089 1.857zm-.025-1.17l2.992 1.808 1.113-1.842-2.992-1.808-1.113 1.843zm2.622.34c-.453.766-1.09 1.368-1.939 1.81l.995 1.909c1.189-.62 2.13-1.496 2.797-2.624l-1.853-1.095zm-1.944 1.813c-.831.44-1.796.672-2.92.672v2.152c1.431 0 2.748-.299 3.926-.921l-1.006-1.903zm13.787-4.279l-.801-.718-.496.553.341.66.956-.495zm3.013 5.833v1.076h1.767l-.811-1.57-.956.494zm-4.735 0l-.994.412.275.664h.719v-1.076zm-1.722-4.154l.994-.412-.275-.664h-.719v1.076zm-1.528 0v-1.076h-.88l-.175.863 1.055.213zm-.839 4.154v1.076h.88l.175-.863-1.055-.213zm-4.09 0l-1.055-.212-.259 1.288h1.314v-1.076zm2.346-11.666v-1.076h-.881l-.174.864 1.055.212zm4.09 0l1.055.212.257-1.288h-1.312v1.076zm-.861 4.305l-1.055-.211-.258 1.287h1.313v-1.076zm1.377 0v1.076h.49l.322-.37-.812-.706zm3.745-4.305v-1.076h-.49l-.322.37.812.706zm4.434 0l.801.719 1.609-1.795h-2.41v1.076zm-6.186 6.327l3.013 5.833 1.912-.988-3.013-5.833-1.912.988zm3.969 4.263h-4.735v2.152h4.735v-2.152zm-3.741.664l-1.722-4.154-1.988.824 1.722 4.154 1.988-.824zm-2.716-4.818h-1.528v2.152h1.528v-2.152zm-2.583.863l-.839 4.154 2.11.426.839-4.154-2.11-.426zm.216 3.29h-4.09v2.153h4.09v-2.152zm-3.035 1.29l2.346-11.666-2.11-.425-2.346 11.666 2.11.424zm1.291-10.802h4.09v-2.153h-4.09v2.153zm3.034-1.288l-.86 4.305 2.11.422.861-4.305-2.111-.422zm.195 5.592h1.377V30.92h-1.377v2.152zm2.189-.37l3.745-4.304-1.624-1.413-3.745 4.305 1.624 1.412zm2.933-3.934h4.434v-2.153h-4.434v2.153zm3.633-1.795l-5.23 5.833 1.602 1.437 5.23-5.833-1.602-1.437zm6.85 6.53l.798.721.496-.549-.335-.66-.959.488zm-3.853 4.261v1.076h.478l.32-.354-.798-.722zm-3.702 0l-.809-.71-1.566 1.786h2.375v-1.076zm3.831-4.369l.809.71.469-.534-.307-.641-.971.465zm-1.98-4.132v-1.077h-1.709l.739 1.542.97-.465zm3.552 0l.959-.488-.299-.588h-.66v1.076zm7.425 4.24l.798.721.497-.549-.335-.66-.96.488zm-3.853 4.261v1.076h.478l.321-.354-.799-.722zm-3.702 0l-.809-.71-1.566 1.786h2.375v-1.076zm3.831-4.369l.81.71.468-.534-.307-.641-.971.465zm-1.98-4.132v-1.077h-1.709l.739 1.542.97-.465zm3.552 0l.959-.488-.299-.588h-.66v1.076zm-3.919 3.518l-3.853 4.261 1.596 1.444 3.853-4.262-1.596-1.443zm-3.055 3.907h-3.702v2.152h3.702v-2.152zm-2.893 1.786l3.831-4.37-1.618-1.419-3.831 4.37 1.618 1.419zm3.993-5.544l-1.98-4.132-1.941.93 1.98 4.132 1.941-.93zm-2.951-2.591h3.552v-2.152h-3.552v2.152zm2.592-.59l2.152 4.24 1.919-.973-2.152-4.24-1.919.974zm7.587 3.032l-3.853 4.261 1.597 1.444 3.852-4.262-1.596-1.443zm-3.055 3.907h-3.702v2.152h3.702v-2.152zm-2.892 1.786l3.831-4.37-1.619-1.419-3.831 4.37 1.619 1.419zm3.992-5.544l-1.98-4.132-1.941.93 1.98 4.132 1.941-.93zm-2.951-2.591h3.552v-2.152h-3.552v2.152zm2.592-.59l2.152 4.24 1.92-.973-2.153-4.24-1.919.974z" fill="#8C1228"/></g><g clip-path="url(#clip0_12_2953)"><rect x="296.273" y="1.357" width="41.469" height="79.576" rx="3.362" transform="rotate(90 296.273 1.357)" fill="#D9D9D9"/><rect x="296.273" y="1.357" width="41.469" height="79.576" rx="3.362" transform="rotate(90 296.273 1.357)" fill="#D95D91"/><rect x="296.273" y="1.357" width="41.469" height="79.576" rx="3.362" transform="rotate(90 296.273 1.357)" fill="url(#paint0_linear_12_2953)" fill-opacity=".4"/><rect x="296.273" y="1.357" width="41.469" height="79.576" rx="3.362" transform="rotate(90 296.273 1.357)" fill="url(#paint1_linear_12_2953)" fill-opacity=".4"/><g filter="url(#filter1_d_12_2953)"><path d="M268.815 19.29h-52.117v5.603h52.117l-7.846 12.329h2.795a5.605 5.605 0 003.874-1.555l11.264-10.774h10.087a2.802 2.802 0 100-5.604h-10.087L267.638 8.515a5.605 5.605 0 00-3.874-1.555h-2.795l7.846 12.33z" fill="#fff"/></g><path d="M227.906 17.048h-11.208m11.208-14.57h-11.208m11.208 23.536h-11.208m11.208 4.483h-11.208m11.208-21.295h-11.208m11.208 29.141h-11.208m11.208-2.243h-11.208" stroke="#fff" stroke-width="1.121"/><path d="M227.906 33.86h-11.208" stroke="#fff" stroke-width="2.242"/><path d="M227.906 5.84h-11.208" stroke="#fff" stroke-width="3.362"/><path d="M227.906 28.255h-11.208m11.208-13.449h-11.208m11.208-3.362h-11.208" stroke="#fff" stroke-width="2.242"/><path d="M227.906 41.705h-11.208" stroke="#fff" stroke-width="3.362"/></g><defs><linearGradient id="paint0_linear_12_2953" x1="286.186" y1="92.944" x2="367.246" y2="7.519" gradientUnits="userSpaceOnUse"><stop stop-color="#D7B150"/><stop offset="1" stop-color="#fff" stop-opacity="0"/></linearGradient><linearGradient id="paint1_linear_12_2953" x1="345.588" y1="1.357" x2="307.823" y2="73.326" gradientUnits="userSpaceOnUse"><stop stop-color="#F881A8"/><stop offset="1" stop-color="#fff" stop-opacity="0"/></linearGradient><filter id="filter0_dd_12_2953" x=".141" y=".158" width="211.582" height="47.872" filterUnits="userSpaceOnUse" color-interpolation-filters="sRGB"><feFlood flood-opacity="0" result="BackgroundImageFix"/><feColorMatrix in="SourceAlpha" values="0 0 0 0 0 0 0 0 0 0 0 0 0 0 0 0 0 0 127 0" result="hardAlpha"/><feOffset dx="-4.305" dy="4.305"/><feComposite in2="hardAlpha" operator="out"/><feColorMatrix values="0 0 0 0 0.7375 0 0 0 0 0.22125 0 0 0 0 0.332671 0 0 0 1 0"/><feBlend in2="BackgroundImageFix" result="effect1_dropShadow_12_2953"/><feColorMatrix in="SourceAlpha" values="0 0 0 0 0 0 0 0 0 0 0 0 0 0 0 0 0 0 127 0" result="hardAlpha"/><feOffset/><feGaussianBlur stdDeviation="1.614"/><feComposite in2="hardAlpha" operator="out"/><feColorMatrix values="0 0 0 0 0.986 0 0 0 0 0.3 0 0 0 0 1 0 0 0 0.8 0"/><feBlend in2="effect1_dropShadow_12_2953" result="effect2_dropShadow_12_2953"/><feBlend in="SourceGraphic" in2="effect2_dropShadow_12_2953" result="shape"/></filter><filter id="filter1_d_12_2953" x="216.699" y="6.96" width="75.092" height="34.744" filterUnits="userSpaceOnUse" color-interpolation-filters="sRGB"><feFlood flood-opacity="0" result="BackgroundImageFix"/><feColorMatrix in="SourceAlpha" values="0 0 0 0 0 0 0 0 0 0 0 0 0 0 0 0 0 0 127 0" result="hardAlpha"/><feOffset dy="4.483"/><feComposite in2="hardAlpha" operator="out"/><feColorMatrix values="0 0 0 0 0.737255 0 0 0 0 0.219608 0 0 0 0 0.333333 0 0 0 1 0"/><feBlend in2="BackgroundImageFix" result="effect1_dropShadow_12_2953"/><feBlend in="SourceGraphic" in2="effect1_dropShadow_12_2953" result="shape"/></filter><clipPath id="clip0_12_2953"><rect x="296.273" y="1.357" width="41.469" height="79.576" rx="3.362" transform="rotate(90 296.273 1.357)" fill="#fff"/></clipPath></defs></svg>